<svg xmlns="http://www.w3.org/2000/svg" viewBox="0 0 655 375">
  <title>V</title>
  <g id="fondo_puro_6" data-name="fondo puro 6">
    <rect width="84.3933" height="375" fill="#0081ad"/>
  </g>
  <g id="Curva">
    <path d="M655,105.374V0H84.3933V375H594.3305A60.67,60.67,0,0,0,655,314.3305V294.7044a6.4327,6.4327,0,0,1-5.18-1.9476,5.6029,5.6029,0,0,1-1.2272-2.9007,6.99,6.99,0,0,1-5.838-1.4088,4.8351,4.8351,0,0,1-1.8145-3.7859s-2.495-.2129-3.1787-3.5694a4.5915,4.5915,0,0,1,1.2638-4.496s-2.4656-.7563-2.4656-4.2328a5.331,5.331,0,0,1,1.4711-3.5576,23.17,23.17,0,0,1-8.6191-9.2821c-2.8117-6.01-3.01-12.5821-7.3921-19.1444-12.4512-18.6471-42.3335-57.1016-30.0679-96.5506C603.9663,105.188,644.33,105.374,655,105.374Z" fill="#0081ad" opacity="0.3"/>
  </g>
  <g id="Capa_23" data-name="Capa 23">
    <path d="M84.3933,0V375H594.3305a60.6464,60.6464,0,0,0,52.6973-30.5885c-.6209-11.8056-2.0157-30.4587-4.9615-42.4179-1.8183-7.3817-19.376-10.0177-24.2569-20.2593-1.6892-3.5444.5448-5.9241-1.3113-9.4337-1.5443-2.92-4.7387-3.9922-6.8047-7.7191-2.5434-4.5879-2.9065-8.1621-5.8072-12.5168-27.0176-40.561-33.1505-66.7878-33.1505-87.3514,0-66.7981,68.9529-69.9474,84.2643-69.9474V0Z" fill="#0081ad" opacity="0.35"/>
  </g>
  <g id="Capa_19" data-name="Capa 19">
    <path d="M84.3933,0V375H594.3305A60.5188,60.5188,0,0,0,639.82,354.4691c-.2417-6.2356-1.8346-41.1828-7.3412-46.4631-8.1242-7.79-27.1823-6.8154-35.1231-18.57-2.456-3.6357-2.1653-10.2415-5.0352-13.7983a144.3757,144.3757,0,0,1-23.2419-42.3025c-5.967-16.741-5.7432-30.56-7.7074-43.0542-2.2947-14.5949-3.217-26.8965-1.9062-40.4849C564.4372,98.2467,617.8094,83.992,655,83.992V0Z" fill="#0081ad" opacity="0.4"/>
  </g>
  <g id="Capa_20" data-name="Capa 20">
    <path d="M84.3933,0V375H594.3305a60.416,60.416,0,0,0,38.3965-13.697v-5.878s-.7458-35.7334-9.3235-42.1978c-10.047-7.5717-41.4506-5.7884-43.6342-11.5612-4.64-12.2671-10.3011-25.1439-15.1664-38.04-2.9067-7.7048-10.5357-15.1116-11.9341-23.4954-1.6232-9.731,2.5625-31.1629.0562-43.3938-4-19.5205-7.4157-39.5651-3.04-56.3061C563.2355,88.5916,615.5717,73.7154,655,73.7154V0Z" fill="#0081ad" opacity="0.5"/>
  </g>
  <g id="Capa_21" data-name="Capa 21">
    <path d="M84.3933,0V375H594.3305a60.3858,60.3858,0,0,0,30.44-8.1809V355.425s-.3729-30.015-5.2212-34.5732c-9.2285-8.6764-53.168-.7538-56.8974-6.3479-4.3047-6.4571-2.9666-15.4328-5.5082-19.0951-1.8369-2.6468-4.13-4.2538-5.6356-7.0444-1.7611-3.2632-1.3571-7.4588-2.2584-8.6088-2.41-3.0752-2.9786-4.0794-5.0347-7.1377-2.07-3.0791.23-10.6714-1.4918-13.5916-3.2422-5.4991-6.6724-10.7906-8.2524-15.415-2.3218-6.7958,9.3415-36.9412,5.9937-47.1561-7.9035-24.1153-7.39-41.5644-3.0453-57.765,17.7354-66.1351,98.54-76.246,117.58-76.246V0Z" fill="#0081ad"/>
  </g>
</svg>
