<svg xmlns="http://www.w3.org/2000/svg" viewBox="0 0 871 512">
  <title>VI </title>
  <g id="fondo_puro_6" data-name="fondo puro 6">
    <rect width="61.098" height="512" fill="#0072bb"/>
  </g>
  <g id="Capa_22" data-name="Capa 22">
    <path d="M871,129.301V-20.2637H61.098V512h723.79A86.1125,86.1125,0,0,0,871,425.8876V398.0309c-2.3526,0-5.2934-.3529-7.352-2.7644a7.9522,7.9522,0,0,1-1.7419-4.1171,9.9219,9.9219,0,0,1-8.2862-2,6.8625,6.8625,0,0,1-2.5756-5.3735s-3.5413-.3022-4.5117-5.0663a6.5171,6.5171,0,0,1,1.7939-6.3815s-3.5-1.0734-3.5-6.0079a7.5664,7.5664,0,0,1,2.088-5.05s-8.2427-4.6439-12.2337-13.1747-4.2727-17.8587-10.492-27.173c-17.673-26.4671-60.087-81.0483-42.6775-137.0411C798.5643,129.0369,855.8549,129.301,871,129.301Z" fill="#0072bb" opacity="0.2"/>
    <path d="M61.098-20.2637V512h723.79a86.08,86.08,0,0,0,74.7969-43.4164c-.8812-16.7565-2.8611-43.2322-7.0422-60.2068-2.5808-10.4773-27.5017-14.2187-34.43-28.7553-2.3976-5.0308.7734-8.4085-1.8611-13.39-2.192-4.145-6.726-5.6664-9.6584-10.9562-3.61-6.5119-4.1255-11.585-8.2426-17.766-38.348-57.571-47.0528-94.7966-47.0528-123.9839,0-94.8113,97.87-99.2813,119.6022-99.2813V-20.2637Z" fill="#0072bb" opacity="0.25"/>
    <path d="M61.098-20.2637V512h723.79a85.8987,85.8987,0,0,0,64.5659-29.1409c-.3432-8.8507-2.6041-58.4537-10.42-65.9483-11.5312-11.0574-38.5818-9.6737-49.8526-26.3585-3.486-5.16-3.0734-14.5364-7.1469-19.5849-13.756-17.0485-24.902-37.355-32.9888-60.0429-8.47-23.7616-8.1517-43.3764-10.94-61.11-3.257-20.7157-4.5661-38.1762-2.7056-57.4632,7.0579-73.1669,82.8128-93.4,135.6-93.4V-20.2637Z" fill="#0072bb" opacity="0.3"/>
    <path d="M61.098-20.2637V512h723.79a85.7529,85.7529,0,0,0,54.4988-19.4411v-8.3431s-1.0586-50.719-13.2336-59.8942c-14.26-10.747-58.8337-8.2159-61.9331-16.41-6.5861-17.4116-14.6209-35.6884-21.5266-53.993-4.1257-10.9359-14.9541-21.4489-16.939-33.3486-2.3038-13.8119,3.6373-44.2316.08-61.5919-5.6776-27.7068-10.5257-56.1575-4.3146-79.9192C740.7522,105.4805,815.0367,84.3656,871,84.3656V-20.2637Z" fill="#0072bb" opacity="0.4"/>
    <path d="M61.098-20.2637V512h723.79a85.71,85.71,0,0,0,43.2062-11.6117V484.2158s-.5293-42.6024-7.4108-49.0721c-13.0988-12.3151-75.4651-1.07-80.7586-9.01-6.11-9.1649-4.2107-21.9048-7.8182-27.1029-2.6072-3.7568-5.8613-6.0378-7.9989-9.9987-2.5-4.6317-1.9263-10.5868-3.2055-12.219-3.4211-4.3649-4.2278-5.79-7.1461-10.131-2.9383-4.37.3264-15.1467-2.1174-19.2916-4.6019-7.8053-9.4707-15.3158-11.7132-21.88-3.2955-9.6459,13.259-52.4333,8.5072-66.932-11.218-34.2286-10.4889-58.9953-4.3224-81.99C729.2831,82.7188,843.9741,68.3677,871,68.3677V-20.2637Z" fill="#0072bb" opacity="0.5"/>
    <path d="M61.098-20.2637V512h723.79a85.84,85.84,0,0,0,33.3251-6.688V484.2158s-3.72-40.1321-8.7047-40.8379c-24.4661-3.4642-80.2412,20.4684-99.4577.8823-5.6008-5.7086-3.3525-29.1139-3.3525-29.1139a105.1457,105.1457,0,0,1-7.21-10.4986c-2.04-3.6615,0-13.0278,0-13.0278s-6.5958-6.2554-7.0551-10.3364c-.954-8.4772,5.4512-20.4325-1.262-25.8942-13.8806-11.2926-24.3535-17.9561-23.293-21.447,2.8232-9.2929,8.0009-22.7825,13.4119-42.3584,5.4318-19.651,8.6263-32.886,8.6263-32.886s-25.55-66.02,7.8768-119.5023C751.3978,53.4285,866.2065,53.5461,871,53.5461v-73.81Z" fill="#0072bb"/>
  </g>
</svg>
