<svg xmlns="http://www.w3.org/2000/svg" viewBox="0 0 176 615">
  <title>boton gris curso</title>
  <g id="Capa_3" data-name="Capa 3">
    <polygon points="-186.114 195.679 -186.114 793.321 60.503 496.59 -186.114 195.679" fill="#ccc" opacity="0.4"/>
    <polygon points="-38.144 195.679 -38.144 793.321 208.473 496.59 -38.144 195.679" fill="#ccc" opacity="0.4"/>
    <polygon points="107.771 199.859 107.771 797.5 354.388 500.769 107.771 199.859" fill="#ccc" opacity="0.4"/>
  </g>
  <g id="Capa_2" data-name="Capa 2">
    <rect x="3" y="165.5" width="3" height="450" fill="#fff"/>
    <rect x="9" y="165.5" width="3" height="450" fill="#fff"/>
    <rect x="15" y="165.5" width="3" height="450" fill="#fff"/>
    <rect x="21" y="165.5" width="3" height="450" fill="#fff"/>
    <rect x="27" y="165.5" width="3" height="450" fill="#fff"/>
    <rect x="33" y="165.5" width="3" height="450" fill="#fff"/>
    <rect x="39" y="165.5" width="3" height="450" fill="#fff"/>
    <rect x="45" y="165.5" width="3" height="450" fill="#fff"/>
    <rect x="51" y="165.5" width="3" height="450" fill="#fff"/>
    <rect x="57" y="165.5" width="3" height="450" fill="#fff"/>
    <rect x="63" y="165.5" width="3" height="450" fill="#fff"/>
    <rect x="69" y="165.5" width="3" height="450" fill="#fff"/>
    <rect x="75" y="165.5" width="3" height="450" fill="#fff"/>
    <rect x="81" y="165.5" width="3" height="450" fill="#fff"/>
    <rect x="87" y="165.5" width="3" height="450" fill="#fff"/>
    <rect x="93" y="165.5" width="3" height="450" fill="#fff"/>
    <rect x="99" y="165.5" width="3" height="450" fill="#fff"/>
    <rect x="105" y="165.5" width="3" height="450" fill="#fff"/>
    <rect x="111" y="165.5" width="3" height="450" fill="#fff"/>
    <rect x="117" y="165.5" width="3" height="450" fill="#fff"/>
    <rect x="123" y="165.5" width="3" height="450" fill="#fff"/>
    <rect x="129" y="165.5" width="3" height="450" fill="#fff"/>
    <rect x="135" y="165.5" width="3" height="450" fill="#fff"/>
    <rect x="141" y="165.5" width="3" height="450" fill="#fff"/>
    <rect x="147" y="165.5" width="3" height="450" fill="#fff"/>
    <rect x="153" y="165.5" width="3" height="450" fill="#fff"/>
    <rect x="159" y="165.5" width="3" height="450" fill="#fff"/>
    <rect x="165" y="165.5" width="3" height="450" fill="#fff"/>
    <rect x="171" y="165.5" width="3" height="450" fill="#fff"/>
  </g>
</svg>
