<svg xmlns="http://www.w3.org/2000/svg" viewBox="0 0 176 615">
  <title>boton color curso</title>
  <g id="Capa_1" data-name="Capa 1">
    <polygon points="-214.144 195.679 -214.144 793.321 32.473 496.59 -214.144 195.679" fill="#00a28e" opacity="0.4"/>
    <polygon points="-68.229 199.859 -68.229 797.5 178.388 500.769 -68.229 199.859" fill="#00a28e" opacity="0.4"/>
    <polygon points="79.741 199.859 79.741 797.5 326.359 500.769 79.741 199.859" fill="#00a28e" opacity="0.4"/>
  </g>
  <g id="Capa_2" data-name="Capa 2">
    <rect x="1" y="165.5" width="3" height="450" fill="#fff"/>
    <rect x="7" y="165.5" width="3" height="450" fill="#fff"/>
    <rect x="13" y="165.5" width="3" height="450" fill="#fff"/>
    <rect x="19" y="165.5" width="3" height="450" fill="#fff"/>
    <rect x="25" y="165.5" width="3" height="450" fill="#fff"/>
    <rect x="31" y="165.5" width="3" height="450" fill="#fff"/>
    <rect x="37" y="165.5" width="3" height="450" fill="#fff"/>
    <rect x="43" y="165.5" width="3" height="450" fill="#fff"/>
    <rect x="49" y="165.5" width="3" height="450" fill="#fff"/>
    <rect x="55" y="165.5" width="3" height="450" fill="#fff"/>
    <rect x="61" y="165.5" width="3" height="450" fill="#fff"/>
    <rect x="67" y="165.5" width="3" height="450" fill="#fff"/>
    <rect x="73" y="165.5" width="3" height="450" fill="#fff"/>
    <rect x="79" y="165.5" width="3" height="450" fill="#fff"/>
    <rect x="85" y="165.5" width="3" height="450" fill="#fff"/>
    <rect x="91" y="165.5" width="3" height="450" fill="#fff"/>
    <rect x="97" y="165.5" width="3" height="450" fill="#fff"/>
    <rect x="103" y="165.5" width="3" height="450" fill="#fff"/>
    <rect x="109" y="165.5" width="3" height="450" fill="#fff"/>
    <rect x="115" y="165.5" width="3" height="450" fill="#fff"/>
    <rect x="121" y="165.5" width="3" height="450" fill="#fff"/>
    <rect x="127" y="165.5" width="3" height="450" fill="#fff"/>
    <rect x="133" y="165.5" width="3" height="450" fill="#fff"/>
    <rect x="139" y="165.5" width="3" height="450" fill="#fff"/>
    <rect x="145" y="165.5" width="3" height="450" fill="#fff"/>
    <rect x="151" y="165.5" width="3" height="450" fill="#fff"/>
    <rect x="157" y="165.5" width="3" height="450" fill="#fff"/>
    <rect x="163" y="165.5" width="3" height="450" fill="#fff"/>
    <rect x="169" y="165.5" width="3" height="450" fill="#fff"/>
    <rect x="175" y="165.5" width="3" height="450" fill="#fff"/>
  </g>
</svg>
