<svg xmlns="http://www.w3.org/2000/svg" viewBox="0 0 625 143">
  <title>boton curso gris</title>
  <g id="Gris">
    <polygon points="280.5 -123.196 -110.106 -123.196 83.831 82.415 280.5 -123.196" fill="#b3b3b3" opacity="0.5"/>
    <polygon points="280.5 -8.392 -110.106 -8.392 83.831 197.219 280.5 -8.392" fill="#b3b3b3" opacity="0.5"/>
    <polygon points="280.5 106.413 -110.106 106.413 83.831 312.023 280.5 106.413" fill="#b3b3b3" opacity="0.5"/>
  </g>
  <g id="Lineas">
    <g>
      <rect x="311" y="-310.4999" width="2" height="626.9997" transform="translate(315 -309) rotate(90)" fill="#fff"/>
      <rect x="311" y="-306.4999" width="2" height="626.9997" transform="translate(319 -305) rotate(90)" fill="#fff"/>
      <rect x="311" y="-302.4999" width="2" height="626.9997" transform="translate(323 -301) rotate(90)" fill="#fff"/>
      <rect x="311" y="-302.4999" width="2" height="626.9997" transform="translate(323 -301) rotate(90)" fill="#fff"/>
      <rect x="311" y="-298.4999" width="2" height="626.9997" transform="translate(327 -297) rotate(90)" fill="#fff"/>
      <rect x="311" y="-294.4999" width="2" height="626.9997" transform="translate(331 -293) rotate(90)" fill="#fff"/>
      <rect x="311" y="-290.4999" width="2" height="626.9997" transform="translate(335 -289) rotate(90)" fill="#fff"/>
      <rect x="311" y="-286.4999" width="2" height="626.9997" transform="translate(339 -285) rotate(90)" fill="#fff"/>
      <rect x="311" y="-282.4999" width="2" height="626.9997" transform="translate(343 -281) rotate(90)" fill="#fff"/>
      <rect x="311" y="-278.4999" width="2" height="626.9997" transform="translate(347 -277) rotate(90)" fill="#fff"/>
      <rect x="311" y="-274.4999" width="2" height="626.9997" transform="translate(351 -273) rotate(90)" fill="#fff"/>
      <rect x="311" y="-274.4999" width="2" height="626.9997" transform="translate(351 -273) rotate(90)" fill="#fff"/>
      <rect x="311" y="-270.4999" width="2" height="626.9997" transform="translate(355 -269) rotate(90)" fill="#fff"/>
      <rect x="311" y="-266.4999" width="2" height="626.9997" transform="translate(359 -265) rotate(90)" fill="#fff"/>
      <rect x="311" y="-262.4999" width="2" height="626.9997" transform="translate(363 -261) rotate(90)" fill="#fff"/>
      <rect x="311" y="-258.4999" width="2" height="626.9997" transform="translate(367 -257) rotate(90)" fill="#fff"/>
      <rect x="311" y="-254.4999" width="2" height="626.9997" transform="translate(371 -253) rotate(90)" fill="#fff"/>
      <rect x="311" y="-250.4999" width="2" height="626.9997" transform="translate(375 -249) rotate(90)" fill="#fff"/>
      <rect x="311" y="-246.4999" width="2" height="626.9997" transform="translate(379 -245) rotate(90)" fill="#fff"/>
      <rect x="311" y="-246.4999" width="2" height="626.9997" transform="translate(379 -245) rotate(90)" fill="#fff"/>
      <rect x="311" y="-242.4999" width="2" height="626.9997" transform="translate(383 -241) rotate(90)" fill="#fff"/>
      <rect x="311" y="-238.4999" width="2" height="626.9997" transform="translate(387 -237) rotate(90)" fill="#fff"/>
      <rect x="311" y="-234.4999" width="2" height="626.9997" transform="translate(391 -233) rotate(90)" fill="#fff"/>
      <rect x="311" y="-230.4999" width="2" height="626.9997" transform="translate(395 -229) rotate(90)" fill="#fff"/>
      <rect x="311" y="-226.4999" width="2" height="626.9997" transform="translate(399 -225) rotate(90)" fill="#fff"/>
      <rect x="311" y="-222.4999" width="2" height="626.9997" transform="translate(403 -221) rotate(90)" fill="#fff"/>
      <rect x="311" y="-218.4999" width="2" height="626.9997" transform="translate(407 -217) rotate(90)" fill="#fff"/>
      <rect x="311" y="-218.4999" width="2" height="626.9997" transform="translate(407 -217) rotate(90)" fill="#fff"/>
      <rect x="311" y="-214.4999" width="2" height="626.9997" transform="translate(411 -213) rotate(90)" fill="#fff"/>
      <rect x="311" y="-210.4999" width="2" height="626.9997" transform="translate(415 -209) rotate(90)" fill="#fff"/>
      <rect x="311" y="-206.4999" width="2" height="626.9997" transform="translate(419 -205) rotate(90)" fill="#fff"/>
      <rect x="311" y="-202.4999" width="2" height="626.9997" transform="translate(423 -201) rotate(90)" fill="#fff"/>
      <rect x="311" y="-198.4999" width="2" height="626.9997" transform="translate(427 -197) rotate(90)" fill="#fff"/>
      <rect x="311" y="-194.4999" width="2" height="626.9997" transform="translate(431 -193) rotate(90)" fill="#fff"/>
      <rect x="311" y="-190.4999" width="2" height="626.9997" transform="translate(435 -189) rotate(90)" fill="#fff"/>
      <rect x="311" y="-190.4999" width="2" height="626.9997" transform="translate(435 -189) rotate(90)" fill="#fff"/>
      <rect x="311" y="-186.4999" width="2" height="626.9997" transform="translate(439 -185) rotate(90)" fill="#fff"/>
      <rect x="311" y="-182.4999" width="2" height="626.9997" transform="translate(443 -181) rotate(90)" fill="#fff"/>
      <rect x="311" y="-178.4999" width="2" height="626.9997" transform="translate(447 -177) rotate(90)" fill="#fff"/>
      <rect x="311" y="-174.4999" width="2" height="626.9997" transform="translate(451 -173) rotate(90)" fill="#fff"/>
      <rect x="311" y="-170.4999" width="2" height="626.9997" transform="translate(455 -169) rotate(90)" fill="#fff"/>
    </g>
  </g>
</svg>
