<svg xmlns="http://www.w3.org/2000/svg" viewBox="0 0 176 615">
  <title>boton gris curso</title>
  <g id="Capa_3" data-name="Capa 3">
    <polygon points="-128 191.5 -128 789.141 118.617 492.41 -128 191.5" fill="#ccc" opacity="0.4"/>
    <polygon points="19.97 191.5 19.97 789.141 266.588 492.41 19.97 191.5" fill="#ccc" opacity="0.4"/>
    <polygon points="165.886 195.679 165.886 793.321 412.503 496.59 165.886 195.679" fill="#ccc" opacity="0.4"/>
  </g>
  <g id="Capa_2" data-name="Capa 2">
    <rect x="1" y="165.5" width="3" height="450" fill="#fff"/>
    <rect x="7" y="165.5" width="3" height="450" fill="#fff"/>
    <rect x="13" y="165.5" width="3" height="450" fill="#fff"/>
    <rect x="19" y="165.5" width="3" height="450" fill="#fff"/>
    <rect x="25" y="165.5" width="3" height="450" fill="#fff"/>
    <rect x="31" y="165.5" width="3" height="450" fill="#fff"/>
    <rect x="37" y="165.5" width="3" height="450" fill="#fff"/>
    <rect x="43" y="165.5" width="3" height="450" fill="#fff"/>
    <rect x="49" y="165.5" width="3" height="450" fill="#fff"/>
    <rect x="55" y="165.5" width="3" height="450" fill="#fff"/>
    <rect x="61" y="165.5" width="3" height="450" fill="#fff"/>
    <rect x="67" y="165.5" width="3" height="450" fill="#fff"/>
    <rect x="73" y="165.5" width="3" height="450" fill="#fff"/>
    <rect x="79" y="165.5" width="3" height="450" fill="#fff"/>
    <rect x="85" y="165.5" width="3" height="450" fill="#fff"/>
    <rect x="91" y="165.5" width="3" height="450" fill="#fff"/>
    <rect x="97" y="165.5" width="3" height="450" fill="#fff"/>
    <rect x="103" y="165.5" width="3" height="450" fill="#fff"/>
    <rect x="109" y="165.5" width="3" height="450" fill="#fff"/>
    <rect x="115" y="165.5" width="3" height="450" fill="#fff"/>
    <rect x="121" y="165.5" width="3" height="450" fill="#fff"/>
    <rect x="127" y="165.5" width="3" height="450" fill="#fff"/>
    <rect x="133" y="165.5" width="3" height="450" fill="#fff"/>
    <rect x="139" y="165.5" width="3" height="450" fill="#fff"/>
    <rect x="145" y="165.5" width="3" height="450" fill="#fff"/>
    <rect x="151" y="165.5" width="3" height="450" fill="#fff"/>
    <rect x="157" y="165.5" width="3" height="450" fill="#fff"/>
    <rect x="163" y="165.5" width="3" height="450" fill="#fff"/>
    <rect x="169" y="165.5" width="3" height="450" fill="#fff"/>
    <rect x="175" y="165.5" width="3" height="450" fill="#fff"/>
  </g>
</svg>
