<svg xmlns="http://www.w3.org/2000/svg" viewBox="0 0 176 615">
  <title>boton gris curso</title>
  <g id="Capa_3" data-name="Capa 3">
    <polygon points="-156.03 191.5 -156.03 789.141 90.588 492.41 -156.03 191.5" fill="#ccc" opacity="0.4"/>
    <polygon points="-10.114 195.679 -10.114 793.321 236.503 496.59 -10.114 195.679" fill="#ccc" opacity="0.4"/>
    <polygon points="137.856 195.679 137.856 793.321 384.473 496.59 137.856 195.679" fill="#ccc" opacity="0.4"/>
  </g>
  <g id="Capa_2" data-name="Capa 2">
    <rect x="-1" y="165.5" width="3" height="450" fill="#fff"/>
    <rect x="5" y="165.5" width="3" height="450" fill="#fff"/>
    <rect x="11" y="165.5" width="3" height="450" fill="#fff"/>
    <rect x="17" y="165.5" width="3" height="450" fill="#fff"/>
    <rect x="23" y="165.5" width="3" height="450" fill="#fff"/>
    <rect x="29" y="165.5" width="3" height="450" fill="#fff"/>
    <rect x="35" y="165.5" width="3" height="450" fill="#fff"/>
    <rect x="41" y="165.5" width="3" height="450" fill="#fff"/>
    <rect x="47" y="165.5" width="3" height="450" fill="#fff"/>
    <rect x="53" y="165.5" width="3" height="450" fill="#fff"/>
    <rect x="59" y="165.5" width="3" height="450" fill="#fff"/>
    <rect x="65" y="165.5" width="3" height="450" fill="#fff"/>
    <rect x="71" y="165.5" width="3" height="450" fill="#fff"/>
    <rect x="77" y="165.5" width="3" height="450" fill="#fff"/>
    <rect x="83" y="165.5" width="3" height="450" fill="#fff"/>
    <rect x="89" y="165.5" width="3" height="450" fill="#fff"/>
    <rect x="95" y="165.5" width="3" height="450" fill="#fff"/>
    <rect x="101" y="165.5" width="3" height="450" fill="#fff"/>
    <rect x="107" y="165.5" width="3" height="450" fill="#fff"/>
    <rect x="113" y="165.5" width="3" height="450" fill="#fff"/>
    <rect x="119" y="165.5" width="3" height="450" fill="#fff"/>
    <rect x="125" y="165.5" width="3" height="450" fill="#fff"/>
    <rect x="131" y="165.5" width="3" height="450" fill="#fff"/>
    <rect x="137" y="165.5" width="3" height="450" fill="#fff"/>
    <rect x="143" y="165.5" width="3" height="450" fill="#fff"/>
    <rect x="149" y="165.5" width="3" height="450" fill="#fff"/>
    <rect x="155" y="165.5" width="3" height="450" fill="#fff"/>
    <rect x="161" y="165.5" width="3" height="450" fill="#fff"/>
    <rect x="167" y="165.5" width="3" height="450" fill="#fff"/>
    <rect x="173" y="165.5" width="3" height="450" fill="#fff"/>
  </g>
</svg>
