<svg xmlns="http://www.w3.org/2000/svg" viewBox="0 0 625 143">
  <title>boton curso gris</title>
  <g id="Gris">
    <polygon points="280.5 48 -110.106 48 83.831 253.611 280.5 48" fill="#b3b3b3" opacity="0.5"/>
  </g>
  <g id="Lineas">
    <g>
      <rect x="311" y="-312.4999" width="2" height="626.9997" transform="translate(313 -311) rotate(90)" fill="#fff"/>
      <rect x="311" y="-308.4999" width="2" height="626.9997" transform="translate(317 -307) rotate(90)" fill="#fff"/>
      <rect x="311" y="-304.4999" width="2" height="626.9997" transform="translate(321 -303) rotate(90)" fill="#fff"/>
      <rect x="311" y="-300.4999" width="2" height="626.9997" transform="translate(325 -299) rotate(90)" fill="#fff"/>
      <rect x="311" y="-296.4999" width="2" height="626.9997" transform="translate(329 -295) rotate(90)" fill="#fff"/>
      <rect x="311" y="-296.4999" width="2" height="626.9997" transform="translate(329 -295) rotate(90)" fill="#fff"/>
      <rect x="311" y="-292.4999" width="2" height="626.9997" transform="translate(333 -291) rotate(90)" fill="#fff"/>
      <rect x="311" y="-288.4999" width="2" height="626.9997" transform="translate(337 -287) rotate(90)" fill="#fff"/>
      <rect x="311" y="-284.4999" width="2" height="626.9997" transform="translate(341 -283) rotate(90)" fill="#fff"/>
      <rect x="311" y="-280.4999" width="2" height="626.9997" transform="translate(345 -279) rotate(90)" fill="#fff"/>
      <rect x="311" y="-276.4999" width="2" height="626.9997" transform="translate(349 -275) rotate(90)" fill="#fff"/>
      <rect x="311" y="-272.4999" width="2" height="626.9997" transform="translate(353 -271) rotate(90)" fill="#fff"/>
      <rect x="311" y="-268.4999" width="2" height="626.9997" transform="translate(357 -267) rotate(90)" fill="#fff"/>
      <rect x="311" y="-268.4999" width="2" height="626.9997" transform="translate(357 -267) rotate(90)" fill="#fff"/>
      <rect x="311" y="-264.4999" width="2" height="626.9997" transform="translate(361 -263) rotate(90)" fill="#fff"/>
      <rect x="311" y="-260.4999" width="2" height="626.9997" transform="translate(365 -259) rotate(90)" fill="#fff"/>
      <rect x="311" y="-256.4999" width="2" height="626.9997" transform="translate(369 -255) rotate(90)" fill="#fff"/>
      <rect x="311" y="-252.4999" width="2" height="626.9997" transform="translate(373 -251) rotate(90)" fill="#fff"/>
      <rect x="311" y="-248.4999" width="2" height="626.9997" transform="translate(377 -247) rotate(90)" fill="#fff"/>
      <rect x="311" y="-244.4999" width="2" height="626.9997" transform="translate(381 -243) rotate(90)" fill="#fff"/>
      <rect x="311" y="-240.4999" width="2" height="626.9997" transform="translate(385 -239) rotate(90)" fill="#fff"/>
      <rect x="311" y="-240.4999" width="2" height="626.9997" transform="translate(385 -239) rotate(90)" fill="#fff"/>
      <rect x="311" y="-236.4999" width="2" height="626.9997" transform="translate(389 -235) rotate(90)" fill="#fff"/>
      <rect x="311" y="-232.4999" width="2" height="626.9997" transform="translate(393 -231) rotate(90)" fill="#fff"/>
      <rect x="311" y="-228.4999" width="2" height="626.9997" transform="translate(397 -227) rotate(90)" fill="#fff"/>
      <rect x="311" y="-224.4999" width="2" height="626.9997" transform="translate(401 -223) rotate(90)" fill="#fff"/>
      <rect x="311" y="-220.4999" width="2" height="626.9997" transform="translate(405 -219) rotate(90)" fill="#fff"/>
      <rect x="311" y="-216.4999" width="2" height="626.9997" transform="translate(409 -215) rotate(90)" fill="#fff"/>
      <rect x="311" y="-212.4999" width="2" height="626.9997" transform="translate(413 -211) rotate(90)" fill="#fff"/>
      <rect x="311" y="-212.4999" width="2" height="626.9997" transform="translate(413 -211) rotate(90)" fill="#fff"/>
      <rect x="311" y="-208.4999" width="2" height="626.9997" transform="translate(417 -207) rotate(90)" fill="#fff"/>
      <rect x="311" y="-204.4999" width="2" height="626.9997" transform="translate(421 -203) rotate(90)" fill="#fff"/>
      <rect x="311" y="-200.4999" width="2" height="626.9997" transform="translate(425 -199) rotate(90)" fill="#fff"/>
      <rect x="311" y="-196.4999" width="2" height="626.9997" transform="translate(429 -195) rotate(90)" fill="#fff"/>
      <rect x="311" y="-192.4999" width="2" height="626.9997" transform="translate(433 -191) rotate(90)" fill="#fff"/>
      <rect x="311" y="-188.4999" width="2" height="626.9997" transform="translate(437 -187) rotate(90)" fill="#fff"/>
      <rect x="311" y="-184.4999" width="2" height="626.9997" transform="translate(441 -183) rotate(90)" fill="#fff"/>
      <rect x="311" y="-184.4999" width="2" height="626.9997" transform="translate(441 -183) rotate(90)" fill="#fff"/>
      <rect x="311" y="-180.4999" width="2" height="626.9997" transform="translate(445 -179) rotate(90)" fill="#fff"/>
      <rect x="311" y="-176.4999" width="2" height="626.9997" transform="translate(449 -175) rotate(90)" fill="#fff"/>
      <rect x="311" y="-172.4999" width="2" height="626.9997" transform="translate(453 -171) rotate(90)" fill="#fff"/>
    </g>
  </g>
</svg>
