<svg xmlns="http://www.w3.org/2000/svg" viewBox="0 0 625 143">
  <title>boton curso gris</title>
  <g id="Gris">
    <polygon points="280.5 -151.392 -110.106 -151.392 83.831 54.219 280.5 -151.392" fill="#b3b3b3" opacity="0.5"/>
    <polygon points="280.5 -36.587 -110.106 -36.587 83.831 169.023 280.5 -36.587" fill="#b3b3b3" opacity="0.5"/>
    <polygon points="280.5 78.217 -110.106 78.217 83.831 283.828 280.5 78.217" fill="#b3b3b3" opacity="0.5"/>
  </g>
  <g id="Lineas">
    <g>
      <rect x="311" y="-313.4999" width="2" height="626.9997" transform="translate(312 -312) rotate(90)" fill="#fff"/>
      <rect x="311" y="-309.4999" width="2" height="626.9997" transform="translate(316 -308) rotate(90)" fill="#fff"/>
      <rect x="311" y="-305.4999" width="2" height="626.9997" transform="translate(320 -304) rotate(90)" fill="#fff"/>
      <rect x="311" y="-305.4999" width="2" height="626.9997" transform="translate(320 -304) rotate(90)" fill="#fff"/>
      <rect x="311" y="-301.4999" width="2" height="626.9997" transform="translate(324 -300) rotate(90)" fill="#fff"/>
      <rect x="311" y="-297.4999" width="2" height="626.9997" transform="translate(328 -296) rotate(90)" fill="#fff"/>
      <rect x="311" y="-293.4999" width="2" height="626.9997" transform="translate(332 -292) rotate(90)" fill="#fff"/>
      <rect x="311" y="-289.4999" width="2" height="626.9997" transform="translate(336 -288) rotate(90)" fill="#fff"/>
      <rect x="311" y="-285.4999" width="2" height="626.9997" transform="translate(340 -284) rotate(90)" fill="#fff"/>
      <rect x="311" y="-281.4999" width="2" height="626.9997" transform="translate(344 -280) rotate(90)" fill="#fff"/>
      <rect x="311" y="-277.4999" width="2" height="626.9997" transform="translate(348 -276) rotate(90)" fill="#fff"/>
      <rect x="311" y="-277.4999" width="2" height="626.9997" transform="translate(348 -276) rotate(90)" fill="#fff"/>
      <rect x="311" y="-273.4999" width="2" height="626.9997" transform="translate(352 -272) rotate(90)" fill="#fff"/>
      <rect x="311" y="-269.4999" width="2" height="626.9997" transform="translate(356 -268) rotate(90)" fill="#fff"/>
      <rect x="311" y="-265.4999" width="2" height="626.9997" transform="translate(360 -264) rotate(90)" fill="#fff"/>
      <rect x="311" y="-261.4999" width="2" height="626.9997" transform="translate(364 -260) rotate(90)" fill="#fff"/>
      <rect x="311" y="-257.4999" width="2" height="626.9997" transform="translate(368 -256) rotate(90)" fill="#fff"/>
      <rect x="311" y="-253.4999" width="2" height="626.9997" transform="translate(372 -252) rotate(90)" fill="#fff"/>
      <rect x="311" y="-249.4999" width="2" height="626.9997" transform="translate(376 -248) rotate(90)" fill="#fff"/>
      <rect x="311" y="-249.4999" width="2" height="626.9997" transform="translate(376 -248) rotate(90)" fill="#fff"/>
      <rect x="311" y="-245.4999" width="2" height="626.9997" transform="translate(380 -244) rotate(90)" fill="#fff"/>
      <rect x="311" y="-241.4999" width="2" height="626.9997" transform="translate(384 -240) rotate(90)" fill="#fff"/>
      <rect x="311" y="-237.4999" width="2" height="626.9997" transform="translate(388 -236) rotate(90)" fill="#fff"/>
      <rect x="311" y="-233.4999" width="2" height="626.9997" transform="translate(392 -232) rotate(90)" fill="#fff"/>
      <rect x="311" y="-229.4999" width="2" height="626.9997" transform="translate(396 -228) rotate(90)" fill="#fff"/>
      <rect x="311" y="-225.4999" width="2" height="626.9997" transform="translate(400 -224) rotate(90)" fill="#fff"/>
      <rect x="311" y="-221.4999" width="2" height="626.9997" transform="translate(404 -220) rotate(90)" fill="#fff"/>
      <rect x="311" y="-221.4999" width="2" height="626.9997" transform="translate(404 -220) rotate(90)" fill="#fff"/>
      <rect x="311" y="-217.4999" width="2" height="626.9997" transform="translate(408 -216) rotate(90)" fill="#fff"/>
      <rect x="311" y="-213.4999" width="2" height="626.9997" transform="translate(412 -212) rotate(90)" fill="#fff"/>
      <rect x="311" y="-209.4999" width="2" height="626.9997" transform="translate(416 -208) rotate(90)" fill="#fff"/>
      <rect x="311" y="-205.4999" width="2" height="626.9997" transform="translate(420 -204) rotate(90)" fill="#fff"/>
      <rect x="311" y="-201.4999" width="2" height="626.9997" transform="translate(424 -200) rotate(90)" fill="#fff"/>
      <rect x="311" y="-197.4999" width="2" height="626.9997" transform="translate(428 -196) rotate(90)" fill="#fff"/>
      <rect x="311" y="-193.4999" width="2" height="626.9997" transform="translate(432 -192) rotate(90)" fill="#fff"/>
      <rect x="311" y="-193.4999" width="2" height="626.9997" transform="translate(432 -192) rotate(90)" fill="#fff"/>
      <rect x="311" y="-189.4999" width="2" height="626.9997" transform="translate(436 -188) rotate(90)" fill="#fff"/>
      <rect x="311" y="-185.4999" width="2" height="626.9997" transform="translate(440 -184) rotate(90)" fill="#fff"/>
      <rect x="311" y="-181.4999" width="2" height="626.9997" transform="translate(444 -180) rotate(90)" fill="#fff"/>
      <rect x="311" y="-177.4999" width="2" height="626.9997" transform="translate(448 -176) rotate(90)" fill="#fff"/>
      <rect x="311" y="-173.4999" width="2" height="626.9997" transform="translate(452 -172) rotate(90)" fill="#fff"/>
      <rect x="311" y="-169.4999" width="2" height="626.9997" transform="translate(456 -168) rotate(90)" fill="#fff"/>
    </g>
  </g>
</svg>
