<svg xmlns="http://www.w3.org/2000/svg" viewBox="0 0 176 615">
  <title>boton color curso</title>
  <g id="Capa_1" data-name="Capa 1">
    <polygon points="48 191.5 48 789.141 294.617 492.41 48 191.5" fill="#00a28e" opacity="0.4"/>
  </g>
  <g id="Capa_2" data-name="Capa 2">
    <rect x="3" y="165.5" width="3" height="450" fill="#fff"/>
    <rect x="9" y="165.5" width="3" height="450" fill="#fff"/>
    <rect x="15" y="165.5" width="3" height="450" fill="#fff"/>
    <rect x="21" y="165.5" width="3" height="450" fill="#fff"/>
    <rect x="27" y="165.5" width="3" height="450" fill="#fff"/>
    <rect x="33" y="165.5" width="3" height="450" fill="#fff"/>
    <rect x="39" y="165.5" width="3" height="450" fill="#fff"/>
    <rect x="45" y="165.5" width="3" height="450" fill="#fff"/>
    <rect x="51" y="165.5" width="3" height="450" fill="#fff"/>
    <rect x="57" y="165.5" width="3" height="450" fill="#fff"/>
    <rect x="63" y="165.5" width="3" height="450" fill="#fff"/>
    <rect x="69" y="165.5" width="3" height="450" fill="#fff"/>
    <rect x="75" y="165.5" width="3" height="450" fill="#fff"/>
    <rect x="81" y="165.5" width="3" height="450" fill="#fff"/>
    <rect x="87" y="165.5" width="3" height="450" fill="#fff"/>
    <rect x="93" y="165.5" width="3" height="450" fill="#fff"/>
    <rect x="99" y="165.5" width="3" height="450" fill="#fff"/>
    <rect x="105" y="165.5" width="3" height="450" fill="#fff"/>
    <rect x="111" y="165.5" width="3" height="450" fill="#fff"/>
    <rect x="117" y="165.5" width="3" height="450" fill="#fff"/>
    <rect x="123" y="165.5" width="3" height="450" fill="#fff"/>
    <rect x="129" y="165.5" width="3" height="450" fill="#fff"/>
    <rect x="135" y="165.5" width="3" height="450" fill="#fff"/>
    <rect x="141" y="165.5" width="3" height="450" fill="#fff"/>
    <rect x="147" y="165.5" width="3" height="450" fill="#fff"/>
    <rect x="153" y="165.5" width="3" height="450" fill="#fff"/>
    <rect x="159" y="165.5" width="3" height="450" fill="#fff"/>
    <rect x="165" y="165.5" width="3" height="450" fill="#fff"/>
    <rect x="171" y="165.5" width="3" height="450" fill="#fff"/>
  </g>
</svg>
