<svg xmlns="http://www.w3.org/2000/svg" viewBox="0 0 176 615">
  <title>boton color curso</title>
  <g id="Capa_1" data-name="Capa 1">
    <polygon points="-244.229 199.859 -244.229 797.5 2.388 500.769 -244.229 199.859" fill="#00a28e" opacity="0.4"/>
    <polygon points="-96.259 199.859 -96.259 797.5 150.359 500.769 -96.259 199.859" fill="#00a28e" opacity="0.4"/>
  </g>
  <g id="Capa_2" data-name="Capa 2">
    <rect x="-1" y="165.5" width="3" height="450" fill="#fff"/>
    <rect x="5" y="165.5" width="3" height="450" fill="#fff"/>
    <rect x="11" y="165.5" width="3" height="450" fill="#fff"/>
    <rect x="17" y="165.5" width="3" height="450" fill="#fff"/>
    <rect x="23" y="165.5" width="3" height="450" fill="#fff"/>
    <rect x="29" y="165.5" width="3" height="450" fill="#fff"/>
    <rect x="35" y="165.5" width="3" height="450" fill="#fff"/>
    <rect x="41" y="165.5" width="3" height="450" fill="#fff"/>
    <rect x="47" y="165.5" width="3" height="450" fill="#fff"/>
    <rect x="53" y="165.5" width="3" height="450" fill="#fff"/>
    <rect x="59" y="165.5" width="3" height="450" fill="#fff"/>
    <rect x="65" y="165.5" width="3" height="450" fill="#fff"/>
    <rect x="71" y="165.5" width="3" height="450" fill="#fff"/>
    <rect x="77" y="165.5" width="3" height="450" fill="#fff"/>
    <rect x="83" y="165.5" width="3" height="450" fill="#fff"/>
    <rect x="89" y="165.5" width="3" height="450" fill="#fff"/>
    <rect x="95" y="165.5" width="3" height="450" fill="#fff"/>
    <rect x="101" y="165.5" width="3" height="450" fill="#fff"/>
    <rect x="107" y="165.5" width="3" height="450" fill="#fff"/>
    <rect x="113" y="165.5" width="3" height="450" fill="#fff"/>
    <rect x="119" y="165.5" width="3" height="450" fill="#fff"/>
    <rect x="125" y="165.5" width="3" height="450" fill="#fff"/>
    <rect x="131" y="165.5" width="3" height="450" fill="#fff"/>
    <rect x="137" y="165.5" width="3" height="450" fill="#fff"/>
    <rect x="143" y="165.5" width="3" height="450" fill="#fff"/>
    <rect x="149" y="165.5" width="3" height="450" fill="#fff"/>
    <rect x="155" y="165.5" width="3" height="450" fill="#fff"/>
    <rect x="161" y="165.5" width="3" height="450" fill="#fff"/>
    <rect x="167" y="165.5" width="3" height="450" fill="#fff"/>
  </g>
</svg>
