<svg xmlns="http://www.w3.org/2000/svg" viewBox="0 0 625 143">
  <title>boton curso color</title>
  <g id="Color">
    <polygon points="280.5 -92.979 -110.106 -92.979 83.831 112.632 280.5 -92.979" fill="#3ca987" opacity="0.5"/>
  </g>
  <g id="Lineas">
    <g>
      <rect x="311" y="-311.4999" width="2" height="626.9997" transform="translate(314 -310) rotate(90)" fill="#fff"/>
      <rect x="311" y="-311.4999" width="2" height="626.9997" transform="translate(314 -310) rotate(90)" fill="#fff"/>
      <rect x="311" y="-307.4999" width="2" height="626.9997" transform="translate(318 -306) rotate(90)" fill="#fff"/>
      <rect x="311" y="-303.4999" width="2" height="626.9997" transform="translate(322 -302) rotate(90)" fill="#fff"/>
      <rect x="311" y="-299.4999" width="2" height="626.9997" transform="translate(326 -298) rotate(90)" fill="#fff"/>
      <rect x="311" y="-295.4999" width="2" height="626.9997" transform="translate(330 -294) rotate(90)" fill="#fff"/>
      <rect x="311" y="-291.4999" width="2" height="626.9997" transform="translate(334 -290) rotate(90)" fill="#fff"/>
      <rect x="311" y="-287.4999" width="2" height="626.9997" transform="translate(338 -286) rotate(90)" fill="#fff"/>
      <rect x="311" y="-283.4999" width="2" height="626.9997" transform="translate(342 -282) rotate(90)" fill="#fff"/>
      <rect x="311" y="-283.4999" width="2" height="626.9997" transform="translate(342 -282) rotate(90)" fill="#fff"/>
      <rect x="311" y="-279.4999" width="2" height="626.9997" transform="translate(346 -278) rotate(90)" fill="#fff"/>
      <rect x="311" y="-275.4999" width="2" height="626.9997" transform="translate(350 -274) rotate(90)" fill="#fff"/>
      <rect x="311" y="-271.4999" width="2" height="626.9997" transform="translate(354 -270) rotate(90)" fill="#fff"/>
      <rect x="311" y="-267.4999" width="2" height="626.9997" transform="translate(358 -266) rotate(90)" fill="#fff"/>
      <rect x="311" y="-263.4999" width="2" height="626.9997" transform="translate(362 -262) rotate(90)" fill="#fff"/>
      <rect x="311" y="-259.4999" width="2" height="626.9997" transform="translate(366 -258) rotate(90)" fill="#fff"/>
      <rect x="311" y="-255.4999" width="2" height="626.9997" transform="translate(370 -254) rotate(90)" fill="#fff"/>
      <rect x="311" y="-255.4999" width="2" height="626.9997" transform="translate(370 -254) rotate(90)" fill="#fff"/>
      <rect x="311" y="-251.4999" width="2" height="626.9997" transform="translate(374 -250) rotate(90)" fill="#fff"/>
      <rect x="311" y="-247.4999" width="2" height="626.9997" transform="translate(378 -246) rotate(90)" fill="#fff"/>
      <rect x="311" y="-243.4999" width="2" height="626.9997" transform="translate(382 -242) rotate(90)" fill="#fff"/>
      <rect x="311" y="-239.4999" width="2" height="626.9997" transform="translate(386 -238) rotate(90)" fill="#fff"/>
      <rect x="311" y="-235.4999" width="2" height="626.9997" transform="translate(390 -234) rotate(90)" fill="#fff"/>
      <rect x="311" y="-231.4999" width="2" height="626.9997" transform="translate(394 -230) rotate(90)" fill="#fff"/>
      <rect x="311" y="-227.4999" width="2" height="626.9997" transform="translate(398 -226) rotate(90)" fill="#fff"/>
      <rect x="311" y="-227.4999" width="2" height="626.9997" transform="translate(398 -226) rotate(90)" fill="#fff"/>
      <rect x="311" y="-223.4999" width="2" height="626.9997" transform="translate(402 -222) rotate(90)" fill="#fff"/>
      <rect x="311" y="-219.4999" width="2" height="626.9997" transform="translate(406 -218) rotate(90)" fill="#fff"/>
      <rect x="311" y="-215.4999" width="2" height="626.9997" transform="translate(410 -214) rotate(90)" fill="#fff"/>
      <rect x="311" y="-211.4999" width="2" height="626.9997" transform="translate(414 -210) rotate(90)" fill="#fff"/>
      <rect x="311" y="-207.4999" width="2" height="626.9997" transform="translate(418 -206) rotate(90)" fill="#fff"/>
      <rect x="311" y="-203.4999" width="2" height="626.9997" transform="translate(422 -202) rotate(90)" fill="#fff"/>
      <rect x="311" y="-199.4999" width="2" height="626.9997" transform="translate(426 -198) rotate(90)" fill="#fff"/>
      <rect x="311" y="-199.4999" width="2" height="626.9997" transform="translate(426 -198) rotate(90)" fill="#fff"/>
      <rect x="311" y="-195.4999" width="2" height="626.9997" transform="translate(430 -194) rotate(90)" fill="#fff"/>
      <rect x="311" y="-191.4999" width="2" height="626.9997" transform="translate(434 -190) rotate(90)" fill="#fff"/>
      <rect x="311" y="-187.4999" width="2" height="626.9997" transform="translate(438 -186) rotate(90)" fill="#fff"/>
      <rect x="311" y="-187.4999" width="2" height="626.9997" transform="translate(438 -186) rotate(90)" fill="#fff"/>
      <rect x="311" y="-183.4999" width="2" height="626.9997" transform="translate(442 -182) rotate(90)" fill="#fff"/>
      <rect x="311" y="-179.4999" width="2" height="626.9997" transform="translate(446 -178) rotate(90)" fill="#fff"/>
      <rect x="311" y="-175.4999" width="2" height="626.9997" transform="translate(450 -174) rotate(90)" fill="#fff"/>
      <rect x="311" y="-171.4999" width="2" height="626.9997" transform="translate(454 -170) rotate(90)" fill="#fff"/>
    </g>
  </g>
</svg>
