<svg xmlns="http://www.w3.org/2000/svg" xmlns:xlink="http://www.w3.org/1999/xlink" viewBox="0 0 1200 3395">
  <defs>
    <linearGradient id="Degradado_sin_nombre_2" data-name="Degradado sin nombre 2" x1="600" y1="82.0797" x2="600" y2="3343.0197" gradientUnits="userSpaceOnUse">
      <stop offset="0" stop-color="#149658"/>
      <stop offset="0.2733" stop-color="#148965"/>
      <stop offset="0.7791" stop-color="#156888"/>
      <stop offset="0.99" stop-color="#155898"/>
    </linearGradient>
  </defs>
  <title>i patron 1200</title>
  <g id="Capa_1" data-name="Capa 1">
    <polygon points="1200 2630 0 3395 0 6 1200 6 1200 2630" fill="#fff"/>
  </g>
  <g id="Capa_2" data-name="Capa 2">
    <circle cx="187.8271" cy="130.7448" r="124.393" fill="#158e5d" opacity="0.4"/>
    <circle cx="352.8406" cy="130.7448" r="124.393" fill="#158e5d" opacity="0.6"/>
    <circle cx="517.8542" cy="130.7448" r="124.393" fill="#158e5d" opacity="0.7"/>
    <circle cx="682.8677" cy="130.7448" r="124.393" fill="#158e5d" opacity="0.5"/>
    <circle cx="847.8813" cy="130.7448" r="124.393" fill="#158e5d" opacity="0.2"/>
    <circle cx="1012.8948" cy="130.7448" r="124.393" fill="#158e5d" opacity="0.1"/>
    <path d="M1200,3395.22v234.9367H0v-929.3c0-121.1588,98.2186-223.712,219.3775-223.712H930.531a100.1,100.1,0,0,0,100.0006-100.116l.625-1185.2713h-857.08V82.08H194.375V1176.4444H1200V2434.2569c0,103.5534-83.9466,187.5-187.5,187.5H280.2953c-96.9229,0-183.2108,80.6145-183.2108,177.5375L97.35,3395.22Z" fill="url(#Degradado_sin_nombre_2)"/>
    <g>
      <rect x="272.6544" y="2271.5476" width="34.4398" height="77.0444" fill="#f2f2f2"/>
      <rect x="384.5337" y="2068.4665" width="11.853" height="13.4334" fill="#404040"/>
      <rect x="384.5337" y="2095.3333" width="11.853" height="13.4334" fill="#404040"/>
      <rect x="358.4571" y="2041.5997" width="13.4334" height="13.4334" fill="#147b74" opacity="0.5"/>
      <rect x="371.8905" y="2055.0331" width="12.6432" height="13.4334" fill="#404040"/>
      <rect x="371.8905" y="2081.8999" width="12.6432" height="13.4334" fill="#404040"/>
      <rect x="395.5965" y="2241.125" width="11.853" height="13.4334" fill="#147b74" opacity="0.5"/>
      <rect x="382.9533" y="2120.2245" width="12.6432" height="13.4334" fill="#404040"/>
      <rect x="382.9533" y="2200.8248" width="12.6432" height="13.4334" fill="#404040"/>
      <rect x="369.5199" y="2214.2582" width="13.4334" height="13.4334" fill="#404040"/>
      <rect x="382.9533" y="2147.0913" width="12.6432" height="13.4334" fill="#404040"/>
      <rect x="369.5199" y="2160.5247" width="13.4334" height="13.4334" fill="#404040"/>
      <rect x="382.9533" y="2173.9581" width="12.6432" height="13.4334" fill="#404040"/>
      <rect x="382.9533" y="2227.6916" width="12.6432" height="13.4334" fill="#404040"/>
      <rect x="369.5199" y="2133.6579" width="13.4334" height="13.4334" fill="#147b74" opacity="0.5"/>
      <path d="M348.7752,2086.3482l-7.4823,6.979-6.979-7.4823,7.4823-6.979Zm-7.4436,5.8666,6.3312-5.9053-5.9053-6.3312-6.3312,5.9053Z" fill="#404040"/>
      <path d="M317.9924,2180.8091v10.2319H307.7605v-10.2319Zm-.7871,9.4448v-8.6578h-8.6577v8.6578Z" fill="#404040"/>
      <path d="M298.2374,1990.7663v10.2318H288.0055v-10.2318Zm-.7871,9.4448v-8.6578h-8.6577v8.6578Z" fill="#404040"/>
      <path d="M402.7351,2248.4614l-.59.6048a30.8888,30.8888,0,0,0-10.8384-6.1953c-6.1872-2.056-15.9588-3.06-27.3733,3.8315-11.6788,7.0513-21.1646,7.3686-27.0657,6.3933a24.2465,24.2465,0,0,1-10.17-3.8841l.5131-.6715a23.9147,23.9147,0,0,0,9.8448,3.73c5.7513.94,15.0073.6123,26.4409-6.2911,11.7065-7.068,21.7493-6.0209,28.1128-3.8981A31.1278,31.1278,0,0,1,402.7351,2248.4614Z" fill="#404040"/>
      <path d="M375.8683,2141.7846l-.59.6047a30.8907,30.8907,0,0,0-10.8385-6.1953c-6.1872-2.0559-15.9588-3.06-27.3732,3.8315-11.6788,7.0513-21.1646,7.3686-27.0657,6.3934a24.2443,24.2443,0,0,1-10.17-3.8842l.5131-.6715a23.9155,23.9155,0,0,0,9.8448,3.73c5.7513.94,15.0073.6123,26.441-6.291,11.7064-7.068,21.7493-6.021,28.1127-3.8982A31.1248,31.1248,0,0,1,375.8683,2141.7846Z" fill="#404040"/>
      <path d="M365.5958,2048.9362l-.59.6047a30.8923,30.8923,0,0,0-10.8385-6.1953c-6.1872-2.0559-15.9588-3.06-27.3732,3.8315-11.6788,7.0513-21.1646,7.3687-27.0657,6.3934a24.2466,24.2466,0,0,1-10.17-3.8841l.5131-.6716a23.9139,23.9139,0,0,0,9.8448,3.73c5.7513.94,15.0073.6124,26.441-6.291,11.7064-7.068,21.7493-6.0209,28.1127-3.8981A31.126,31.126,0,0,1,365.5958,2048.9362Z" fill="#404040"/>
      <rect x="214.2239" y="2082.2675" width="37.1832" height="0.8451" fill="#404040"/>
      <rect x="214.2239" y="2088.194" width="37.1832" height="0.8451" fill="#404040"/>
      <rect x="214.2239" y="2094.1205" width="37.1832" height="0.8451" fill="#404040"/>
      <rect x="376.4011" y="2022.5028" width="37.1832" height="0.8451" fill="#404040"/>
      <rect x="376.4011" y="2028.4292" width="37.1832" height="0.8451" fill="#404040"/>
      <rect x="376.4011" y="2034.3557" width="37.1832" height="0.8451" fill="#404040"/>
      <rect x="353.813" y="2262.2732" width="37.1832" height="0.8451" fill="#404040"/>
      <rect x="353.813" y="2268.1997" width="37.1832" height="0.8451" fill="#404040"/>
      <rect x="353.813" y="2274.1262" width="37.1832" height="0.8451" fill="#404040"/>
      <path d="M263.0884,2294.5186c-14.4106-6.4243-23.89-16.1069-28.1751-28.7788-3.1817-9.4084-3.4823-20.289-.8939-32.3394a86.481,86.481,0,0,1,9.8145-25.2672c24.2789-41.8338,24.4948-67.6971,20.4-82.0273-4.4891-15.7127-15.0224-21.463-15.1283-21.5192l.37-.6982c.1085.0575,10.9175,5.9386,15.5092,21.9691,2.6471,9.2417,2.7563,20.04.3248,32.0942-3.0263,15.0024-10.022,32.0192-20.7927,50.5781a85.6984,85.6984,0,0,0-9.7256,25.0361c-4.2452,19.7642-2.7264,46.2572,28.6182,60.2312Z" fill="#303030"/>
      <circle cx="313.0207" cy="2247.8416" r="14.2236" fill="#404040"/>
      <circle cx="288.1294" cy="2140.3746" r="14.2236" fill="#404040"/>
      <circle cx="275.4862" cy="2047.5262" r="14.2236" fill="#404040"/>
      <path d="M307.4893,2260.88v88.1072H262.448V2260.88Zm-.79,87.317V2261.67H263.2382v86.5268Z" fill="#404040"/>
      <rect x="243.0219" y="2160.5247" width="34.4398" height="77.0444" fill="#f2f2f2"/>
      <rect x="254.6554" y="2323.6009" width="37.1832" height="0.8451" fill="#404040"/>
      <rect x="254.6554" y="2329.5274" width="37.1832" height="0.8451" fill="#404040"/>
      <rect x="253.4701" y="2334.2685" width="37.1832" height="0.8451" fill="#404040"/>
      <path d="M277.8568,2149.857v88.1072H232.8155V2149.857Zm-.79,87.317v-86.5268H233.6057v86.5268Z" fill="#404040"/>
      <rect x="229.5886" y="1961.7897" width="34.4398" height="77.0444" fill="#f2f2f2"/>
      <rect x="241.7232" y="1969.4025" width="37.1832" height="0.8451" fill="#404040"/>
      <rect x="241.7232" y="1975.329" width="37.1832" height="0.8451" fill="#404040"/>
      <rect x="241.7232" y="1981.2555" width="37.1832" height="0.8451" fill="#404040"/>
      <path d="M264.4235,1951.122v88.1071H219.3821V1951.122Zm-.79,87.3169v-86.5267h-43.461v86.5267Z" fill="#404040"/>
      <rect x="255.3142" y="2207.9092" width="37.1832" height="0.8451" fill="#404040"/>
      <rect x="255.3142" y="2213.8357" width="37.1832" height="0.8451" fill="#404040"/>
      <rect x="255.3142" y="2219.7621" width="37.1832" height="0.8451" fill="#404040"/>
    </g>
    <circle cx="930.531" cy="2377.1442" r="100" fill="#147b74" opacity="0.5"/>
    <circle cx="951.1277" cy="2252.2274" r="79.4038" fill="#147b74" opacity="0.15"/>
    <circle cx="945.8668" cy="2185.0235" r="84.6648" fill="#147b74" opacity="0.6"/>
    <circle cx="955.5841" cy="2089.7174" r="74.9475" fill="#147b74" opacity="0.2"/>
    <circle cx="951.1277" cy="2009.101" r="79.4038" fill="#147b74" opacity="0.8"/>
    <rect x="453.076" y="1942.3909" width="319.4515" height="3.75" fill="#949494"/>
    <polygon points="874.49 1989.863 771.818 1946.073 772.527 1942.391 875.198 1986.18 874.49 1989.863" fill="#949494"/>
    <rect x="453.0769" y="2105.022" width="319.4505" height="3.75" fill="#949494"/>
    <polygon points="864.234 2164.616 772.526 2108.653 773.464 2105.022 865.172 2160.985 864.234 2164.616" fill="#949494"/>
    <rect x="453.0755" y="2267.6532" width="319.4515" height="3.75" fill="#949494"/>
    <polygon points="844.193 2327.525 771.5 2271.26 772.527 2267.653 845.219 2323.918 844.193 2327.525" fill="#949494"/>
  </g>
</svg>
