<svg xmlns="http://www.w3.org/2000/svg" viewBox="0 0 669 387">
  <title>I</title>
  <g id="fondo_puro_6" data-name="fondo puro 6">
    <rect width="80.1339" height="387" fill="#00b47c"/>
  </g>
  <g id="Curva">
    <path d="M669,108.746V0H80.1339V387H606.3891A62.611,62.611,0,0,0,669,324.3891V304.135a6.6384,6.6384,0,0,1-5.3455-2.01,5.7827,5.7827,0,0,1-1.2666-2.9935,7.214,7.214,0,0,1-6.0247-1.4539,4.99,4.99,0,0,1-1.8726-3.907s-2.5749-.22-3.28-3.6836a4.7387,4.7387,0,0,1,1.3043-4.64s-2.5446-.78-2.5446-4.3682a5.5013,5.5013,0,0,1,1.5182-3.6714,23.9114,23.9114,0,0,1-8.8949-9.5791c-2.9017-6.2027-3.1066-12.9848-7.6286-19.757-12.85-19.2438-43.6883-58.9289-31.03-99.64C616.3332,108.554,657.9883,108.746,669,108.746Z" fill="#00b47c"/>
  </g>
</svg>
