<svg xmlns="http://www.w3.org/2000/svg" viewBox="0 0 871 512">
  <title>I</title>
  <g id="fondo_puro_6" data-name="fondo puro 6">
    <rect width="61.098" height="512" fill="#00b47c"/>
  </g>
  <g id="Capa_22" data-name="Capa 22">
    <path d="M871,129.301V-20.2637H61.098V512h723.79A86.1125,86.1125,0,0,0,871,425.8876V398.0309c-2.3526,0-5.2934-.3529-7.352-2.7644a7.9522,7.9522,0,0,1-1.7419-4.1171,9.9219,9.9219,0,0,1-8.2862-2,6.8625,6.8625,0,0,1-2.5756-5.3735s-3.5413-.3022-4.5117-5.0663a6.5171,6.5171,0,0,1,1.7939-6.3815s-3.5-1.0734-3.5-6.0079a7.5664,7.5664,0,0,1,2.088-5.05s-8.2427-4.6439-12.2337-13.1747-4.2727-17.8587-10.492-27.173c-17.673-26.4671-60.087-81.0483-42.6775-137.0411C798.5643,129.0369,855.8549,129.301,871,129.301Z" fill="#00b47c"/>
  </g>
</svg>
