<svg xmlns="http://www.w3.org/2000/svg" viewBox="0 0 1091 556">
  <title>I</title>
  <g id="fondo_puro_6" data-name="fondo puro 6">
    <rect width="222.6926" height="556" fill="#00b47c"/>
  </g>
  <g id="Capa_22" data-name="Capa 22">
    <path d="M1091,145.703v-160.35H222.6926V556H998.6777A92.3223,92.3223,0,0,0,1091,463.6777V433.8121c-2.5223,0-5.6751-.3784-7.8822-2.9637a8.5264,8.5264,0,0,1-1.8676-4.4141,10.6372,10.6372,0,0,1-8.8837-2.1439,7.3574,7.3574,0,0,1-2.7613-5.761s-3.7966-.324-4.8371-5.4317a6.9869,6.9869,0,0,1,1.9233-6.8417s-3.7521-1.1508-3.7521-6.4412a8.112,8.112,0,0,1,2.2386-5.4136s-8.8371-4.9788-13.1159-14.1248-4.5808-19.1466-11.2486-29.1325c-18.9475-28.3758-64.42-86.8931-45.7552-146.9237C1013.3407,145.42,1074.7627,145.703,1091,145.703Z" fill="#00b47c"/>
  </g>
</svg>
