<svg xmlns="http://www.w3.org/2000/svg" viewBox="0 0 1091 656">
  <title>I</title>
  <g id="Curva">
    <path d="M1091,140.4752V-61H0V656H975a116,116,0,0,0,116-116V502.4749c-3.1692,0-7.1306-.4754-9.9037-3.7239a10.7128,10.7128,0,0,1-2.3465-5.546,13.3656,13.3656,0,0,1-11.1622-2.6938,9.2443,9.2443,0,0,1-3.4694-7.2386s-4.77-.4071-6.0777-6.8247c-1.1655-5.7219,2.4165-8.5964,2.4165-8.5964s-4.7143-1.4459-4.7143-8.0931a10.1922,10.1922,0,0,1,2.8127-6.802s-11.1035-6.2557-16.48-17.7474-5.7556-24.057-14.1336-36.6041C1004.1353,362.9517,947,289.4266,970.4523,214,993.4236,140.1194,1070.5984,140.4752,1091,140.4752Z" fill="#00b47c"/>
  </g>
</svg>
