<svg xmlns="http://www.w3.org/2000/svg" viewBox="0 0 416 396">
  <title>I</title>
  <g id="Capa_22" data-name="Capa 22">
    <path d="M416,109.0579V-3.0836H-191.2527V396H351.4342A64.5658,64.5658,0,0,0,416,331.4342V310.5476a6.8457,6.8457,0,0,1-5.5124-2.0727,5.9624,5.9624,0,0,1-1.3061-3.0869,7.44,7.44,0,0,1-6.2129-1.4994,5.1455,5.1455,0,0,1-1.9311-4.029s-2.6552-.2266-3.3828-3.7986A4.8865,4.8865,0,0,1,399,291.2762s-2.624-.8048-2.624-4.5047a5.6731,5.6731,0,0,1,1.5656-3.786,24.6576,24.6576,0,0,1-9.1727-9.8782c-2.9922-6.3963-3.2036-13.39-7.8667-20.3739-13.251-19.8447-45.0524-60.7689-31.999-102.7514C361.6888,108.86,404.6444,109.0579,416,109.0579Z" fill="#00b47c"/>
  </g>
</svg>
