<svg xmlns="http://www.w3.org/2000/svg" viewBox="0 0 520 511">
  <title>I</title>
  <g id="Capa_22" data-name="Capa 22">
    <path d="M520,133.2116V-14.4341H-279.51V511H434.9925A85.0076,85.0076,0,0,0,520,425.9925V398.4932c-2.3225,0-5.2255-.3483-7.2576-2.7289a7.85,7.85,0,0,1-1.72-4.0642,9.7945,9.7945,0,0,1-8.18-1.9741,6.7746,6.7746,0,0,1-2.5425-5.3046s-3.4959-.2983-4.4539-5.0013a6.4334,6.4334,0,0,1,1.7709-6.3s-3.4548-1.06-3.4548-5.9309a7.4688,7.4688,0,0,1,2.0613-4.9846s-8.1369-4.5843-12.0768-13.0057-4.2178-17.63-10.3573-26.8243c-17.4462-26.1276-59.3161-80.0084-42.13-135.2827C448.4938,132.9508,505.0492,133.2116,520,133.2116Z" fill="#00b47c"/>
  </g>
</svg>
