<svg xmlns="http://www.w3.org/2000/svg" viewBox="0 0 655 375">
  <title>I</title>
  <g id="fondo_puro_6" data-name="fondo puro 6">
    <rect width="84.3933" height="375" fill="#00b47c"/>
  </g>
  <g id="Curva">
    <path d="M655,105.374V0H84.3933V375H594.3305A60.67,60.67,0,0,0,655,314.3305V294.7044a6.4327,6.4327,0,0,1-5.18-1.9476,5.6029,5.6029,0,0,1-1.2272-2.9007,6.99,6.99,0,0,1-5.838-1.4088,4.8351,4.8351,0,0,1-1.8145-3.7859s-2.495-.2129-3.1787-3.5694a4.5915,4.5915,0,0,1,1.2638-4.496s-2.4656-.7563-2.4656-4.2328a5.331,5.331,0,0,1,1.4711-3.5576,23.17,23.17,0,0,1-8.6191-9.2821c-2.8117-6.01-3.01-12.5821-7.3921-19.1444-12.4512-18.6471-42.3335-57.1016-30.0679-96.5506C603.9663,105.188,644.33,105.374,655,105.374Z" fill="#00b47c"/>
  </g>
</svg>
