<svg xmlns="http://www.w3.org/2000/svg" viewBox="0 0 24.6444 24.6444">
  <title>icon phone</title>
  <g id="Capa_2" data-name="Capa 2">
    <g id="Capa_2-2" data-name="Capa 2">
      <path d="M12.3222,0A12.3222,12.3222,0,1,0,24.6444,12.3222,12.3222,12.3222,0,0,0,12.3222,0Zm.01,7.1889a4.634,4.634,0,0,1,2.4971.4522A4.428,4.428,0,0,1,17.304,12.07c-.0327.2625.0175.625-.4285.6014-.3-.0159-.4081-.2127-.3577-.6823a3.425,3.425,0,0,0-.8849-2.75,3.98,3.98,0,0,0-2.9959-1.27,1.731,1.731,0,0,0-.2608.0021c-.2516.039-.43-.0411-.449-.3094A.3983.3983,0,0,1,12.3323,7.1889Zm6.3609,10.6869a3.3869,3.3869,0,0,1-3.0364,1.9567,8.7955,8.7955,0,0,1-3.8519-.9,10.86,10.86,0,0,1-3.96-2.6026,12.6506,12.6506,0,0,1-2.9073-6.2,6.52,6.52,0,0,1-.0757-1.28A3.737,3.737,0,0,1,6.87,6.4781a1.4711,1.4711,0,0,1,1.7351.1535,6.7561,6.7561,0,0,1,1.8253,2.235,1.0608,1.0608,0,0,1-.1068,1.252c-.3613.4408-.75.86-1.1416,1.2749-.1945.2061-.4218.3813-.6425.5778a8.6447,8.6447,0,0,0,3.4967,3.7313c.3385.1832.6863.35,1.0237.5349.1726.0948.274.055.4076-.0886.4481-.4816.8923-.972,1.3849-1.4059a1.3532,1.3532,0,0,1,1.8674-.1846,5.2125,5.2125,0,0,1,1.8919,1.76A1.4738,1.4738,0,0,1,18.6932,17.8758Zm.9848-5.6728c-.0441.2444-.1043.4578-.4041.3994a.4159.4159,0,0,1-.3614-.5138,8.4725,8.4725,0,0,0,.0716-.8518,5.6065,5.6065,0,0,0-4.54-5.5135,8.6337,8.6337,0,0,0-1.7735-.1552c-.2259-.001-.4978.0914-.5784-.243-.0782-.3244.1327-.4845.401-.5426a7.0845,7.0845,0,0,1,1.604.0365,6.4641,6.4641,0,0,1,5.1646,3.91,7.7623,7.7623,0,0,1,.4879,2.6689C19.7479,11.5288,19.7013,12.0743,19.678,12.203Z" fill="#fff"/>
    </g>
  </g>
</svg>
