<svg xmlns="http://www.w3.org/2000/svg" viewBox="0 0 39.4309 39.4312">
  <title>icon facebook</title>
  <g id="Capa_2" data-name="Capa 2">
    <g id="Contacto">
      <path d="M19.7153,0A19.7156,19.7156,0,1,0,39.4309,19.7158,19.7156,19.7156,0,0,0,19.7153,0ZM25.3,11.5571a6.068,6.068,0,0,0-1.7434-.0727q-2.3694,0-2.3694,2.5722v1.6993H25.134L24.58,19.3882H21.1875v12.331H16.2769V19.3882H13.5952V15.7559h2.6817v-1.98A5.7462,5.7462,0,0,1,18.054,9.38a6.7768,6.7768,0,0,1,4.8327-1.668,8.4828,8.4828,0,0,1,2.4942.3115Z" fill="#fff"/>
    </g>
  </g>
</svg>
