<svg xmlns="http://www.w3.org/2000/svg" viewBox="0 0 277 187">
  <title>II</title>
  <g id="Capa_22" data-name="Capa 22">
    <path d="M277,48.995V-4.94H-15.0587V187H245.947A31.053,31.053,0,0,0,277,155.947V145.9016a3.2925,3.2925,0,0,1-2.6512-.9969,2.8679,2.8679,0,0,1-.6282-1.4846,3.5776,3.5776,0,0,1-2.988-.7212,2.4746,2.4746,0,0,1-.9288-1.9377,2.0219,2.0219,0,0,1-1.627-1.827,2.35,2.35,0,0,1,.6469-2.3012,2.0936,2.0936,0,0,1-1.262-2.1665,2.7286,2.7286,0,0,1,.7529-1.8209,11.8591,11.8591,0,0,1-4.4115-4.7509c-1.4392-3.0763-1.5408-6.44-3.7836-9.7989-6.373-9.5443-21.6679-29.2268-15.39-49.4183C250.879,48.9,271.5385,48.995,277,48.995Z" fill="#00ab86" opacity="0.4"/>
    <path d="M-15.0587-4.94V187H245.947A31.0411,31.0411,0,0,0,272.92,171.3436c-.3178-6.0425-1.0317-15.59-2.54-21.7111-.9306-3.7783-9.9174-5.1275-12.4156-10.3695-.8646-1.8142.2789-3.0322-.6711-4.8286-.7905-1.4947-2.4255-2.0433-3.483-3.9509-1.3018-2.3482-1.4877-4.1776-2.9723-6.4066-13.8287-20.7606-16.9677-34.1846-16.9677-44.71,0-34.19,35.2927-35.8018,43.13-35.8018V-4.94Z" fill="#00ab86"/>
  </g>
</svg>
