<svg xmlns="http://www.w3.org/2000/svg" viewBox="0 0 416 396">
  <title>II</title>
  <g id="Capa_22" data-name="Capa 22">
    <path d="M416,109.0579V-3.0836H-191.2527V396H351.4342A64.5658,64.5658,0,0,0,416,331.4342V310.5476a6.8457,6.8457,0,0,1-5.5124-2.0727,5.9624,5.9624,0,0,1-1.3061-3.0869,7.44,7.44,0,0,1-6.2129-1.4994,5.1455,5.1455,0,0,1-1.9311-4.029s-2.6552-.2266-3.3828-3.7986A4.8865,4.8865,0,0,1,399,291.2762s-2.624-.8048-2.624-4.5047a5.6731,5.6731,0,0,1,1.5656-3.786,24.6576,24.6576,0,0,1-9.1727-9.8782c-2.9922-6.3963-3.2036-13.39-7.8667-20.3739-13.251-19.8447-45.0524-60.7689-31.999-102.7514C361.6888,108.86,404.6444,109.0579,416,109.0579Z" fill="#00ab86" opacity="0.4"/>
    <path d="M-191.2527-3.0836V396H351.4342a64.541,64.541,0,0,0,56.0816-32.553c-.6607-12.5638-2.1452-32.4149-5.28-45.1421-1.9351-7.8558-20.62-10.661-25.8148-21.56-1.7977-3.772.58-6.3046-1.3955-10.04-1.6435-3.1079-5.043-4.2486-7.2417-8.2148-2.7067-4.8825-3.0932-8.6863-6.18-13.3207-28.7527-43.1659-35.2795-71.0771-35.2795-92.9613,0-71.0881,73.3813-74.44,89.676-74.44V-3.0836Z" fill="#00ab86"/>
  </g>
</svg>
