<svg xmlns="http://www.w3.org/2000/svg" viewBox="0 0 655 375">
  <title>II</title>
  <g id="fondo_puro_6" data-name="fondo puro 6">
    <rect width="84.3933" height="375" fill="#00ab86"/>
  </g>
  <g id="Curva">
    <path d="M655,105.374V0H84.3933V375H594.3305A60.67,60.67,0,0,0,655,314.3305V294.7044a6.4327,6.4327,0,0,1-5.18-1.9476,5.6029,5.6029,0,0,1-1.2272-2.9007,6.99,6.99,0,0,1-5.838-1.4088,4.8351,4.8351,0,0,1-1.8145-3.7859s-2.495-.2129-3.1787-3.5694a4.5915,4.5915,0,0,1,1.2638-4.496s-2.4656-.7563-2.4656-4.2328a5.331,5.331,0,0,1,1.4711-3.5576,23.17,23.17,0,0,1-8.6191-9.2821c-2.8117-6.01-3.01-12.5821-7.3921-19.1444-12.4512-18.6471-42.3335-57.1016-30.0679-96.5506C603.9663,105.188,644.33,105.374,655,105.374Z" fill="#00ab86" opacity="0.4"/>
  </g>
  <g id="Capa_23" data-name="Capa 23">
    <path d="M84.3933,0V375H594.3305a60.6464,60.6464,0,0,0,52.6973-30.5885c-.6209-11.8056-2.0157-30.4587-4.9615-42.4179-1.8183-7.3817-19.376-10.0177-24.2569-20.2593-1.6892-3.5444.5448-5.9241-1.3113-9.4337-1.5443-2.92-4.7387-3.9922-6.8047-7.7191-2.5434-4.5879-2.9065-8.1621-5.8072-12.5168-27.0176-40.561-33.1505-66.7878-33.1505-87.3514,0-66.7981,68.9529-69.9474,84.2643-69.9474V0Z" fill="#00ab86"/>
  </g>
</svg>
