<svg xmlns="http://www.w3.org/2000/svg" viewBox="0 0 1091 556">
  <title>III</title>
  <g id="fondo_puro_6" data-name="fondo puro 6">
    <rect width="222.6926" height="556" fill="#00a090"/>
  </g>
  <g id="Capa_22" data-name="Capa 22">
    <path d="M1091,145.703v-160.35H222.6926V556H998.6777A92.3223,92.3223,0,0,0,1091,463.6777V433.8121c-2.5223,0-5.6751-.3784-7.8822-2.9637a8.5264,8.5264,0,0,1-1.8676-4.4141,10.6372,10.6372,0,0,1-8.8837-2.1439,7.3574,7.3574,0,0,1-2.7613-5.761s-3.7966-.324-4.8371-5.4317a6.9869,6.9869,0,0,1,1.9233-6.8417s-3.7521-1.1508-3.7521-6.4412a8.112,8.112,0,0,1,2.2386-5.4136s-8.8371-4.9788-13.1159-14.1248-4.5808-19.1466-11.2486-29.1325c-18.9475-28.3758-64.42-86.8931-45.7552-146.9237C1013.3407,145.42,1074.7627,145.703,1091,145.703Z" fill="#00a090" opacity="0.3"/>
    <path d="M222.6926-14.6475V556H998.6777a92.2873,92.2873,0,0,0,80.1908-46.5473c-.9448-17.9649-3.0674-46.35-7.55-64.5485-2.7669-11.2329-29.4849-15.2442-36.9124-30.8291-2.5705-5.3936.8291-9.0148-1.9953-14.3556-2.35-4.4439-7.2111-6.075-10.355-11.7462-3.87-6.9816-4.4229-12.4205-8.837-19.0473-41.1134-61.7226-50.4459-101.6327-50.4459-132.9249C962.7728,134.3526,1067.7,129.56,1091,129.56V-14.6475Z" fill="#00a090" opacity="0.5"/>
    <path d="M222.6926-14.6475V556H998.6777A92.093,92.093,0,0,0,1067.9,524.7576c-.3678-9.4889-2.7918-62.669-11.1713-70.7041-12.3628-11.8548-41.3641-10.3712-53.4477-28.2593-3.7374-5.5326-3.2951-15.5847-7.6623-20.9972-14.748-18.278-26.6978-40.0489-35.3677-64.3729-9.08-25.4752-8.74-46.5044-11.7287-65.5166-3.4918-22.21-4.8953-40.9292-2.9007-61.607C953.1881,134.8571,1034.406,113.1654,1091,113.1654V-14.6475Z" fill="#00a090"/>
  </g>
</svg>
