<svg xmlns="http://www.w3.org/2000/svg" viewBox="0 0 212.8173 424.721">
  <title>illustracion metodologia</title>
  <g id="Capa_2" data-name="Capa 2">
    <g id="Ilustracion_metodología" data-name="Ilustracion metodología" opacity="0.71">
      <g>
        <rect x="62.3746" y="342.0544" width="36.7645" height="82.2449" fill="#f2f2f2"/>
        <rect x="181.8057" y="125.2653" width="12.6531" height="14.3401" fill="#404040"/>
        <rect x="181.8057" y="153.9456" width="12.6531" height="14.3401" fill="#404040"/>
        <rect x="153.969" y="96.585" width="14.3401" height="14.3401" fill="#008ba4"/>
        <rect x="168.3091" y="110.9252" width="13.4966" height="14.3401" fill="#404040"/>
        <rect x="168.3091" y="139.6054" width="13.4966" height="14.3401" fill="#404040"/>
        <rect x="193.6152" y="309.5782" width="12.6531" height="14.3401" fill="#008ba4"/>
        <rect x="180.1186" y="180.517" width="13.4966" height="14.3401" fill="#404040"/>
        <rect x="180.1186" y="266.5578" width="13.4966" height="14.3401" fill="#404040"/>
        <rect x="165.7785" y="280.8979" width="14.3401" height="14.3401" fill="#404040"/>
        <rect x="180.1186" y="209.1973" width="13.4966" height="14.3401" fill="#404040"/>
        <rect x="165.7785" y="223.5374" width="14.3401" height="14.3401" fill="#404040"/>
        <rect x="180.1186" y="237.8775" width="13.4966" height="14.3401" fill="#404040"/>
        <rect x="180.1186" y="295.2381" width="13.4966" height="14.3401" fill="#404040"/>
        <rect x="165.7785" y="194.8571" width="14.3401" height="14.3401" fill="#008ba4"/>
        <path d="M143.6335,144.354l-7.9874,7.45-7.45-7.9874,7.9873-7.45Zm-7.946,6.2626,6.7585-6.3039-6.3039-6.7585-6.7586,6.3039Z" fill="#404040"/>
        <path d="M110.7729,245.191v10.9225H99.85V245.191Zm-.84,10.0823v-9.2421h-9.2422v9.2421Z" fill="#404040"/>
        <path d="M89.6844,42.32V53.2428H78.7619V42.32Zm-.84,10.0823V43.1605H79.6021v9.2421Z" fill="#404040"/>
        <path d="M201.2357,317.41l-.63.6455a32.9752,32.9752,0,0,0-11.57-6.6134c-6.6049-2.1948-17.0361-3.2669-29.221,4.09-12.4671,7.5273-22.5932,7.866-28.8926,6.8249a25.8837,25.8837,0,0,1-10.8567-4.1463l.5478-.7169a25.5281,25.5281,0,0,0,10.5093,3.9818c6.1395,1.0038,16.02.6537,28.2257-6.7157,12.4966-7.5451,23.2174-6.4273,30.01-4.1612A33.2248,33.2248,0,0,1,201.2357,317.41Z" fill="#404040"/>
        <path d="M172.5555,203.5323l-.63.6456a32.9745,32.9745,0,0,0-11.57-6.6135c-6.6049-2.1947-17.036-3.2669-29.221,4.09-12.4671,7.5273-22.5932,7.866-28.8926,6.8249a25.8806,25.8806,0,0,1-10.8566-4.1463l.5477-.7168a25.53,25.53,0,0,0,10.5094,3.9817c6.1395,1.0039,16.02.6537,28.2257-6.7156,12.4966-7.5451,23.2173-6.4274,30.01-4.1613A33.2292,33.2292,0,0,1,172.5555,203.5323Z" fill="#404040"/>
        <path d="M161.59,104.4167l-.63.6455a32.9756,32.9756,0,0,0-11.57-6.6134c-6.6048-2.1948-17.036-3.2669-29.2209,4.09-12.4671,7.5272-22.5933,7.866-28.8926,6.8249a25.8806,25.8806,0,0,1-10.8567-4.1463l.5477-.7169a25.5282,25.5282,0,0,0,10.5094,3.9818c6.1395,1.0039,16.02.6537,28.2257-6.7157,12.4966-7.545,23.2174-6.4273,30.01-4.1612A33.2275,33.2275,0,0,1,161.59,104.4167Z" fill="#404040"/>
        <rect y="139.9979" width="39.6931" height="0.9021" fill="#404040"/>
        <rect y="146.3244" width="39.6931" height="0.9021" fill="#404040"/>
        <rect y="152.651" width="39.6931" height="0.9021" fill="#404040"/>
        <rect x="173.1242" y="76.199" width="39.6931" height="0.9021" fill="#404040"/>
        <rect x="173.1242" y="82.5255" width="39.6931" height="0.9021" fill="#404040"/>
        <rect x="173.1242" y="88.852" width="39.6931" height="0.9021" fill="#404040"/>
        <rect x="149.0114" y="332.154" width="39.6931" height="0.9021" fill="#404040"/>
        <rect x="149.0114" y="338.4805" width="39.6931" height="0.9021" fill="#404040"/>
        <rect x="149.0114" y="344.807" width="39.6931" height="0.9021" fill="#404040"/>
        <path d="M52.1628,366.5759C36.78,359.718,26.66,349.3817,22.0859,335.8546c-3.3964-10.0435-3.7173-21.6585-.9542-34.5224A92.3188,92.3188,0,0,1,31.6087,274.36c25.9178-44.6575,26.1481-72.2666,21.7775-87.5642C48.5941,170.022,37.35,163.8836,37.2368,163.8236l.395-.7453c.1159.0613,11.6545,6.3395,16.5561,23.452,2.8258,9.8655,2.9424,21.3925.3468,34.2606-3.2306,16.015-10.6985,34.18-22.1963,53.9921a91.4832,91.4832,0,0,0-10.3821,26.726c-4.5317,21.0983-2.91,49.38,30.55,64.2968Z" fill="#303030"/>
        <circle cx="105.4656" cy="316.7483" r="15.1837" fill="#404040"/>
        <circle cx="78.8942" cy="202.0272" r="15.1837" fill="#404040"/>
        <circle cx="65.3976" cy="102.9116" r="15.1837" fill="#404040"/>
        <path d="M99.5608,330.6666V424.721H51.4792V330.6666Zm-.8435,93.2109V331.51H52.3227v92.3673Z" fill="#404040"/>
        <rect x="30.7419" y="223.5374" width="36.7645" height="82.2449" fill="#f2f2f2"/>
        <rect x="43.1607" y="397.6212" width="39.6931" height="0.9021" fill="#404040"/>
        <rect x="43.1607" y="403.9478" width="39.6931" height="0.9021" fill="#404040"/>
        <rect x="41.8954" y="409.009" width="39.6931" height="0.9021" fill="#404040"/>
        <path d="M67.9282,212.15V306.204H19.8466V212.15Zm-.8436,93.2109V212.9932H20.69v92.3673Z" fill="#404040"/>
        <rect x="16.4018" y="11.3878" width="36.7645" height="82.2449" fill="#f2f2f2"/>
        <rect x="29.3555" y="19.5145" width="39.6931" height="0.9021" fill="#404040"/>
        <rect x="29.3555" y="25.841" width="39.6931" height="0.9021" fill="#404040"/>
        <rect x="29.3555" y="32.1676" width="39.6931" height="0.9021" fill="#404040"/>
        <path d="M53.588,0V94.0544H5.5064V0Zm-.8435,93.2109V.8435H6.35V93.2109Z" fill="#404040"/>
        <rect x="43.8639" y="274.1203" width="39.6931" height="0.9021" fill="#404040"/>
        <rect x="43.8639" y="280.4469" width="39.6931" height="0.9021" fill="#404040"/>
        <rect x="43.8639" y="286.7734" width="39.6931" height="0.9021" fill="#404040"/>
      </g>
    </g>
  </g>
</svg>
