<svg xmlns="http://www.w3.org/2000/svg" viewBox="0 0 669 387">
  <title>IV</title>
  <g id="fondo_puro_6" data-name="fondo puro 6">
    <rect width="80.1339" height="387" fill="#008fa0"/>
  </g>
  <g id="Curva">
    <path d="M669,108.746V0H80.1339V387H606.3891A62.611,62.611,0,0,0,669,324.3891V304.135a6.6384,6.6384,0,0,1-5.3455-2.01,5.7827,5.7827,0,0,1-1.2666-2.9935,7.214,7.214,0,0,1-6.0247-1.4539,4.99,4.99,0,0,1-1.8726-3.907s-2.5749-.22-3.28-3.6836a4.7387,4.7387,0,0,1,1.3043-4.64s-2.5446-.78-2.5446-4.3682a5.5013,5.5013,0,0,1,1.5182-3.6714,23.9114,23.9114,0,0,1-8.8949-9.5791c-2.9017-6.2027-3.1066-12.9848-7.6286-19.757-12.85-19.2438-43.6883-58.9289-31.03-99.64C616.3332,108.554,657.9883,108.746,669,108.746Z" fill="#008fa0" opacity="0.25"/>
  </g>
  <g id="Capa_23" data-name="Capa 23">
    <path d="M80.1339,0V387H606.3891a62.587,62.587,0,0,0,54.3836-31.5673c-.6407-12.1834-2.08-31.4334-5.12-43.7753-1.8765-7.6179-19.996-10.3383-25.0331-20.9076-1.7433-3.6578.5622-6.1137-1.3532-9.7356-1.5938-3.0138-4.89-4.12-7.0225-7.9661-2.6248-4.7347-3-8.4233-5.9931-12.9174-27.8821-41.8588-34.2112-68.925-34.2112-90.1466,0-68.9356,71.1593-72.1857,86.9607-72.1857V0Z" fill="#008fa0" opacity="0.35"/>
  </g>
  <g id="Capa_19" data-name="Capa 19">
    <path d="M80.1339,0V387H606.3891a62.4556,62.4556,0,0,0,46.9448-21.1878c-.25-6.4353-1.8934-42.5007-7.5762-47.95-8.3841-8.04-28.0522-7.0335-36.247-19.1648-2.5346-3.752-2.2346-10.5692-5.1964-14.24a148.9965,148.9965,0,0,1-23.9856-43.6562c-6.158-17.2767-5.927-31.5383-7.9541-44.4319-2.368-15.062-3.32-27.7572-1.9671-41.78C575.5392,101.3906,630.6193,86.68,669,86.68V0Z" fill="#008fa0" opacity="0.5"/>
  </g>
  <g id="Capa_20" data-name="Capa 20">
    <path d="M80.1339,0V387H606.3891a62.35,62.35,0,0,0,39.6252-14.1353v-6.0661s-.77-36.8769-9.6219-43.5481c-10.3685-7.814-42.777-5.9736-45.03-11.9312-4.7887-12.66-10.6307-25.9485-15.6517-39.2574-3-7.9513-10.8729-15.5952-12.316-24.2472-1.6751-10.0424,2.6445-32.16.058-44.7824-4.128-20.1452-7.653-40.8312-3.1371-58.1079C574.299,91.4265,628.31,76.0743,669,76.0743V0Z" fill="#008fa0"/>
  </g>
</svg>
