<svg xmlns="http://www.w3.org/2000/svg" viewBox="0 0 1091 656">
  <title>IV</title>
  <g id="Curva">
    <path d="M1091,140.4752V-61H0V656H975a116,116,0,0,0,116-116V502.4749c-3.1692,0-7.1306-.4754-9.9037-3.7239a10.7128,10.7128,0,0,1-2.3465-5.546,13.3656,13.3656,0,0,1-11.1622-2.6938,9.2443,9.2443,0,0,1-3.4694-7.2386s-4.77-.4071-6.0777-6.8247c-1.1655-5.7219,2.4165-8.5964,2.4165-8.5964s-4.7143-1.4459-4.7143-8.0931a10.1922,10.1922,0,0,1,2.8127-6.802s-11.1035-6.2557-16.48-17.7474-5.7556-24.057-14.1336-36.6041C1004.1353,362.9517,947,289.4266,970.4523,214,993.4236,140.1194,1070.5984,140.4752,1091,140.4752Z" fill="#008fa0" opacity="0.25"/>
  </g>
  <g id="Capa_23" data-name="Capa 23">
    <path d="M0-61V656H975a115.9554,115.9554,0,0,0,100.7571-58.4852c-1.187-22.5723-3.854-58.2371-9.4863-81.1031-3.4766-14.1138-37.0469-19.1538-46.3793-38.7357-3.23-6.7769,1.0417-11.3269-2.507-18.0373-2.9529-5.5836-9.0605-7.6331-13.0107-14.7588-4.8629-8.7721-5.5573-15.606-11.1034-23.9323-51.6577-77.5525-63.3837-127.6982-63.3837-167.0158,0-127.718,131.8379-133.7394,161.1133-133.7394V-61Z" fill="#008fa0" opacity="0.35"/>
  </g>
  <g id="Capa_19" data-name="Capa 19">
    <path d="M0-61V656H975a115.7121,115.7121,0,0,0,86.9752-39.255c-.4623-11.9226-3.5079-78.7416-14.0365-88.8375-15.5334-14.8951-51.9726-13.0311-67.1553-35.5068-4.6959-6.9515-4.14-19.5817-9.6274-26.3824-18.53-22.9656-33.5449-50.32-44.4384-80.8824-11.4091-32.0087-10.981-58.4313-14.7367-82.3195-4.3873-27.9056-6.1508-51.4261-3.6446-77.4072C917.8439,126.8477,1019.8915,99.5927,1091,99.5927V-61Z" fill="#008fa0" opacity="0.5"/>
  </g>
  <g id="Capa_20" data-name="Capa 20">
    <path d="M0-61V656H975a115.5158,115.5158,0,0,0,73.4141-26.1886V618.5725s-1.4261-68.3223-17.8267-80.6821c-19.21-14.477-79.2535-11.0673-83.4286-22.105-8.8721-23.4548-19.6955-48.0751-28.998-72.7327-5.5577-14.7315-20.1444-28.8934-22.8181-44.9231-3.1034-18.6058,4.9-59.5835.1076-82.969-7.6481-37.3232-14.179-75.6485-5.8122-107.6573C915.5462,108.3871,1015.6131,79.9438,1091,79.9438V-61Z" fill="#008fa0"/>
  </g>
</svg>
