<svg xmlns="http://www.w3.org/2000/svg" viewBox="0 0 277 187">
  <title>IV</title>
  <g id="Capa_22" data-name="Capa 22">
    <path d="M277,48.995V-4.94H-15.0587V187H245.947A31.053,31.053,0,0,0,277,155.947V145.9016a3.2925,3.2925,0,0,1-2.6512-.9969,2.8679,2.8679,0,0,1-.6282-1.4846,3.5776,3.5776,0,0,1-2.988-.7212,2.4746,2.4746,0,0,1-.9288-1.9377,2.0219,2.0219,0,0,1-1.627-1.827,2.35,2.35,0,0,1,.6469-2.3012,2.0936,2.0936,0,0,1-1.262-2.1665,2.7286,2.7286,0,0,1,.7529-1.8209,11.8591,11.8591,0,0,1-4.4115-4.7509c-1.4392-3.0763-1.5408-6.44-3.7836-9.7989-6.373-9.5443-21.6679-29.2268-15.39-49.4183C250.879,48.9,271.5385,48.995,277,48.995Z" fill="#008fa0" opacity="0.25"/>
    <path d="M-15.0587-4.94V187H245.947A31.0411,31.0411,0,0,0,272.92,171.3436c-.3178-6.0425-1.0317-15.59-2.54-21.7111-.9306-3.7783-9.9174-5.1275-12.4156-10.3695-.8646-1.8142.2789-3.0322-.6711-4.8286-.7905-1.4947-2.4255-2.0433-3.483-3.9509-1.3018-2.3482-1.4877-4.1776-2.9723-6.4066-13.8287-20.7606-16.9677-34.1846-16.9677-44.71,0-34.19,35.2927-35.8018,43.13-35.8018V-4.94Z" fill="#008fa0" opacity="0.35"/>
    <path d="M-15.0587-4.94V187H245.947A30.9759,30.9759,0,0,0,269.23,176.4915c-.1237-3.1917-.939-21.079-3.7575-23.7816-4.1583-3.9874-13.913-3.4884-17.9774-9.5051-1.2571-1.8609-1.1083-5.242-2.5772-7.0625A73.8956,73.8956,0,0,1,233.0219,114.49c-3.0542-8.5687-2.94-15.642-3.945-22.0368a79.16,79.16,0,0,1-.9756-20.7218C230.6464,45.3469,257.9644,38.0508,277,38.0508V-4.94Z" fill="#008fa0" opacity="0.5"/>
    <path d="M-15.0587-4.94V187H245.947A30.9233,30.9233,0,0,0,265.6,179.9894v-3.0087s-.3817-18.29-4.7721-21.5984c-5.1425-3.8755-21.216-2.9627-22.3337-5.9175-2.3751-6.2788-5.2725-12.87-7.7627-19.47-1.4878-3.9436-5.3926-7.7347-6.1084-12.0258-.8308-4.9808,1.3116-15.95.0288-22.2107-2.0474-9.9913-3.7957-20.2509-1.5559-28.82C230.0313,40.4051,256.8191,32.7908,277,32.7908V-4.94Z" fill="#008fa0"/>
  </g>
</svg>
