<svg xmlns="http://www.w3.org/2000/svg" viewBox="0 0 236.757 72.388">
  <title>Logo UPCH</title>
  <g id="Capa_2" data-name="Capa 2">
    <g id="Contacto">
      <g>
        <g>
          <path d="M26.7781,44.1783A2.4922,2.4922,0,0,0,28.0768,42.97a1.53,1.53,0,0,0,.15-.6834c-.0272-.5978-.6193-.9554-1.269-1.1956Z" fill="#fff" fill-rule="evenodd"/>
          <path d="M22.42,49.0028a1.7873,1.7873,0,0,0,.76,1.6236,4.2613,4.2613,0,0,0,1.25.8l-.095-3.9734C23.4541,47.7658,22.5927,48.2116,22.42,49.0028Z" fill="#fff" fill-rule="evenodd"/>
          <path d="M22.13,34.3c-1.3007,1.7026.4118,2.6393,1.9673,3.1814l-.1026-4.2926A3.1172,3.1172,0,0,0,22.13,34.3Z" fill="#fff" fill-rule="evenodd"/>
          <path d="M8.6394,10.0472c.0354,8.629.0812,17.2585.0671,25.8879-.0188,11.41,4.877,18.9894,14.0395,25.3417q1.3691.9486,2.79,1.82C35.69,57.6217,42.4346,50.1156,43.0189,38.11l.0422-28.0823A105.2867,105.2867,0,0,0,8.6394,10.0472Zm25.7889,24.94q.3961.5618,3.0387.1985a3.6186,3.6186,0,0,1-4.5175-.3926,5.9714,5.9714,0,0,0-2.5014-1.142,2.4142,2.4142,0,0,0,.4463,1.1217q.0987.181.198.363.1155.0248.2311.05.248-.2147.4956-.43.132.124.2643.2478-.4132.4212-.8258.8422c-.0772-.005-.1541-.0109-.2311-.0164q-.958-1.0076-1.9158-2.0146l-.9306-.8654c-.2493-.0076-.4718-.12-.7209-.1216l-.1344,1.9538-.1793,3.3929-.0137-.08-.0164.2892,1.6838.4926a3.6068,3.6068,0,0,1,2.191,4.4813C30.44,45.2,28.948,45.7551,27.3153,46.42q-.34.1386-.6833.2672l-.3192,5.486.8864.3572c1.6211.6742,1.8993,1.8858,1.3868,3.4136a2.338,2.338,0,0,1-.8,1.3868q-.2935.24-.5866.48-.2936-.373-.5868-.7464a5.1864,5.1864,0,0,0,.96-.8532,1.8157,1.8157,0,0,0-1.2268-2.3468l-.1292-.0325L25.7058,62.61l-1.0134-.2132-.2132-8.9262c-1.4084-.23-2.1121-.152-3.3284-1.2876a3.6414,3.6414,0,0,1-.4568-5.3A7.7711,7.7711,0,0,1,24.2761,44.98l-.1119-4.6936-.5051-.1431c-1.6559-.4686-3.4966-.6459-4.3738-2.3266a4.5657,4.5657,0,0,1,.0747-4.14c.88-1.6832,2.8357-2.5406,4.5733-3.0582l-.0412-1.7173-3.2-.6932-.16-1.6536-3.787-.8-.0534-.6932,9.3374-.0549-5.5111.0321-.0262-.0177a3.97,3.97,0,0,1-2.4441-5.4438c.46-1.2264.1471-1.2243-.5425-1.9965a1.8277,1.8277,0,0,1,.6584.0287,2.1542,2.1542,0,0,1,1.315,1.4379c.2373.8342.0114,1.3514.4,1.9737a4.3607,4.3607,0,0,0,1.1671,1.12,5.5557,5.5557,0,0,1-.9539-2.4532,4.7387,4.7387,0,0,1,.3732-2.48,3.3457,3.3457,0,0,0,.56-2.08,3.1768,3.1768,0,0,0-.7466-1.1732,5.37,5.37,0,0,1,2.1068.7734,2.414,2.414,0,0,1,.8534,1.84,21.66,21.66,0,0,0-.24,3.8139c.16.72.6924,1.6367,1.21,1.7253-.1477-.7244-.6465-.99-.4063-1.95s.77-1.8559.85-2.2557a2.1422,2.1422,0,0,0-.2668-1.6532c-.4266-.8265-1.0132-1.8136-.3732-2.9872a6.0645,6.0645,0,0,1,1.7866-1.92,2.6938,2.6938,0,0,0-.4266,1.92,3.3,3.3,0,0,0,1.0135,1.8136,3.2619,3.2619,0,0,1,.9068,1.52,3.7708,3.7708,0,0,1-.0534,2.1332,5.0119,5.0119,0,0,0-.4266,1.3071,4.7381,4.7381,0,0,0,.1063,1.2268,9.554,9.554,0,0,1,1.04-2.2405c.5868-.8.7734-1.0934.4266-1.7866a3.33,3.33,0,0,1-.6666-2.1868,2.39,2.39,0,0,1,.8-1.6,3.2344,3.2344,0,0,0,.4534-.3466,2.5625,2.5625,0,0,0-.1868,1.3066,3.2566,3.2566,0,0,0,1.0668,1.4932c.6934.5868,1.1468,1.0136,1.067,1.4405a16.7237,16.7237,0,0,0-.64,2.7736,5.1363,5.1363,0,0,0,.16,1.68,3.866,3.866,0,0,1,.6666-1.6532,20.5462,20.5462,0,0,0,1.5468-1.8137,3.43,3.43,0,0,0,.1068-1.6c-.0534-.5864-.08-.7464-.08-.7464a3.93,3.93,0,0,1,1.3336,1.3332,3.1747,3.1747,0,0,1-.1066,2.4271c-.3468.5863-1.0668,1.92-1.0668,1.92l-.1066.187A4.93,4.93,0,0,0,34.28,20.7545a7.9378,7.9378,0,0,0,1.1468-1.76c.1064-.3731.2668,1.68.1332,2.08a7.32,7.32,0,0,1-1.4134,2.6939,14.792,14.792,0,0,1-1.7254,1.2006l2.4589-.0144-.1068.9069-3.84.64-.053,1.6-3.2.5864-.0845,1.6139a1.3589,1.3589,0,0,0,.4663.0228,7.14,7.14,0,0,1,1.9084-.0941s.9908.743,1.123.7928,1.1229.6108,1.2882.6438S33.52,32.08,33.52,32.08q-.3381.71-.6767,1.4205h-.33l-.0164-.7763q.0576-.1983.1154-.3964l-.9414-.0165c-.7223.2411-1.1559.6045-1.2173,1.1268l.1606-.3011c.9961.0136,2.5056.9769,3.4846,1.1635,2.4418.4665,3.5419-.5623,3.7817-1.0647C37.9675,34.5838,36.4133,34.9186,34.4283,34.9869Z" fill="#fff" fill-rule="evenodd"/>
          <path d="M29.779,30.7607a3.4512,3.4512,0,0,0-.4851-.0718l-.0088.1254a2.59,2.59,0,0,0,.503.3234.6682.6682,0,0,0,.2784-.0178l.0181-.09A1.66,1.66,0,0,0,29.779,30.7607Z" fill="#fff" fill-rule="evenodd"/>
        </g>
        <g>
          <path d="M17.5962,60.7976q-.1248.1394-.2455.282l-.36.4289c.0321.0283.065.0553.0961.0811a.4855.4855,0,0,0,.5063.1368.6623.6623,0,0,0,.2424-.1824.38.38,0,0,0-.0693-.6151C17.7123,60.8833,17.6553,60.8386,17.5962,60.7976Z" fill="#fff"/>
          <path d="M16.7139,61.8387l-.6415.7649c-.0568.0672-.1117.136-.1653.2056.0433.0431.091.0845.1362.122a.5434.5434,0,0,0,.4468.1474.7344.7344,0,0,0,.4222-.2778.55.55,0,0,0-.1022-.8849C16.7785,61.8893,16.7466,61.8636,16.7139,61.8387Z" fill="#fff"/>
          <path d="M4.8274,35.9976c-.001.0253-.0023.0507-.0023.0764a.6878.6878,0,0,0,.0612.3166.5517.5517,0,0,0,.1976.1866.6529.6529,0,0,0,.3439.0874.4487.4487,0,0,0,.4521-.2427.9548.9548,0,0,0,.0572-.3711A1.3192,1.3192,0,0,0,5.93,35.909c-.23-.0182-.4751-.0165-.7033-.0165H4.7183l.1123.0363Z" fill="#fff"/>
          <path d="M4.8456,27.9077a.512.512,0,0,0-.0283.1528.3855.3855,0,0,0,.1353.3111.6292.6292,0,0,0,.4112.12c.351,0,.5627-.1271.5627-.4969a1.6082,1.6082,0,0,0-.0181-.2035c-.1775-.0207-.5473-.0085-.6852-.0085H4.789l.0743.07Z" fill="#fff"/>
          <path d="M46.5191,40.9766a.3857.3857,0,0,0-.0792-.33.63.63,0,0,0-.3844-.19c-.3449-.0608-.576.0283-.64.3922a1.6864,1.6864,0,0,0-.0173.2035c.1716.0511.5372.103.6736.127l.4276.0752-.0614-.0815.0274-.0506A.5186.5186,0,0,0,46.5191,40.9766Z" fill="#fff"/>
          <path d="M51.618,2.9553A114.187,114.187,0,0,0,0,2.9553Q.0459,19.4381.092,35.92C-.0152,53.4655,9.5565,63.738,22.5879,71.3741c2.6172,1.5337,3.3842,1.2107,6.0808-.1887,12.7371-6.6132,21.39-16.6578,22.9543-32.6561ZM45.4045,21.6884l.0452.0067a2.236,2.236,0,0,0,.3449.0232l.4273-.0021.0787.0739.0038.2191-.0671.0828-.04.0021a2.3243,2.3243,0,0,0-.33.0278c-.0325.01-.04.0473-.0439.0773a3.8386,3.8386,0,0,0,.0012.4276l.0038.2267c.1841.0034.3808-.0059.5611-.0088l1.3306-.0237a4.5571,4.5571,0,0,0,.71-.0413c.0108-.0017.0116-.0034.0141-.0144a1.9072,1.9072,0,0,0,.0167-.2558l.0015-.0334.072-.0772.2326-.0038.081.0781-.0017.0409c-.0105.2364-.0059.4792-.0019.716s.0072.48.0269.7147l.0031.041-.0758.0785-.2349.0042-.0745-.0743-.0027-.0337a1.9421,1.9421,0,0,0-.0258-.255c-.003-.011-.0036-.0123-.0144-.014a4.6438,4.6438,0,0,0-.7111-.0164l-1.33.0232c-.1691.0029-.3821-.0025-.5609.0105l.0042.2508a2.8554,2.8554,0,0,0,.0279.4576l.0034.0076a.6822.6822,0,0,0,.1093.0182c.0819.0089.1642.0152.2472.0165l.0348.0008.0777.0726.004.2225-.0737.081L45.84,24.85a2.5539,2.5539,0,0,0-.3358.033l-.0412.0067-.0954-.08.0078-.05a7.4791,7.4791,0,0,0,.0055-.9925l-.0167-.95a9.3358,9.3358,0,0,0-.0407-.9963l-.0062-.0447Zm-42.4211.4867.0125-.027.1087-.0587.034.0085a3.3589,3.3589,0,0,0,.7447.0629h.0375l.0762.076v.2271l-.0781.0726h-.09a2.4864,2.4864,0,0,0-.3162.0245.62.62,0,0,0-.2064.255.971.971,0,0,0-.1034.4335.587.587,0,0,0,.2761.5619.6124.6124,0,0,0,.301.0807.3554.3554,0,0,0,.3478-.2018,1.36,1.36,0,0,0,.0967-.3728,2.3082,2.3082,0,0,1,.2581-.8625.8855.8855,0,0,1,.7545-.3343,1.06,1.06,0,0,1,.8339.3542,1.4941,1.4941,0,0,1,.3228,1.0115,2.0267,2.0267,0,0,1-.1862.927l-.0181.0347-.1147.0329-.0215-.0047a4.002,4.002,0,0,0-.6548-.0654l-.04-.0008-.0715-.0819V24.11l.0743-.0777.0374,0a2.61,2.61,0,0,0,.3318-.0181.5023.5023,0,0,0,.14-.2027.93.93,0,0,0,.0718-.3651A.6244.6244,0,0,0,5.8,23.011a.433.433,0,0,0-.3383-.1418.3509.3509,0,0,0-.32.1532,2.0351,2.0351,0,0,0-.1432.5615c-.0141.092-.0314.1845-.0475.2761a1.4415,1.4415,0,0,1-.0726.2719.7981.7981,0,0,1-.3062.3993.9843.9843,0,0,1-.5459.1444,1.2017,1.2017,0,0,1-.7365-.2385,1.2471,1.2471,0,0,1-.416-.5425A1.8972,1.8972,0,0,1,2.75,23.179,2.3235,2.3235,0,0,1,2.9834,22.1751Zm-.1308,4.4674L2.85,26.6032l.0752-.0806h.2339l.0764.0764.0021.0342a2.0017,2.0017,0,0,0,.0211.2541c.0029.0106.0042.0114.0148.0131a4.5745,4.5745,0,0,0,.71.0291h1.24a4.5743,4.5743,0,0,0,.71-.0291c.0105-.0017.0131-.0021.0156-.0122a2.0556,2.0556,0,0,0,.0205-.2571l.0021-.0372.0789-.0713h.23l.076.0836-.0025.0384c-.0144.2309-.0142.4677-.0142.7,0,.1883.0036.377.0074.5653.0026.1422.007.2858.007.4276a1.01,1.01,0,0,1-.37.9127A.8892.8892,0,0,1,5.53,29.36a1.0146,1.0146,0,0,1-.8236-.3622,1.2318,1.2318,0,0,1-.2909-.8017,1.3337,1.3337,0,0,1,.0353-.3043l.0116-.05.0485-.0156a.6574.6574,0,0,0,.0963-.0435h-.624a4.6348,4.6348,0,0,0-.71.03c-.01.0017-.0109,0-.0135.01-.0148.0921-.016.2124-.0219.3069l-.0023.0338-.0762.0764H2.9307l-.08-.0768.0017-.041c.0114-.2545.0143-.51.0143-.7645C2.8669,27.122,2.8682,26.8776,2.8526,26.6425Zm.0118,4.6438-.003-.0439.0826-.0743h.23l.0733.0759.0019.0334a1.9669,1.9669,0,0,0,.0215.2558c.0027.0106.0036.0118.0144.0135a4.6287,4.6287,0,0,0,.71.0292h1.24a4.57,4.57,0,0,0,.71-.0292c.0112-.0017.0125-.0025.015-.0131a2.0336,2.0336,0,0,0,.0207-.2562l.0019-.0334.0732-.0759h.2383l.0741.0823-.0025.038c-.0152.236-.0143.48-.0143.7155s-.0009.4784.0143.7135l.0025.038-.0743.0823H6.0561l-.0734-.0756-.0019-.0337a2.0861,2.0861,0,0,0-.0205-.2567c-.0027-.01-.0044-.011-.0152-.0127a4.582,4.582,0,0,0-.71-.0291h-1.24a4.5766,4.5766,0,0,0-.71.0291c-.0108.0017-.0119.003-.0144.0135a1.964,1.964,0,0,0-.0215.2559l-.0019.0337-.0733.0756h-.23l-.0826-.0739.003-.0439c.0143-.2372.0141-.48.0141-.7181S2.8787,31.5223,2.8644,31.2863ZM2.87,37.9442v-.0384c0-.03.001-.0612.0023-.092.0047-.1309.0116-.266.0116-.3973,0-.1241-.0072-.2508-.0139-.3749l-.0047-.0806.08-.0135a.7156.7156,0,0,0,.1567-.0773l.9676-.58.3951-.26a.5486.5486,0,0,0,.122-.119l.0152-.019H4.0013a4.6331,4.6331,0,0,0-.71.0291c-.0106.0021-.0116.003-.0146.0139a2.0058,2.0058,0,0,0-.0211.2563l-.0021.0346L3.1789,36.3H2.95l-.0828-.0739.003-.0439c.0146-.2364.0139-.4787.0139-.7156s.0017-.48-.0139-.7155l-.0025-.0389.0749-.081h.2362l.0741.0743.0021.0346a2.0058,2.0058,0,0,0,.0211.2563c.003.0105.0042.0109.0148.013a4.5655,4.5655,0,0,0,.71.0292H5.2407a4.563,4.563,0,0,0,.71-.0292c.0106-.0021.0127-.0025.0154-.0126a2.0431,2.0431,0,0,0,.0207-.2567l.0019-.0346.0741-.0743h.2362l.0749.0806-.0025.0393c-.0146.236-.0141.4787-.0141.7155,0,.1533.001.307.0071.46.007.1769.0144.3559.0144.5332a1.9168,1.9168,0,0,1-.0785.6273.6444.6444,0,0,1-.3861.3948.8827.8827,0,0,1-.3033.0481.9982.9982,0,0,1-.9486-.6755q-.1536.0938-.3048.1921l-.555.361a3.3006,3.3006,0,0,0-.534.3968.2087.2087,0,0,0-.02.1009v.0384l-.0781.0756H2.948Zm.6812,3.287.0014.0333-.065.0832-.2284.0241-.09-.0651-.0019-.0439c-.01-.2376-.0361-.48-.0608-.7155s-.05-.4771-.0889-.7105L3.01,39.7937l.0743-.0827.2289-.0237.0808.0676.0053.0329a2.0362,2.0362,0,0,0,.0479.252c.004.0106.0049.0118.0158.0127a4.6682,4.6682,0,0,0,.7093-.0456l1.2331-.13a4.6609,4.6609,0,0,0,.7033-.103c.0108-.003.0121-.0038.0138-.0148a2.1539,2.1539,0,0,0-.0064-.2571l-.0015-.0338.0651-.0827.2366-.0249.0821.0743.0015.038c.01.236.0361.4779.0608.713s.0489.4758.0888.708l.0061.0376-.0652.09-.2364.0249-.0808-.0676-.0053-.0329a2.1026,2.1026,0,0,0-.0473-.2529c-.004-.0105-.0055-.011-.0165-.0118a4.6481,4.6481,0,0,0-.71.0456l-1.2327.13a4.6031,4.6031,0,0,0-.7034.103c-.0105.003-.0114.0042-.013.0152A1.9906,1.9906,0,0,0,3.5515,41.2312Zm.7822,4.0861.0057.0329-.0544.09-.2267.0523-.0954-.0595-.0068-.04c-.0388-.2335-.0939-.47-.1471-.7008s-.1068-.4678-.1746-.694L3.6226,43.96l.0574-.0929.2292-.0527.0887.057.0093.0325a2.0007,2.0007,0,0,0,.0781.2444c.0053.01.0063.0106.0173.01a4.6689,4.6689,0,0,0,.6989-.1313l1.2962-.2993c.1651-.0384.3743-.0772.5469-.127l-.0567-.2445a2.8749,2.8749,0,0,0-.122-.4416l-.0051-.0071a.665.665,0,0,0-.1106.005c-.0819.0085-.1642.0194-.2453.0351l-.0342.0067L5.98,42.8987l-.05-.2166.0549-.0945.427-.1039a2.594,2.594,0,0,0,.3219-.1021l.0388-.0152.11.0582.0028.0515a7.4155,7.4155,0,0,0,.2011.9714l.2134.925a9.279,9.279,0,0,0,.2474.9663l.015.0422-.0678.1039-.0453.0029a2.2829,2.2829,0,0,0-.3424.049l-.4173.0912-.0923-.0557-.0494-.2141.0488-.0945.0386-.0106a2.3225,2.3225,0,0,0,.3164-.0958c.03-.0165.0294-.0549.0268-.0849a3.8435,3.8435,0,0,0-.09-.4175l-.0511-.2212c-.1809.035-.3706.0849-.5469.1258l-1.2966.2989a4.7137,4.7137,0,0,0-.6856.1883c-.01.0042-.0106.0059-.011.0169A2.002,2.002,0,0,0,4.3337,45.3173Zm1.7507,5.22A1.4383,1.4383,0,0,1,5.28,49.674a2.0029,2.0029,0,0,1-.1754-1.0123.8978.8978,0,0,1,.3478-.5949,5.4806,5.4806,0,0,1,.9866-.4626l.5605-.2263a4.5776,4.5776,0,0,0,.6478-.293c.01-.0059.0105-.0072.009-.0177a1.9749,1.9749,0,0,0-.077-.2457L7.5686,46.79l.0394-.0979.2174-.0879.1022.0461.0129.0375c.0743.2246.1663.45.2548.6687s.1777.4446.28.6561l.0177.0359-.0422.1038-.2174.0883-.0963-.0431-.0143-.03a2.0647,2.0647,0,0,0-.1153-.23c-.0061-.0084-.0087-.008-.0192-.0059a4.6015,4.6015,0,0,0-.6689.2389l-.4473.1807a4.7179,4.7179,0,0,0-.948.4614.6866.6866,0,0,0-.0492.7764.8612.8612,0,0,0,.3832.47.4723.4723,0,0,0,.1973.0566,1.1042,1.1042,0,0,0,.2808-.05,3.3856,3.3856,0,0,0,.359-.122l.4521-.1832c.2582-.1039.518-.2077.7734-.3175a1.11,1.11,0,0,0,.2181-.1118c.0065-.006.0078-.03.0078-.0372a1.4838,1.4838,0,0,0-.07-.2512L8.4656,49.01l.04-.0975.217-.0878.103.0456.0123.0384c.0424.1309.09.2605.1414.388.077.19.1619.38.2448.5674l.0155.035-.0412.1022-.2176.0878-.099-.0439-.0138-.0338c-.0208-.0523-.08-.19-.1559-.1777a2.075,2.075,0,0,0-.323.103c-.1828.0671-.3645.1393-.5448.2123l-.67.2706A1.5818,1.5818,0,0,1,6.0844,50.5378Zm4.8281,2.6972-.0205.008a3.8891,3.8891,0,0,0-.59.2913l-.0344.02-.1041-.0316-.1155-.1849.022-.1047.0314-.0207a2.5343,2.5343,0,0,0,.2717-.1912.5.5,0,0,0,.0116-.2457.9254.9254,0,0,0-.1326-.3479.6268.6268,0,0,0-.3516-.2938.4318.4318,0,0,0-.362.0595.35.35,0,0,0-.19.2993,2.0248,2.0248,0,0,0,.1762.5518c.0368.0857.0708.1731.106.26a1.4509,1.4509,0,0,1,.0825.2689.8059.8059,0,0,1-.0479.5011.99.99,0,0,1-.3867.4121,1.21,1.21,0,0,1-.7508.1874,1.2432,1.2432,0,0,1-.64-.2394,1.9028,1.9028,0,0,1-.4847-.5408,2.325,2.325,0,0,1-.3339-.9756l-.0036-.0291.061-.1077.0332-.0109a3.3277,3.3277,0,0,0,.6649-.3411l.0318-.02.1052.0241.12.1925-.0277.103-.0762.0477a2.4669,2.4669,0,0,0-.2552.1887.6193.6193,0,0,0-.04.3255.9709.9709,0,0,0,.1419.4222.5911.5911,0,0,0,.5321.33.6146.6146,0,0,0,.2981-.0908.3566.3566,0,0,0,.188-.3559,1.3723,1.3723,0,0,0-.1156-.3672,2.2987,2.2987,0,0,1-.2379-.868.8849.8849,0,0,1,.4624-.6835,1.0608,1.0608,0,0,1,.8948-.1418,1.4951,1.4951,0,0,1,.81.6872,2.0216,2.0216,0,0,1,.3333.8849l.003.0384Zm3.188,6.7407a1.58,1.58,0,0,1-.975.5011,1.4374,1.4374,0,0,1-1.0609-.518,2.0077,2.0077,0,0,1-.5264-.8823.8966.8966,0,0,1,.1118-.68,5.4366,5.4366,0,0,1,.7553-.7853l.442-.4128a4.6294,4.6294,0,0,0,.5-.5054c.0068-.0088.0074-.0105.0021-.02a2.0528,2.0528,0,0,0-.16-.2014l-.0213-.0262L13.17,56.34l.1714-.16.1119.0059.0255.0313c.15.1828.3164.36.4775.5327s.3253.3513.4967.5117l.0293.0274-.0019.1123-.1716.16-.1053-.0055-.0241-.0232a2.02,2.02,0,0,0-.1908-.1739c-.0085-.0059-.0108-.0047-.02.0013a4.527,4.527,0,0,0-.5389.4631l-.353.3288a4.7091,4.7091,0,0,0-.7193.77.685.685,0,0,0,.2322.7425.8618.8618,0,0,0,.5262.3019.4708.4708,0,0,0,.2043-.0182,1.062,1.062,0,0,0,.2445-.1473,3.4478,3.4478,0,0,0,.291-.2427l.357-.3327c.2032-.19.409-.38.6083-.5737a1.1348,1.1348,0,0,0,.1632-.1824c.0042-.0084-.0032-.03-.0061-.038a1.4533,1.4533,0,0,0-.156-.209l-.0214-.0257.0022-.1056.1716-.16.1118.006.0256.0316q.13.16.271.3116c.14.15.2873.2963.4319.4416l.0268.0274-.0019.11-.1716.16-.1083-.0055-.0249-.027c-.0382-.041-.1429-.1478-.2092-.11a2.1029,2.1029,0,0,0-.2647.2115c-.1465.1284-.29.2613-.4325.3939Zm3.5464,3.3465a1.0933,1.0933,0,0,1-1.1076.3626,1.5553,1.5553,0,0,1-.6989-.3622c-.06-.05-.1192-.1009-.1777-.1524l-.4211-.369a4.155,4.155,0,0,0-.3567-.2807L14.85,62.496l-.01-.1132.0785-.0933.0686-.035.0277.0038a1.3826,1.3826,0,0,0,.1876.0182,1.8023,1.8023,0,0,0,.1839-.1951l.3426-.3968.7632-.91a4.5609,4.5609,0,0,0,.434-.5627c.0055-.0093.0064-.011,0-.0194a2.0738,2.0738,0,0,0-.1837-.1816l-.0249-.0236-.0095-.1043.152-.1807.11-.0059.0283.0274c.168.1622.3558.3175.5351.4674.1477.1241.298.2461.4515.3635.0935.0713.1866.1439.2765.2195a1.11,1.11,0,0,1,.4981.8578.7174.7174,0,0,1-.1709.3952.7912.7912,0,0,1-.6246.29,1,1,0,0,1-.2877-.0375A.7854.7854,0,0,1,17.6469,63.3222Zm4.0325.4534-.1041.0147-.0285-.0181a2.0929,2.0929,0,0,0-.22-.1343c-.01-.0038-.0116-.0033-.02.0047a4.6352,4.6352,0,0,0-.4407.5577l-.7286,1.0026a4.6072,4.6072,0,0,0-.3941.5919c-.0047.01-.0043.0109.0027.02a2.0543,2.0543,0,0,0,.1946.1676l.0258.0211.0179.1039-.1349.1857-.1082.0237-.034-.0279c-.1833-.1516-.38-.2943-.5727-.434s-.3875-.282-.5874-.4091l-.0368-.0236-.0116-.11.1351-.1862.1045-.0147.0281.0181a1.951,1.951,0,0,0,.2193.1334c.01.0038.012.0038.02-.0038a4.6418,4.6418,0,0,0,.441-.5572l.7286-1.0031a4.6072,4.6072,0,0,0,.3941-.5919c.0049-.01.0051-.0114-.0021-.02a2.048,2.048,0,0,0-.1952-.1676l-.0258-.0211-.0184-.1039.14-.1925.11-.0114.0293.0241c.1818.1511.3791.2934.5706.4323s.3863.2816.5851.4078l.0325.02.023.1084Zm3.8357.0527q-1.629-.9916-3.1309-2.03C13.4681,55.6168,8.0517,47.9841,8.0718,35.9339c.0147-8.8085-.0336-17.6165-.0695-26.4245A105.6955,105.6955,0,0,1,43.6885,9.49c.1285,9.551.4289,19.1151-.0355,28.6505C43.0487,50.5525,35.9878,58.2629,25.5151,63.8283Zm7.7425,1.3792-2.4546-1.51a2.35,2.35,0,0,0-.4311-.2255.7275.7275,0,0,0-.2009.1085l-.0315.022-.1072-.0207-.1347-.1857.02-.1132.0335-.0215c.1725-.11.34-.23.506-.35.229-.1663.4559-.3356.6786-.5108l.0323-.0253.11.0206.1349.1854-.0127.1059-.0314.0233a.9845.9845,0,0,0-.1951.176l.0013.0017a2.799,2.799,0,0,0,.36.2486l.2529.16,1.1485.7168-.29-1.1432c-.033-.1284-.0716-.2575-.1081-.385a3.3783,3.3783,0,0,0-.1558-.4775l-.0063-.0076a2.2181,2.2181,0,0,0-.2354.1482l-.0289.0194-.1058-.0148-.14-.1937.0247-.1107.0312-.02q.2289-.1482.4494-.309c.1334-.0971.2632-.1993.3916-.3023l.0314-.0253.1127.0177.1366.1887-.016.1013-.0239.0216a.859.859,0,0,0-.1275.1291.2563.2563,0,0,0-.0055.0942,3.4479,3.4479,0,0,0,.0931.4606l.0986.4179.1955.8021c.1156.4762.23.9672.37,1.4366l.0184.0617Zm4.4543-3.433a2.0083,2.0083,0,0,1-.8731.5421.8981.8981,0,0,1-.6815-.1,5.4379,5.4379,0,0,1-.7988-.7413l-.42-.4348a4.6,4.6,0,0,0-.5144-.491c-.0089-.0064-.0106-.0072-.02-.0017a2.0207,2.0207,0,0,0-.1986.1634l-.0255.0215h-.1058l-.1625-.1684.0036-.1119.0308-.0258c.18-.1532.3546-.3229.5245-.4871s.3456-.331.5028-.5054l.027-.03h.1123l.1628.1689-.0036.1051-.0226.0249a2.1011,2.1011,0,0,0-.1708.1934c-.0054.0089-.0042.011.0017.02a4.5913,4.5913,0,0,0,.4724.5307l.335.347a4.6591,4.6591,0,0,0,.7829.7059.6843.6843,0,0,0,.738-.2449.8607.8607,0,0,0,.2927-.5315.4731.4731,0,0,0-.0217-.2039,1.0934,1.0934,0,0,0-.1516-.2419,3.3959,3.3959,0,0,0-.2478-.2866l-.339-.3509c-.1933-.2-.3867-.4023-.5842-.5982a1.11,1.11,0,0,0-.185-.16c-.0084-.0038-.03.0038-.0379.0068a1.54,1.54,0,0,0-.2065.16l-.0251.022h-.1058l-.1625-.1689.0034-.1118.0312-.0266c.1056-.0878.2079-.1807.3069-.2761.1476-.1427.2911-.2922.4342-.44l.0268-.0274h.11l.163.1688-.0036.1085-.0264.0253c-.04.0389-.145.1453-.1062.2107a2.0424,2.0424,0,0,0,.2166.2609c.1307.1448.2657.2858.4011.426l.5015.5192a1.5821,1.5821,0,0,1,.5182.9664A1.4388,1.4388,0,0,1,37.7119,61.7745Zm2.9762-3.28c-.1213.1528-.2469.3132-.3542.4762l-.023.0354-.1127.0136-.0958-.0748-.0372-.0675.0028-.0279a1.4219,1.4219,0,0,0,.0114-.1883,1.7461,1.7461,0,0,0-.201-.1764l-.4091-.3289-.9357-.7312a4.56,4.56,0,0,0-.5773-.4141c-.0095-.0051-.0116-.0059-.02,0a2.0442,2.0442,0,0,0-.1744.19l-.0228.0257-.1043.0127-.1861-.1452-.0091-.11.0255-.0291c.1541-.1744.3-.3614.4435-.5446.1488-.19.3-.3842.4372-.5826l.0221-.0317.1083-.0173.19.1486.007.103-.018.0262a2.0008,2.0008,0,0,0-.1422.2157c-.004.0093-.0032.011.0042.019a4.5838,4.5838,0,0,0,.5416.4606l1.1042.8625c.1323.1034.2666.2052.4025.3035l.1423-.1819a3.9865,3.9865,0,0,0,.4585-.6641.5319.5319,0,0,0-.0615-.0819l-.2117-.2423-.0169-.0988.1343-.1718.1165-.02.0334.0351a5.1019,5.1019,0,0,0,.568.5074l.0293.0228.0135.1089Zm3.2363-4.5007c-.1344.1946-.2592.4032-.3808.6058s-.2484.4108-.3563.6206l-.0187.0367-.106.0266-.2014-.1212-.024-.1025.0154-.03a1.9784,1.9784,0,0,0,.1135-.23c.0032-.0105.0032-.0122-.005-.0194a4.6618,4.6618,0,0,0-.594-.3909l-1.1407-.6852c-.1448-.087-.323-.2048-.4815-.2883l-.1292.2148a2.8209,2.8209,0,0,0-.2184.4028l-.0013.0084a.6369.6369,0,0,0,.0825.0731c.065.051.132.1.2012.1452l.0291.0194.0275.1026-.1147.1908-.1051.03-.3793-.2221a2.4573,2.4573,0,0,0-.3025-.15l-.0384-.0161-.0388-.1186.0335-.0389a7.4083,7.4083,0,0,0,.5305-.8384l.4889-.8139a9.2961,9.2961,0,0,0,.4937-.8667l.0185-.041.1206-.0274.0348.0291a2.1824,2.1824,0,0,0,.28.2023l.3635.2245.0279.1043-.1132.1883-.1007.0342-.035-.019a2.29,2.29,0,0,0-.2947-.1507c-.0329-.0093-.0587.0186-.0779.0418a3.6963,3.6963,0,0,0-.2254.3635l-.1169.1942c.1543.1.3259.1967.4806.29l1.1405.6856a4.7145,4.7145,0,0,0,.6241.3411c.01.0038.0114.0029.0192-.0047a2.024,2.024,0,0,0,.15-.2081l.0188-.0279.1017-.0274.2.12.0275.1093Zm3.5485-7.8869a2.3275,2.3275,0,0,1-.4855.909l-.0194.0228-.12.0287-.03-.0169a3.356,3.356,0,0,0-.7031-.2537l-.0361-.01-.054-.0933.0585-.2186.0943-.0507.087.0236a2.4675,2.4675,0,0,0,.312.0579.6212.6212,0,0,0,.2651-.1929.9721.9721,0,0,0,.2121-.3918.5879.5879,0,0,0-.1214-.6143.6146.6146,0,0,0-.27-.1557.3569.3569,0,0,0-.3884.1047,1.3684,1.3684,0,0,0-.19.3356,2.2978,2.2978,0,0,1-.4724.7658.8869.8869,0,0,1-.8152.1279,1.0629,1.0629,0,0,1-.7141-.5581,1.5011,1.5011,0,0,1-.05-1.0605,2.03,2.03,0,0,1,.42-.8473l.0261-.0287.1191-.0021.02.01a3.9963,3.9963,0,0,0,.6157.2331l.0378.0109.0486.0976-.0566.2106-.0918.0553-.0365-.0088a2.6124,2.6124,0,0,0-.3251-.0684.5059.5059,0,0,0-.1877.1591.9354.9354,0,0,0-.1642.3344.6258.6258,0,0,0,.0251.4576.4353.4353,0,0,0,.29.2246.351.351,0,0,0,.3485-.0654,2.0534,2.0534,0,0,0,.2839-.5054c.0371-.0852.0781-.17.1171-.2541a1.4954,1.4954,0,0,1,.1406-.2444.802.802,0,0,1,.3994-.3065.9849.9849,0,0,1,.5646.0021,1.2034,1.2034,0,0,1,.65.4213,1.2461,1.2461,0,0,1,.2616.6315A1.9019,1.9019,0,0,1,47.4729,46.1067Zm.9919-4.85c-.0553.2487-.1026.5-.1469.7506-.0412.2322-.0846.4724-.11.7072l-.0044.0388-.088.0663-.23-.0406-.0619-.0882.004-.0342a2.0617,2.0617,0,0,0,.0233-.2541c-.0011-.011-.0019-.0118-.0123-.0156a4.5756,4.5756,0,0,0-.6942-.1516L45.923,42.02a4.5606,4.5606,0,0,0-.7044-.095c-.0108,0-.0129,0-.0173.01a2.0639,2.0639,0,0,0-.0648.2495l-.0085.0359-.09.057-.2271-.04-.06-.0954.0087-.0376c.0544-.225.0954-.4585.1357-.6864.0327-.1854.0619-.372.091-.5581.0221-.14.0426-.2825.0673-.4222a1.0106,1.0106,0,0,1,.5233-.8346.8912.8912,0,0,1,.4658-.03,1.0112,1.0112,0,0,1,.7479.5,1.2353,1.2353,0,0,1,.1476.84,1.3681,1.3681,0,0,1-.0874.2939l-.0205.0468-.05.0072a.5947.5947,0,0,0-.1021.0258l.6144.1084a4.6424,4.6424,0,0,0,.7046.0946c.0106,0,.011.0017.0152-.0076.03-.0882.0528-.2068.075-.2989l.0082-.0329.0884-.0621.2248.04.0653.09Zm.3154-2.9935-.23.0038-.0747-.0739-.0028-.0338a1.9145,1.9145,0,0,0-.0255-.2554c-.0032-.0106-.0038-.0118-.0146-.0135a4.6392,4.6392,0,0,0-.7107-.0165l-1.24.0216a4.6175,4.6175,0,0,0-.7094.0413c-.0108.0021-.0127.003-.015.0135a2.11,2.11,0,0,0-.0163.2567l-.0014.0334-.0716.0772-.2379.0042-.0758-.081.0017-.0384c.0112-.236.0059-.48.0017-.7156s-.0074-.4783-.0268-.713l-.0029-.038.073-.0832.2377-.0042.0743.0739.0029.0337a2.0909,2.0909,0,0,0,.0249.2563c.0032.0105.0045.011.0154.0127a4.5885,4.5885,0,0,0,.7108.0164L47.707,37.02a4.5716,4.5716,0,0,0,.71-.0414c.0107-.0021.0116-.0034.0143-.0143a1.9609,1.9609,0,0,0,.0165-.2559l.0017-.0337.0718-.0769.23-.0038.084.0726-.0021.0435c-.0105.2377-.0059.4809-.0017.7185s.0083.48.0268.7156l.0034.0435ZM48.7937,34.8l-.236.0038-.0754-.0726-.0027-.0342a1.945,1.945,0,0,0-.0256-.2562c-.0029-.0106-.0042-.0114-.0149-.0131a4.586,4.586,0,0,0-.7105-.0165l-1.2395.0215a4.6188,4.6188,0,0,0-.7095.0414c-.01.0021-.0126.003-.0152.0127a2.0883,2.0883,0,0,0-.0158.2575l-.0015.0346-.0728.0752-.236.0042-.0768-.0794.0017-.0388c.011-.2364.0059-.4792.0017-.716-.0024-.1533-.0059-.3069-.0148-.46-.01-.1769-.0207-.3555-.0239-.5328a1.9074,1.9074,0,0,1,.068-.629.644.644,0,0,1,.3791-.4015.8849.8849,0,0,1,.3021-.0532.9987.9987,0,0,1,.96.659q.1519-.0969.3014-.1976l.5484-.37a3.2942,3.2942,0,0,0,.5269-.4066.2067.2067,0,0,0,.0181-.1013l-.0006-.0384.0764-.0768.2231-.0038.0794.0743,0,.0384c.0006.03,0,.0612-.0008.0916-.0024.1313-.0072.2664-.0047.3977.0021.1241.0114.2507.02.3744l.0059.0807-.0792.0152a.6983.6983,0,0,0-.1553.08l-.9575.5969-.3907.2664a.5624.5624,0,0,0-.12.1207l-.015.0194.601-.01a4.6206,4.6206,0,0,0,.71-.0418c.0106-.0021.0114-.0029.0142-.0139a2.0333,2.0333,0,0,0,.0169-.2571l.001-.0342.0733-.0752.2286-.0042.0838.0726-.0019.0439c-.01.2369-.0059.4792-.0017.716s.0069.48.0266.7147l.0034.0393Zm.0295-5.0512-.2311.0038-.0749-.0768-.0022-.0333c-.0031-.0423-.0194-.198-.06-.2242a2.1866,2.1866,0,0,0-.2717-.1182c-.23-.0929-.4627-.1815-.6949-.27l-1.54-.5851c-.1786-.0675-.36-.1309-.5389-.1963l-.0587-.0215-.008-.4543,2.9541-1.3176a.4458.4458,0,0,0,.1366-.0827.5941.5941,0,0,0,.0194-.19l-.0007-.043.0828-.07.2157-.0038.0832.07,0,.0431c-.0022.2073-.0072.4179-.0034.6256.0046.2656.0131.5316.0281.7975l.0025.0435-.0815.0726-.2149.0038-.0821-.07-.0173-.2415a.197.197,0,0,0-.0076-.0427,1.166,1.166,0,0,0-.1809.0625l-.4342.1752c.0013.2.003.399.0068.5986.0027.16.0074.3192.0122.4788l.228.0781a1.9171,1.9171,0,0,0,.3846.1051.09.09,0,0,0,.01-.0334,2.204,2.204,0,0,0,.0133-.23l.001-.0359.0752-.0747.2225-.0043.0808.0752-.0006.0405c-.003.1837-.008.3707-.0047.5547.0026.1558.014.3162.0224.472l.0023.0376Z" fill="#fff"/>
          <path d="M47.4,27.7988l-.89.382.9025.3352c0-.1228-.001-.2457-.0031-.3681C47.4069,28.0314,47.4043,27.9153,47.4,27.7988Z" fill="#fff"/>
          <path d="M46.8855,33.4663c.0006-.0249.0015-.0506.0008-.076a.6737.6737,0,0,0-.0667-.3153.5453.5453,0,0,0-.2-.1833.66.66,0,0,0-.3453-.0814.4487.4487,0,0,0-.4479.2507.954.954,0,0,0-.05.3724,1.2853,1.2853,0,0,0,.0093.141c.2307.0143.4756.0084.7038.0042l.508-.0084-.1129-.0347Z" fill="#fff"/>
        </g>
        <path d="M60.3733,22.9893h1.9508v4.4421a7.7144,7.7144,0,0,0,.0551,1.2793,1.078,1.078,0,0,0,.4177.6666,1.5437,1.5437,0,0,0,.94.2559,1.4842,1.4842,0,0,0,.9065-.2365.9116.9116,0,0,0,.3471-.5676,8.1226,8.1226,0,0,0,.0672-1.3061V22.9893H67.008v4.3139a10.363,10.363,0,0,1-.1325,2.0413,2.4,2.4,0,0,1-.5142,1.0663,2.5975,2.5975,0,0,1-.993.6907,4.2491,4.2491,0,0,1-1.5842.2519,4.6257,4.6257,0,0,1-1.7833-.2762,2.6359,2.6359,0,0,1-.9859-.7266,2.3439,2.3439,0,0,1-.4813-.9454,9.4753,9.4753,0,0,1-.16-2.038V22.9893Zm12.7292,4.7921V22.9893h1.8391v8.23h-1.878l-2.8884-4.6737V31.22H68.3361v-8.23h1.8288l2.9376,4.7921ZM76.2091,31.22v-8.23H78.16v8.23Zm6.1888-2.7946,1.7986-5.4357H86.27l-2.9471,8.23H81.3715l-2.9414-8.23H80.541l1.8569,5.4357Zm6.196-3.7412v1.381h3.9494V27.752H88.5939v1.7785h4.3945V31.22H86.643v-8.23h6.1951v1.6945Zm10.3953,2.9719a3.4962,3.4962,0,0,1,.5122.4472,9.0546,9.0546,0,0,1,.924,1.3038l1.1354,1.8129H99.237l-1.2024-1.793a9.6264,9.6264,0,0,0-.8186-1.1325,1.0488,1.0488,0,0,0-.4064-.2814,2.5521,2.5521,0,0,0-.74-.0774H95.93V31.22H93.9775v-8.23h3.5262a6.025,6.025,0,0,1,1.8948.2237,1.991,1.991,0,0,1,1.0063.826,2.4526,2.4526,0,0,1,.3705,1.3372,2.2909,2.2909,0,0,1-.5669,1.5851,2.4375,2.4375,0,0,1-1.2192.6944Zm-3.0591-1.34h.9931a6.4635,6.4635,0,0,0,1.37-.0858.6719.6719,0,0,0,.3535-.2634.8584.8584,0,0,0,.13-.488.7143.7143,0,0,0-.6569-.7713,9.1744,9.1744,0,0,0-1.1327-.0235H95.93v1.632Zm5.5579,2.0011.0214.1833a3.1925,3.1925,0,0,0,1.016,2.1258,3.6332,3.6332,0,0,0,2.41.7328,4.6739,4.6739,0,0,0,1.7827-.3017,2.438,2.438,0,0,0,1.1453-.947,2.4936,2.4936,0,0,0,.4042-1.3633,2.5331,2.5331,0,0,0-.34-1.3485,2.3957,2.3957,0,0,0-.94-.8656,7.81,7.81,0,0,0-1.7578-.5821,4.6809,4.6809,0,0,1-1.3846-.4879.4254.4254,0,0,1-.1718-.3394.3931.3931,0,0,1,.1779-.34,1.6857,1.6857,0,0,1,.9779-.2493,1.488,1.488,0,0,1,.8933.2265,1.2089,1.2089,0,0,1,.3713.76l.0267.1583,1.9281-.0848-.0064-.18a2.4789,2.4789,0,0,0-.8483-1.8654,3.56,3.56,0,0,0-2.35-.6928,4.1439,4.1439,0,0,0-1.6191.2875,2.3182,2.3182,0,0,0-1.0626.8649,2.2031,2.2031,0,0,0-.37,1.2234,2.2282,2.2282,0,0,0,.7858,1.7178,4.6441,4.6441,0,0,0,1.869.82c.4019.1.8645.2018,1.2545.3394a1.19,1.19,0,0,1,.4924.2855.5361.5361,0,0,1,.123.3585.7937.7937,0,0,1-.3252.6193,1.6454,1.6454,0,0,1-1.04.2839,1.5562,1.5562,0,0,1-1.0327-.3213,1.7357,1.7357,0,0,1-.5049-1.0382l-.0292-.1657-1.8969.1868Zm7.7044,2.9027v-8.23h1.9509v8.23Zm3.0976-8.23h3.0848a5.8267,5.8267,0,0,1,1.5475.1576,2.8024,2.8024,0,0,1,1.2658.7747,3.6231,3.6231,0,0,1,.793,1.3394,6.0369,6.0369,0,0,1,.266,1.9195,5.3773,5.3773,0,0,1-.2515,1.7331,3.6668,3.6668,0,0,1-.8876,1.46,2.9885,2.9885,0,0,1-1.187.6711,4.9721,4.9721,0,0,1-1.4619.1752H112.29v-8.23Zm1.9508,1.6945v4.8467h1.0038a4.1478,4.1478,0,0,0,.9172-.0693,1.3122,1.3122,0,0,0,.5641-.2848,1.5621,1.5621,0,0,0,.3639-.6786,5.0088,5.0088,0,0,0,.1532-1.3887,4.6092,4.6092,0,0,0-.1519-1.343,1.6385,1.6385,0,0,0-.403-.6868,1.36,1.36,0,0,0-.6513-.325,6.74,6.74,0,0,0-1.2647-.07Zm10.7269,4.748h-2.8934l-.6485,1.7878h-2.0775l3.2059-8.23h1.9263l3.2959,8.23h-2.1217l-.687-1.7878Zm-.6452-1.6872L123.5,25.5315l-.8051,2.2131Zm3.8419-4.7553h3.0848a5.8255,5.8255,0,0,1,1.5474.1576,2.8035,2.8035,0,0,1,1.2658.7747,3.6189,3.6189,0,0,1,.7929,1.3394,6.0314,6.0314,0,0,1,.2662,1.9195,5.3828,5.3828,0,0,1-.2515,1.7331,3.6632,3.6632,0,0,1-.888,1.46,2.985,2.985,0,0,1-1.1866.6711,4.973,4.973,0,0,1-1.4621.1752h-3.1689v-8.23Zm1.9508,1.6945v4.8467h1.0038a4.1428,4.1428,0,0,0,.9168-.0693,1.3109,1.3109,0,0,0,.5645-.2848,1.5621,1.5621,0,0,0,.3639-.6786,5.0088,5.0088,0,0,0,.1532-1.3887,4.6092,4.6092,0,0,0-.1519-1.343,1.6393,1.6393,0,0,0-.4029-.6868,1.3611,1.3611,0,0,0-.6514-.325,6.7406,6.7406,0,0,0-1.2647-.07Zm10.9963,3.5683V31.22h-1.9509v-8.23h2.73a9.1408,9.1408,0,0,1,1.9349.125,2.2551,2.2551,0,0,1,1.2313.8342A2.6363,2.6363,0,0,1,145.55,25.59a2.7613,2.7613,0,0,1-.285,1.3039,2.3518,2.3518,0,0,1-.7253.84,2.4359,2.4359,0,0,1-.8891.4007,8.7139,8.7139,0,0,1-1.6854.1173Zm0-3.5683v1.8683h.687a4.3281,4.3281,0,0,0,1.19-.11.8623.8623,0,0,0,.413-.32.881.881,0,0,0,.1477-.51.841.841,0,0,0-.2061-.5874.9245.9245,0,0,0-.5357-.2912,6.8659,6.8659,0,0,0-1.11-.05Zm7.3308,0v1.381h3.9493V27.752h-3.9493v1.7785h4.3946V31.22h-6.3454v-8.23h6.1952v1.6945Zm10.3952,2.9719a3.4858,3.4858,0,0,1,.5122.4472,9.039,9.039,0,0,1,.924,1.3038l1.1356,1.8129h-2.3239l-1.2025-1.793a9.6364,9.6364,0,0,0-.8184-1.1325,1.051,1.051,0,0,0-.4066-.2814,2.551,2.551,0,0,0-.74-.0774h-.1392V31.22h-1.9525v-8.23h3.5262a6.0254,6.0254,0,0,1,1.8947.2237,1.9893,1.9893,0,0,1,1.0061.826,2.4511,2.4511,0,0,1,.3707,1.3372,2.29,2.29,0,0,1-.5671,1.5851,2.4379,2.4379,0,0,1-1.2192.6944Zm-3.0589-1.34h.993a6.4646,6.4646,0,0,0,1.3706-.0858.6718.6718,0,0,0,.3533-.2634.8577.8577,0,0,0,.13-.488.7149.7149,0,0,0-.6568-.7713,9.1769,9.1769,0,0,0-1.1328-.0235h-1.057v1.632Zm5.97-3.3265h1.9507v4.4421a7.7144,7.7144,0,0,0,.0552,1.2793,1.0783,1.0783,0,0,0,.4176.6666,1.5439,1.5439,0,0,0,.94.2559,1.4843,1.4843,0,0,0,.9066-.2365.9116.9116,0,0,0,.3471-.5676,8.1341,8.1341,0,0,0,.0671-1.3061V22.9893h1.9508v4.3139a10.363,10.363,0,0,1-.1325,2.0413,2.3993,2.3993,0,0,1-.5143,1.0663,2.5964,2.5964,0,0,1-.9929.6907,4.2493,4.2493,0,0,1-1.5843.2519,4.6255,4.6255,0,0,1-1.7832-.2762,2.6359,2.6359,0,0,1-.9859-.7266,2.3453,2.3453,0,0,1-.4814-.9454,9.4817,9.4817,0,0,1-.16-2.038V22.9893Zm12.6833,6.4425h-2.8936L170.89,31.22h-2.0775l3.2059-8.23h1.9263l3.2961,8.23h-2.1219l-.6868-1.7878Zm-.6455-1.6872-.822-2.2131-.805,2.2131Zm8.6283.0368V22.9893h1.8393v8.23h-1.878l-2.8883-4.6737V31.22h-1.8391v-8.23h1.8288l2.9373,4.7921Zm7.8917,1.65h-2.8937l-.6485,1.7878h-2.0776l3.2059-8.23h1.9264l3.2961,8.23h-2.1219l-.6867-1.7878Zm-.6456-1.6872-.822-2.2131-.8051,2.2131Z" fill="#fff" fill-rule="evenodd"/>
        <path d="M68.8121,44.031l2.7743.8786-.0463.1683a5.6664,5.6664,0,0,1-1.9182,3.1082,6.0149,6.0149,0,0,1-7.5823-.7206,6.674,6.674,0,0,1-1.6375-4.73,7.0189,7.0189,0,0,1,1.6455-4.9253,5.6606,5.6606,0,0,1,4.3289-1.7667A5.36,5.36,0,0,1,70.19,37.4361a5.1171,5.1171,0,0,1,1.3183,2.362l.0519.1822-2.8388.6776-.04-.1794A2.3736,2.3736,0,0,0,66.25,38.5422a2.637,2.637,0,0,0-2.0967.9258,4.8777,4.8777,0,0,0-.8117,3.08,5.2841,5.2841,0,0,0,.8014,3.2257,2.56,2.56,0,0,0,2.055.9333,2.3211,2.3211,0,0,0,1.5948-.5887,3.6025,3.6025,0,0,0,.9751-1.8966l.0444-.1912Zm11.9365,2.1515H76.0518l-1.02,2.8128H71.9877l4.9628-12.741H79.84l5.1023,12.741h-3.113l-1.0807-2.8128Zm-.9375-2.4466-1.4435-3.887-1.4144,3.887Zm7.6679-.08v5.34h2.8556V43.6732l4.699-7.4189H91.7208L88.97,40.9749l-2.8091-4.7206H82.7976l4.6814,7.4015Zm11.1472-4.9436v2.381H104.84V43.54H98.6262V46.546H105.54v2.4493H95.7649V36.2543h9.539v2.4579Zm11.4566,0h-3.6716V36.2543H116.61v2.4579h-3.663V48.9953h-2.8644V38.7122Zm13.9137,7.47,1.0808,2.8128h3.113l-5.1023-12.741h-2.8895l-4.9629,12.741H118.28l1.02-2.8128Zm-.9374-2.4466h-2.858l1.4144-3.887,1.4436,3.887Zm13.53.3225V36.2543h2.6856v12.741h-2.7927L131.7756,41.38v7.6156H129.09V36.2543h2.7153l4.7837,7.8041Zm4.4585-1.3572a8.0622,8.0622,0,0,1,.5806-3.25,5.9972,5.9972,0,0,1,1.1884-1.75,5.0668,5.0668,0,0,1,1.6592-1.1531,7.022,7.022,0,0,1,2.7393-.5041,6.009,6.009,0,0,1,4.508,1.7528,6.7336,6.7336,0,0,1,1.6938,4.8441,6.7134,6.7134,0,0,1-1.682,4.8177,5.9664,5.9664,0,0,1-4.4853,1.7472,6.0332,6.0332,0,0,1-4.5227-1.7384,6.619,6.619,0,0,1-1.6793-4.766Zm2.9363-.0836a4.5653,4.5653,0,0,0,.9252,3.0667,2.9827,2.9827,0,0,0,2.3317,1.0232,2.9512,2.9512,0,0,0,2.317-1.0171,4.6767,4.6767,0,0,0,.9112-3.1073,4.615,4.615,0,0,0-.8852-3.0555,3.2787,3.2787,0,0,0-4.7005.0145,4.6253,4.6253,0,0,0-.8994,3.0755ZM162.68,41.1248h4.534v-4.87h2.8616v12.741h-2.8616V43.583H162.68v5.4123h-2.8643V36.2543H162.68v4.8705Zm12.4793-2.4126v2.381h6.2137V43.54h-6.2137V46.546h6.9142v2.4493h-9.7756V36.2543h9.5391v2.4579Zm16.21,4.7328a5.5851,5.5851,0,0,1,.979.8215,14.1187,14.1187,0,0,1,1.4419,2.0361l1.6869,2.6927h-3.4131l-1.8608-2.775c-.2637-.3934-.5306-.7868-.8081-1.1705a6.3157,6.3157,0,0,0-.49-.6247,1.7582,1.7582,0,0,0-.6806-.4694,4.0963,4.0963,0,0,0-1.1992-.1279h-.323v5.1675h-2.8642V36.2543h5.444a9.4,9.4,0,0,1,2.9449.3455,3.0229,3.0229,0,0,1,1.5314,1.2576,3.7543,3.7543,0,0,1,.5672,2.0481,3.5017,3.5017,0,0,1-.8654,2.4243,3.86,3.86,0,0,1-2.0905,1.1152Zm-4.6674-1.957h1.6661a10.1083,10.1083,0,0,0,2.19-.14,1.1618,1.1618,0,0,0,.6085-.4546,1.4466,1.4466,0,0,0,.2223-.826,1.227,1.227,0,0,0-1.122-1.3166,5.01,5.01,0,0,0-.5842-.0294c-.4042-.0083-.8093-.0088-1.2134-.0088h-1.7671V41.488Zm12.4793-2.7758v2.381h6.2138V43.54h-6.2138V46.546h6.9142v2.4493h-9.7755V36.2543h9.539v2.4579Zm8.6639-2.4579h4.7494A9.0786,9.0786,0,0,1,215,36.4979a4.3042,4.3042,0,0,1,1.9452,1.1906,5.5975,5.5975,0,0,1,1.2247,2.0693,9.4028,9.4028,0,0,1,.4132,2.9865,8.3663,8.3663,0,0,1-.39,2.6932,5.6576,5.6576,0,0,1-1.371,2.2557,4.5983,4.5983,0,0,1-1.8263,1.0313,7.73,7.73,0,0,1-2.2687.2708h-4.882V36.2543Zm2.8615,2.4579V46.546h1.6833a6.594,6.594,0,0,0,1.4682-.1125,2.1642,2.1642,0,0,0,.9321-.4718,2.5431,2.5431,0,0,0,.6024-1.1143,7.989,7.989,0,0,0,.2456-2.2154,7.34,7.34,0,0,0-.2446-2.1454,2.6761,2.6761,0,0,0-.661-1.1234,2.2442,2.2442,0,0,0-1.0739-.5373,10.6553,10.6553,0,0,0-2.0124-.1137Zm9.5572,10.2831V36.2543h2.8615v12.741Zm12.3-2.8128h-4.6968l-1.02,2.8128h-3.0437l4.9629-12.741h2.8894l5.1024,12.741h-3.1133l-1.0807-2.8128Zm-.9372-2.4466-1.4438-3.887-1.4144,3.887Z" fill="#fff" fill-rule="evenodd"/>
      </g>
    </g>
  </g>
</svg>
