<svg xmlns="http://www.w3.org/2000/svg" viewBox="0 0 236.5107 69.5676">
  <title>Logo PUCP</title>
  <g id="Capa_2" data-name="Capa 2">
    <g id="Contacto">
      <g>
        <g>
          <path d="M76.4276,6.3643c-.4009,0-.7225,12.7251-.7225,28.4181s.3216,28.4244.7225,28.4244.726-12.7321.726-28.4244-.3251-28.4181-.726-28.4181" fill="#fff"/>
          <g>
            <path d="M105.1447,27.7048q0-2.7353-1.6175-3.7425c-1.08-.6774-3.0045-1.0095-5.7884-1.0095H95.3049v9.2306h2.4882a20.5836,20.5836,0,0,0,4.4177-.36,3.6624,3.6624,0,0,0,2.2443-1.3257,4.804,4.804,0,0,0,.69-2.7927m11.7676-.0543a12.309,12.309,0,0,1-.7256,4.16,11.2509,11.2509,0,0,1-2.3615,3.7811,11.8413,11.8413,0,0,1-4.412,2.8522,17.8585,17.8585,0,0,1-6.536,1.0936H95.3049V53.9035H83.754V15.5992h19.1232a17.5744,17.5744,0,0,1,6.536,1.11,11.9365,11.9365,0,0,1,4.412,2.8724,11.2926,11.2926,0,0,1,2.3615,3.8389,12.7685,12.7685,0,0,1,.7256,4.23" fill="#fff"/>
            <path d="M160.23,36.7443a17.75,17.75,0,0,1-1.8366,8.3869,14.8083,14.8083,0,0,1-4.8633,5.4881,21.135,21.135,0,0,1-6.5255,2.8978,28.4343,28.4343,0,0,1-6.9759.8789,27.5024,27.5024,0,0,1-9.4584-1.657,16.7988,16.7988,0,0,1-7.7015-5.6379q-3.0927-3.9708-3.0967-10.3568V15.5975h11.5255V33.76a15.5655,15.5655,0,0,0,1.091,6.2583,7.602,7.602,0,0,0,3.0379,3.6173,9.6572,9.6572,0,0,0,9.1088.0149,7.4689,7.4689,0,0,0,3.0529-3.5946,15.412,15.412,0,0,0,1.0918-6.2469V15.5975h11.55Z" fill="#fff"/>
            <path d="M199.9206,51.0329a27.5579,27.5579,0,0,1-4.8623,1.9873,31.1888,31.1888,0,0,1-5.0149,1.0638,42.161,42.161,0,0,1-5.2356.312,27.0694,27.0694,0,0,1-8.966-1.3758,19.3572,19.3572,0,0,1-6.8822-4.0816,17.1081,17.1081,0,0,1-4.3655-6.2959,21.0176,21.0176,0,0,1-1.452-7.9225,20.6,20.6,0,0,1,1.7079-8.6637,16.778,16.778,0,0,1,4.7975-6.1715,20.6,20.6,0,0,1,7.025-3.6356,29.03,29.03,0,0,1,8.3009-1.17,45.2276,45.2276,0,0,1,14.7817,2.8995V28.1508a40.2284,40.2284,0,0,0-5.6222-2.9469,16.7743,16.7743,0,0,0-6.536-1.1733,14.7965,14.7965,0,0,0-6.2486,1.33,11.5033,11.5033,0,0,0-4.6652,3.7811,10.0532,10.0532,0,0,0-.2209,11.0671,11.0126,11.0126,0,0,0,4.2955,3.848,13.35,13.35,0,0,0,6.2056,1.4169,20.267,20.267,0,0,0,5.2787-.6756,23.844,23.844,0,0,0,4.185-1.5107,36.7142,36.7142,0,0,0,3.4936-1.9595Z" fill="#fff"/>
            <path d="M224.74,27.7048q0-2.7353-1.6158-3.7425c-1.0778-.6774-3.0117-1.0095-5.7939-1.0095H214.9v9.2306h2.485a20.7175,20.7175,0,0,0,4.4278-.36,3.635,3.635,0,0,0,2.2318-1.3257,4.7232,4.7232,0,0,0,.6949-2.7927m11.7708-.0543a12.19,12.19,0,0,1-.7325,4.16,11.0126,11.0126,0,0,1-2.3633,3.7811,11.7245,11.7245,0,0,1-4.4111,2.8522,17.8031,17.8031,0,0,1-6.5317,1.0936H214.9V53.9035H203.35V15.5992h19.1226a17.52,17.52,0,0,1,6.5317,1.11,11.8177,11.8177,0,0,1,4.4111,2.8724,11.0568,11.0568,0,0,1,2.3633,3.8389,12.6447,12.6447,0,0,1,.7325,4.23" fill="#fff"/>
          </g>
        </g>
        <path d="M59.6393,22.8424c.5906,1.1856,1.5462,1.6886,3.1384.9508l3.8884-1.8139-.1144-1.08-4.25,1.9918c-.8232.3654-1.3862.1446-1.7-.4881-.3041-.6108-.1109-1.1426.6655-1.5606l4.1535-2.1863-.7948-.751-3.821,2.02c-1.4348.7843-1.763,1.7149-1.1654,2.9171M10.2308,21.627c.634-1.1645.4631-2.0986-1.0554-2.9775L5.4582,16.5053l-.8188.7133,4.0715,2.337c.7712.4644.9464.9156.6095,1.5352-.326.6-.811.6791-1.5983.2847L3.5467,19.2287,3.3894,20.31l3.8468,1.9681c1.4655.7247,2.3536.5284,2.9946-.6511m52.3063,11.92,1.08-.0849-.1835-2.1513,1.8042-.1551.1244,1.5326,1.08-.085L66.33,31.0609,68.1513,30.9l.1867,2.17,1.0563-.0893-.2611-3.1782-6.8563.5617ZM41.7583,6.76,39.64,6.3362l.3523-1.7744,1.5058.3076.2186-1.0612-1.5128-.3215L40.56,1.6938l2.1328.4232.21-1.0375L39.7766.446,38.4075,7.1853l3.1287.6362Zm-9.5631.2287-.1761-1.0717L29.89,6.2811l-.3076-1.785,1.5151-.2506-.1731-1.0708-1.5286.2427-.3115-1.8007,2.1438-.3689L31.053.2042,27.9085.7317l1.1357,6.784ZM6.8664,34.2373l-1.0835.0658.1441,2.1547L4.12,36.5813l-.0955-1.5352L2.942,35.11l.0837,1.544-1.8217.1235-.1468-2.1713L0,34.6763l.202,3.1826,6.8659-.4329Zm44.65,30.354-2.8636-5.05.8224-.4758,2.8609,5.049Zm-2.1705,1.0962-2.5179-5.2339.8539-.41,2.5175,5.2383Zm-3.9046,1.5212-3.9914-4.8256.88-.2865,2.2989,2.71.2852-3.53.9078-.2866Zm-4.9943,1.2329-1.61-1.9532-1.07,2.2721-.9393.12,1.4375-3.123-2.1324-2.65.9415-.1306,1.608,1.9935,1.0668-2.31.9455-.092-1.4484,3.095,2.1358,2.6839Zm-5.76.5065-.7554-3.6663-1.543,1.7087-1.2558-1.9269-1.2951,3.5042-.9424-.0921,1.9523-5.6851,1.6676,2.6515,2.0776-2.3343,1.0349,5.8972Zm-8.402-1.2338c-.9719-.25-1.4822-1.7333-1.0709-3.2825.4066-1.5439,1.5764-2.5937,2.5819-2.3352a1.9479,1.9479,0,0,1,1.16,1.827l-.9406-.2857c-.089-.311-.2528-.5626-.4693-.5941-.5039-.1288-1.13.5941-1.4147,1.6351-.2576,1.0445-.1021,1.9953.4048,2.12a.7067.7067,0,0,0,.6927-.31l.9744.2743a1.8789,1.8789,0,0,1-1.9185.9516m-2.741-.6607-.8421-.4127.5937-3.6637-2.0439,1.0463-.499-2.2441L18.29,64.5913l-.8491-.4075,3.81-4.6424.66,3.06,2.7335-1.4537Zm11.249-4.6775a27.6069,27.6069,0,0,1-26.9113-21.92H.3023a35.0008,35.0008,0,0,0,69.0035,0h-7.595a27.61,27.61,0,0,1-26.9188,21.92m33.62-26.7946-5.7759-.2664L62.5928,36.37l5.7785.27-.0627,1.579,1.0927.0508.1656-4.2411-1.0909-.05ZM64.4408,24.1489c-2.0132.4127-3.2338,1.9532-2.8969,3.6251a2.8161,2.8161,0,0,0,1.012,1.6465l.7734-.5871a2.2906,2.2906,0,0,1-.7225-1.3161c-.2125-1.05.8263-2.0277,2.1144-2.295,1.3459-.2733,2.54.234,2.7633,1.3285a2.0859,2.0859,0,0,1-.3049,1.4677l.9586.2751a2.5885,2.5885,0,0,0,.4066-1.9917c-.3347-1.6719-2.0286-2.5745-4.104-2.153M58.4187,20.3l.8925-.6318-1.2869-1.834,4.7477-3.3044-.6095-.8631-5.644,3.9353Zm-3.3368-6.99a.9046.9046,0,0,1-1.34.1149,1.8911,1.8911,0,0,1-.4289-1.0235l-.9666.4434a2.7418,2.7418,0,0,0,.7961,1.44,1.9325,1.9325,0,0,0,2.7949-.2647c1.4769-1.6333-.581-2.9293.33-3.9326a.8874.8874,0,0,1,1.3136-.0544,2.0217,2.0217,0,0,1,.49,1.0682l.9481-.3794A2.8773,2.8773,0,0,0,58.2123,9.21a1.8746,1.8746,0,0,0-2.7479.1928c-1.58,1.742.538,2.882-.3825,3.9063m-3.6282-.6072,4.0878-5.5485-.8557-.6213-4.083,5.5433ZM50.3106,5.049l.53.2918a.9294.9294,0,0,1,.3671,1.3451.9323.9323,0,0,1-1.338.4732l-.5714-.319Zm-2.8689,5.1051,1.3447-2.41.2843.1586a.4219.4219,0,0,1,.2191.3917l.096,3.102,1.1514-.1376L50.354,8.22a1.8351,1.8351,0,0,0,1.8327-1.0349,1.7965,1.7965,0,0,0-.7273-2.6839l-1.5821-.878L46.4971,9.63Zm-2.581-4.3567c.7308.2593.9608.7229.7286,1.3774a.9075.9075,0,0,1-1.3043.5512l-.673-.241.7-1.89Zm.4464-2.9539.631.2234a.8856.8856,0,0,1,.6191,1.2382.9575.9575,0,0,1-1.3293.5853l-.58-.2112ZM44.232,8.7416a1.7265,1.7265,0,0,0,2.3291-1.1531A1.4891,1.4891,0,0,0,46.07,5.6966l.0044-.0167c.5546.1113,1.17-.3031,1.4835-1.1855a1.684,1.684,0,0,0-1.0866-2.2713L44.6447,1.57,42.2753,8.0432ZM33.8917,1.94l.0148-.0166L36.41,7.2221l1.0682-.3365L37.6539.2085,36.6.1858l-.0333,5.1463H36.548L33.9876,0l-.9915.3409-.17,6.6762,1.0511.0175Zm-9.6.94,1.6513,5.559,1.0112-.31L25.3,2.57l1.5041-.4636-.3115-1.0506-4.04,1.2452.3085,1.0515Zm-5.3535,9.0062-2.7344-4.29.0035-.0263,4.9592,3.1011.7155-.8693L18.4287,4.093,17.53,4.65,20.2789,8.994l-.0162.0078L15.236,5.906l-.6466.83,3.4489,5.7071ZM17.279,13.151,12.9266,7.81l-.8109.6765,4.3515,5.3391Zm-6.1277,5.86,1.0415-.3365-1.1466-2.7926,2.9118.5845.1319-1.1243-3.4179-.5687-1.21-3.14-1.0664.3189,1.1391,2.67-2.8285-.5608-.1083,1.1531,3.2851.517ZM9.06,23.915l-1.0349-.3593L7.3,25.678l-5.45-1.93-.3471,1.0007,6.49,2.2835Zm-7.7589,7.85,5.7505.6213.1034-1.0542L1.409,30.7051l.1608-1.572L.4815,29.0166.0539,33.2384l1.0844.1183ZM21.8579,54.6922a13.0388,13.0388,0,0,0-2.3054.913l-.3023.135a23.9326,23.9326,0,0,0,15.2426,4.957c.9135-.0219,1.8125-.092,2.6958-.19A25.4528,25.4528,0,0,0,47.365,57.29a2.2313,2.2313,0,0,1-1.1233-.9008,2.0221,2.0221,0,0,1-.17-1.7885,3.0943,3.0943,0,0,0-.6559.0912,13.3393,13.3393,0,0,0-2.4413.9822,16.0586,16.0586,0,0,1-6.4738,1.7973,2.3775,2.3775,0,0,1-2.0228-.9981,1.9992,1.9992,0,0,1-.3466-1.1208,2.1255,2.1255,0,0,1,.1477-.7474,2.7131,2.7131,0,0,0-.6533.0868,13.4263,13.4263,0,0,0-2.4794.991,15.9885,15.9885,0,0,1-6.4388,1.7885,2.3176,2.3176,0,0,1-1.958-.9762,2.0683,2.0683,0,0,1-.2318-1.8945,3.1994,3.1994,0,0,0-.66.0912M54.564,39.74c0-.0246.0127-.0535.0127-.0763a.717.717,0,0,0-.1542-.4442,2.5661,2.5661,0,0,0-2.3716-.4776,9.3358,9.3358,0,0,0-.9661.2384l-1.9992-2.6358,1.7289,2.7234a11.1611,11.1611,0,0,0-1.1457.4653l-2.3874-3.1887L49.38,39.671c-.1573.0789-.3116.1534-.471.2349-.23.1157-.47.23-.7081.3452l-2.8855-3.8678,2.549,4.0256a13.1614,13.1614,0,0,1-1.2938.4942l-3.3819-4.5023,2.91,4.6434c-.33.0937-.6831.1769-1.0744.2514l-3.6982-4.9508L44.4339,41.4c-.407.064-.8455.1174-1.3288.163a1.7948,1.7948,0,0,1-.8907-.3017l-.06-.0341a.336.336,0,0,1-.1157-.2156.9509.9509,0,0,1-.007-.0955.6065.6065,0,0,1,.1227-.38c.0534-.0421.3487-.25.3487-.25l.0071-.0123a1.0827,1.0827,0,0,0,.2234-.6143.6718.6718,0,0,0-.1192-.39,2.5215,2.5215,0,0,0-2.4264-.5275,11.4587,11.4587,0,0,0-2.7155.8719c-.8443-1.969-1.1554-4.3191-1.0375-7.8023A15.1711,15.1711,0,0,0,47.5535,35.15c.2676-.0289.5288-.0841.79-.1323l.0044.0061a10.3316,10.3316,0,0,0,5.686-2.7085,12.8213,12.8213,0,0,0,1.5523-1.6132c.0535-.0605.099-.12.1415-.1709.096-.1236.1954-.23.2865-.3575.1324.1008,1.3131.9928,1.3131.9928s1.3517,1.0156,1.4581,1.1024A17.2413,17.2413,0,0,1,54.564,39.74m-17.7128.17c-1.4449-3.8949-2.0592-5.6-1.7135-9.4338.2541.2646.878.921,1.1058,1.16-.1349,3.6093.181,6.0278,1.0511,8.0581-.1516.0727-.3.1428-.4434.2155m-.1844.0877c-.1542-.2077-.2966-.4136-.432-.6178-.0307-.0456-.06-.0964-.0894-.1428-.0867-.1288-.17-.2681-.2484-.3969-.0719-.12-.1446-.24-.2073-.355-.0219-.0385-.0411-.0718-.06-.106a15.2783,15.2783,0,0,1-1.7192-5.0586c-.0464-.3242-.0771-.6134-.1-.8824l.0074.0035c-.0241-.32-.0259-.5941-.0259-.829,0-.3338.0106-.5643.0185-.6642a4.928,4.928,0,0,0,.63-.2953,4.7214,4.7214,0,0,1,.5148-.2454c-.3623,3.9222.2529,5.6327,1.7175,9.5873l-.0061.0026m-.67.2848a27.5151,27.5151,0,0,1-3.3-5.6756s-.2077-.446-.2467-.524a7.423,7.423,0,0,1,1.165-1.5475c.0149.1367.0381.291.0574.4408a14.9544,14.9544,0,0,0,2.808,7.1021c-.13.0543-.3912.1656-.4841.2042M33.719,21.3046h8.9016a17.8653,17.8653,0,0,0-1.2049,5.6869c0,.1244,0,.2506.0074.3724a12.8381,12.8381,0,0,0,2.1053,5.7992l.0372.0648c.5122,1.0033.92,1.6815.92,1.6815l.0167.0272a15.51,15.51,0,0,1-7.9977-3.3158.1055.1055,0,0,1-.0342-.03s-.4153-.4355-.7816-.8184c-.2949-.3067-.5591-.5854-.5591-.5854l-.0368-.0411-.0622.0192a5.4288,5.4288,0,0,0-.7294.3348l-.6134.2918-.0579.0193-.0048.0613a.049.049,0,0,1-.0079.0184,10.091,10.091,0,0,0-.0066,1.367l-.0617.0657c-.0688.0683-.1293.134-.1911.2015a14.7677,14.7677,0,0,1-1.39-5.8324,8.9488,8.9488,0,0,1,1.7507-5.3881m5.76-2.3633H49.72a12.4434,12.4434,0,0,0-3.084,6.9566c0,.13-.0044.2559-.0044.3839a11.19,11.19,0,0,0,2.4759,7.081c-1.8936-1.2206-3.7223-.8754-5.4534-.361a12.6385,12.6385,0,0,1-2.0377-5.6467c-.0088-.1226-.0088-.2392-.0088-.3636a13.3035,13.3035,0,0,1,.3943-2.9889c.2125-.8228.4885-1.7236.8583-2.7629l-.092-.127H37.7788a7.8945,7.8945,0,0,1,1.7-2.1714m3.1533-2.5578a1.96,1.96,0,0,0,.1012,1.8839A10.5652,10.5652,0,0,0,39.5742,16.89c1.1983-.2839,3.0582-.5065,3.0582-.5065m.4-.2445h.28c0,.0123.0075.0184.0075.0351l.3229,2.5332h-.58L43.02,16.238a.1711.1711,0,0,1,.0118-.099M50.067,34.388a12.374,12.374,0,0,1-1.4585.3909c.1893-.2007.49-.5328.846-.9271.113.0858.2287.1779.3426.2821.117.1078.2007.1928.27.2541m5.65-4.16A13.741,13.741,0,0,1,53.544,32.476c-.0149.0114-.0223.0237-.0385.0342-.1118.085-.223.1744-.3391.2611A11.2388,11.2388,0,0,1,50.27,34.3066c-.1122-.11-.2261-.2147-.333-.3137-.092-.0912-.1993-.2086-.3154-.3295a29.0139,29.0139,0,0,0,2.3339-2.9,14.6282,14.6282,0,0,0,3.7614-.5362M26.5324,22.37l-3.7066.297s1.0681,1.1585,1.5676,1.7263c.2221.2462.0263.5582-.2935.3295l-.1061-.1139-1.5194-1.5668s-.3146,10.7885-.4079,12.0241c-.03.375-.3137.4118-.38,0L21.3541,23.04c-.4995.51-1.0607,1.2241-1.6194,1.6929-.255.2191-.4959-.06-.2769-.3759l1.4459-1.6973c-1.2272-.1008-2.4514-.1928-3.679-.2892-.5376-.03-.6007-.5038,0-.5976l3.7224-.3374s-1.0761-1.1172-1.5821-1.6842c-.2686-.2988-.0837-.531.17-.3688l1.802,1.6613.0079-.0955c.0579-1.225.1529-2.46.2542-3.6882.0306-.5108.4981-.6028.5906,0l.2843,3.8144s1.2053-1.1663,1.7959-1.678c.3032-.2568.5258.0394.2173.3548l-1.6627,1.6842s2.482.241,3.7075.3374c.5384.0306.6006.503,0,.5976M60.537,34.56A25.9348,25.9348,0,0,0,34.7285,8.5024,26.2986,26.2986,0,0,0,8.6732,34.7456a25.7351,25.7351,0,0,0,.8719,6.6414,13.4826,13.4826,0,0,0,3.8486-1.3812,10.9334,10.9334,0,0,1,3.1155-1.1593,2.4437,2.4437,0,0,1,2.3432.4959.5929.5929,0,0,1,.1051.3479,1.0342,1.0342,0,0,1-.2213.5924l-.329.2462a.66.66,0,0,0-.1424.42c0,.0324.0035.0666.0057.1008a.3642.3642,0,0,0,.1516.2646l.05.0316a1.8617,1.8617,0,0,0,.9555.3069,14.077,14.077,0,0,0,5.8294-1.6572,11.0359,11.0359,0,0,1,3.1041-1.1488,2.47,2.47,0,0,1,2.3712.4994.6.6,0,0,1,.1.3348,1.0226,1.0226,0,0,1-.2362.602l-.3072.25a.6.6,0,0,0-.1616.4127.3647.3647,0,0,0,.0074.0885.3729.3729,0,0,0,.1748.28l.0513.0316a1.755,1.755,0,0,0,.8636.3069,14.0227,14.0227,0,0,0,4.7055-1.1333l.6686-.2751.0057.0035.0653-.0342h.0039V40.209a12.6257,12.6257,0,0,1,3.5532-1.2775,2.3877,2.3877,0,0,1,2.2266.4416.5162.5162,0,0,1,.0885.2865.9124.9124,0,0,1-.1879.4969c-.0219.0184-.3216.2339-.3216.2339l-.0237.0185a.7994.7994,0,0,0-.17.5073.6378.6378,0,0,0,.0084.1262.4832.4832,0,0,0,.2147.3534l.0538.0289a1.9829,1.9829,0,0,0,.9977.332,14.1937,14.1937,0,0,0,5.8836-1.6782,11.0836,11.0836,0,0,1,3.0889-1.147,2.4554,2.4554,0,0,1,2.1836.403.6163.6163,0,0,1,.02.6818l.014.01a1.3447,1.3447,0,0,1-.1529.2568l-.3058.25a.6153.6153,0,0,0-.1534.5012.3552.3552,0,0,0,.1674.2778l.0653.0377a1.7063,1.7063,0,0,0,.8863.3034,14.4868,14.4868,0,0,0,5.0889-1.3356A26.2407,26.2407,0,0,0,60.537,34.56M48.29,56.1476c.3536-.028.7176-.0692,1.0747-.12a26.1394,26.1394,0,0,0,5.899-5.6747,2.22,2.22,0,0,1-1.3205-.9674,2.1036,2.1036,0,0,1-.3023-1.0813,2.1578,2.1578,0,0,1,.1323-.7151c-.0793.0106-.4587.0544-.4587.0544l-.1705.0307a13.7186,13.7186,0,0,0-2.4868.99A16.1362,16.1362,0,0,1,44.2,50.4493a2.382,2.382,0,0,1-2.03-1.0042,2.0063,2.0063,0,0,1-.3414-1.1155,2.0418,2.0418,0,0,1,.1446-.74c-.0784.0106-.4333.0491-.4333.0491s-.219.036-.2234.036a13.4246,13.4246,0,0,0-2.4781.9928,15.82,15.82,0,0,1-6.4054,1.7823,2.3406,2.3406,0,0,1-1.9914-.9823,2.0718,2.0718,0,0,1-.23-1.8779c-.0763.0106-.4526.0544-.4526.0544l-.1687.0307a13.5192,13.5192,0,0,0-2.4724.9866,16.2289,16.2289,0,0,1-6.5075,1.7885,2.4091,2.4091,0,0,1-2.061-1.0138A1.99,1.99,0,0,1,18.21,48.334a1.9491,1.9491,0,0,1,.15-.7449c-.0859.0106-.5061.0579-.5061.0579l-.1533.0272a12.7525,12.7525,0,0,0-2.5022.998,19.7937,19.7937,0,0,1-1.866.829c.1958.283.4009.5616.6077.8394a26.923,26.923,0,0,0,4.1754,4.4821c.23-.106.4482-.2173.6668-.3242a10.6176,10.6176,0,0,1,3.0621-1.126,2.4431,2.4431,0,0,1,2.36.4636.5832.5832,0,0,1,.1047.3382,1.0729,1.0729,0,0,1-.2339.6028l-.3041.2463a.6706.6706,0,0,0-.16.432.3943.3943,0,0,0,.0074.0929.378.378,0,0,0,.1678.2646l.0657.035a1.6835,1.6835,0,0,0,.8522.3,13.7086,13.7086,0,0,0,5.779-1.6316,10.7788,10.7788,0,0,1,3.1256-1.1435,2.4215,2.4215,0,0,1,2.34.4636.6382.6382,0,0,1,.1109.3531,1.0318,1.0318,0,0,1-.22.5879s-.3312.2419-.3365.2419a.7859.7859,0,0,0-.1411.4338.3974.3974,0,0,0,.0118.1034.368.368,0,0,0,.15.2567l.053.0307a1.911,1.911,0,0,0,.921.304,13.7019,13.7019,0,0,0,5.8069-1.6395,10.9594,10.9594,0,0,1,3.0937-1.1356,2.4557,2.4557,0,0,1,2.3672.4636c.1192.1813.1932.4924-.1305.941l-.308.2463a.6911.6911,0,0,0-.1565.5249.3846.3846,0,0,0,.1727.2646l.06.035a1.7612,1.7612,0,0,0,.8877.3m7.8407-7.0267a26.0087,26.0087,0,0,0,3.3627-7.2029A30.9035,30.9035,0,0,1,54.81,42.9739a2.4206,2.4206,0,0,1-2.0058-1.0375,2.0531,2.0531,0,0,1-.3421-1.121,1.987,1.987,0,0,1,.1314-.7062c-.1542.0122-.6625.0578-.6537.0578a13.9446,13.9446,0,0,0-2.4176.9832A16.5408,16.5408,0,0,1,43.02,42.9739a2.4415,2.4415,0,0,1-2.0417-1.0524A2.0232,2.0232,0,0,1,40.65,40.833a1.982,1.982,0,0,1,.1463-.7238,4.187,4.187,0,0,0-.6567.0578,14.2626,14.2626,0,0,0-2.4461.9893,16.3394,16.3394,0,0,1-6.4659,1.8176,2.3891,2.3891,0,0,1-1.976-1.0287,2.0043,2.0043,0,0,1-.2147-1.836c-.1542.0122-.6594.0578-.6594.0578a13.4316,13.4316,0,0,0-2.404.9788,16.6423,16.6423,0,0,1-6.5457,1.8281,2.4853,2.4853,0,0,1-2.0728-1.0559,2.0263,2.0263,0,0,1-.3387-1.1052,1.9463,1.9463,0,0,1,.1354-.7071,4.3635,4.3635,0,0,0-.6274.0613,13.7472,13.7472,0,0,0-2.4557.9981A15.5949,15.5949,0,0,1,9.9167,42.65a25.6875,25.6875,0,0,0,2.68,5.7369,16.7131,16.7131,0,0,0,1.9681-.878,10.8638,10.8638,0,0,1,3.12-1.1506,2.4649,2.4649,0,0,1,2.3475.475.8239.8239,0,0,1-.1148.96l-.3369.2375a.66.66,0,0,0-.1376.41c0,.0263,0,.0543.0013.078a.4608.4608,0,0,0,.16.3058l.02.0167a2.0344,2.0344,0,0,0,.9845.2874,14.0506,14.0506,0,0,0,5.8586-1.636,11.2352,11.2352,0,0,1,3.1064-1.1348,2.4518,2.4518,0,0,1,2.34.475c.1235.184.2.4942-.1157.96a1.7131,1.7131,0,0,0-.3334.2375.698.698,0,0,0-.1332.4837.4354.4354,0,0,0,.1608.31l.0307.0193a1.8371,1.8371,0,0,0,.9052.2848A13.7473,13.7473,0,0,0,38.2,47.5015a11.0751,11.0751,0,0,1,3.1024-1.1435,2.466,2.466,0,0,1,2.348.475.8191.8191,0,0,1-.1183.96,1.92,1.92,0,0,0-.3076.241.6172.6172,0,0,0-.1586.467.4307.4307,0,0,0,.1463.32l.0355.0228a2.0447,2.0447,0,0,0,.9477.2848,13.9175,13.9175,0,0,0,5.8179-1.6316,11.422,11.422,0,0,1,3.1182-1.1392,2.4648,2.4648,0,0,1,2.3471.475.8124.8124,0,0,1-.12.96,1.871,1.871,0,0,0-.3325.2375.69.69,0,0,0-.1389.4793.4558.4558,0,0,0,.1542.3111l.0381.0263a1.8723,1.8723,0,0,0,.9144.2813Z" fill="#fff"/>
      </g>
    </g>
  </g>
</svg>
