<svg xmlns="http://www.w3.org/2000/svg" viewBox="0 0 669 387">
  <title>VI </title>
  <g id="fondo_puro_6" data-name="fondo puro 6">
    <rect width="80.1339" height="387" fill="#0072bb"/>
  </g>
  <g id="Curva">
    <path d="M669,108.746V0H80.1339V387H606.3891A62.611,62.611,0,0,0,669,324.3891V304.135a6.6384,6.6384,0,0,1-5.3455-2.01,5.7827,5.7827,0,0,1-1.2666-2.9935,7.214,7.214,0,0,1-6.0247-1.4539,4.99,4.99,0,0,1-1.8726-3.907s-2.5749-.22-3.28-3.6836a4.7387,4.7387,0,0,1,1.3043-4.64s-2.5446-.78-2.5446-4.3682a5.5013,5.5013,0,0,1,1.5182-3.6714,23.9114,23.9114,0,0,1-8.8949-9.5791c-2.9017-6.2027-3.1066-12.9848-7.6286-19.757-12.85-19.2438-43.6883-58.9289-31.03-99.64C616.3332,108.554,657.9883,108.746,669,108.746Z" fill="#0072bb" opacity="0.2"/>
  </g>
  <g id="Capa_23" data-name="Capa 23">
    <path d="M80.1339,0V387H606.3891a62.587,62.587,0,0,0,54.3836-31.5673c-.6407-12.1834-2.08-31.4334-5.12-43.7753-1.8765-7.6179-19.996-10.3383-25.0331-20.9076-1.7433-3.6578.5622-6.1137-1.3532-9.7356-1.5938-3.0138-4.89-4.12-7.0225-7.9661-2.6248-4.7347-3-8.4233-5.9931-12.9174-27.8821-41.8588-34.2112-68.925-34.2112-90.1466,0-68.9356,71.1593-72.1857,86.9607-72.1857V0Z" fill="#0072bb" opacity="0.25"/>
  </g>
  <g id="Capa_19" data-name="Capa 19">
    <path d="M80.1339,0V387H606.3891a62.4556,62.4556,0,0,0,46.9448-21.1878c-.25-6.4353-1.8934-42.5007-7.5762-47.95-8.3841-8.04-28.0522-7.0335-36.247-19.1648-2.5346-3.752-2.2346-10.5692-5.1964-14.24a148.9965,148.9965,0,0,1-23.9856-43.6562c-6.158-17.2767-5.927-31.5383-7.9541-44.4319-2.368-15.062-3.32-27.7572-1.9671-41.78C575.5392,101.3906,630.6193,86.68,669,86.68V0Z" fill="#0072bb" opacity="0.3"/>
  </g>
  <g id="Capa_20" data-name="Capa 20">
    <path d="M80.1339,0V387H606.3891a62.35,62.35,0,0,0,39.6252-14.1353v-6.0661s-.77-36.8769-9.6219-43.5481c-10.3685-7.814-42.777-5.9736-45.03-11.9312-4.7887-12.66-10.6307-25.9485-15.6517-39.2574-3-7.9513-10.8729-15.5952-12.316-24.2472-1.6751-10.0424,2.6445-32.16.058-44.7824-4.128-20.1452-7.653-40.8312-3.1371-58.1079C574.299,91.4265,628.31,76.0743,669,76.0743V0Z" fill="#0072bb" opacity="0.4"/>
  </g>
  <g id="Capa_21" data-name="Capa 21">
    <path d="M80.1339,0V387H606.3891a62.3183,62.3183,0,0,0,31.4145-8.4427V366.7986s-.3848-30.9755-5.3883-35.68c-9.5238-8.9541-54.8694-.7779-58.7182-6.5511-4.4424-6.6637-3.0615-15.9266-5.6844-19.7061-1.8957-2.7315-4.2617-4.39-5.8159-7.27-1.8175-3.3677-1.4006-7.6976-2.3307-8.8843-2.4874-3.1736-3.074-4.21-5.1958-7.3661-2.1364-3.1777.2373-11.0129-1.5395-14.0266-3.346-5.6751-6.886-11.1359-8.5165-15.9082-2.3961-7.0133,9.64-38.1234,6.1855-48.6651-8.1565-24.887-7.6263-42.8945-3.1428-59.6135C565.96,74.8769,649.35,64.4424,669,64.4424V0Z" fill="#0072bb" opacity="0.5"/>
  </g>
  <g id="Capa_22" data-name="Capa 22">
    <path d="M80.1339,0V387H606.3891a62.4147,62.4147,0,0,0,24.23-4.8627V366.7986s-2.7049-29.1794-6.3291-29.6926c-17.7889-2.5187-58.342,14.8823-72.314.6415-4.0723-4.1506-2.4376-21.1682-2.4376-21.1682a76.4328,76.4328,0,0,1-5.2424-7.6334c-1.4832-2.6622,0-9.4722,0-9.4722s-4.7957-4.5482-5.13-7.5155c-.6936-6.1636,3.9635-14.8561-.9176-18.8272-10.0923-8.2107-17.707-13.0555-16.9359-15.5937,2.0527-6.7568,5.8173-16.5649,9.7515-30.7982,3.9494-14.2879,6.2721-23.9108,6.2721-23.9108S518.76,154.826,543.0637,115.94C582.0393,53.58,665.5147,53.6659,669,53.6659V0Z" fill="#0072bb"/>
  </g>
</svg>
