<svg xmlns="http://www.w3.org/2000/svg" viewBox="0 0 416 396">
  <title>VI </title>
  <g id="Capa_22" data-name="Capa 22">
    <path d="M416,109.0579V-3.0836H-191.2527V396H351.4342A64.5658,64.5658,0,0,0,416,331.4342V310.5476a6.8457,6.8457,0,0,1-5.5124-2.0727,5.9624,5.9624,0,0,1-1.3061-3.0869,7.44,7.44,0,0,1-6.2129-1.4994,5.1455,5.1455,0,0,1-1.9311-4.029s-2.6552-.2266-3.3828-3.7986A4.8865,4.8865,0,0,1,399,291.2762s-2.624-.8048-2.624-4.5047a5.6731,5.6731,0,0,1,1.5656-3.786,24.6576,24.6576,0,0,1-9.1727-9.8782c-2.9922-6.3963-3.2036-13.39-7.8667-20.3739-13.251-19.8447-45.0524-60.7689-31.999-102.7514C361.6888,108.86,404.6444,109.0579,416,109.0579Z" fill="#0072bb" opacity="0.2"/>
    <path d="M-191.2527-3.0836V396H351.4342a64.541,64.541,0,0,0,56.0816-32.553c-.6607-12.5638-2.1452-32.4149-5.28-45.1421-1.9351-7.8558-20.62-10.661-25.8148-21.56-1.7977-3.772.58-6.3046-1.3955-10.04-1.6435-3.1079-5.043-4.2486-7.2417-8.2148-2.7067-4.8825-3.0932-8.6863-6.18-13.3207-28.7527-43.1659-35.2795-71.0771-35.2795-92.9613,0-71.0881,73.3813-74.44,89.676-74.44V-3.0836Z" fill="#0072bb" opacity="0.25"/>
    <path d="M-191.2527-3.0836V396H351.4342a64.4054,64.4054,0,0,0,48.4105-21.8494c-.2573-6.6362-1.9524-43.8277-7.8127-49.4471-8.6459-8.2907-28.9281-7.2532-37.3788-19.7632-2.6137-3.8692-2.3044-10.8992-5.3586-14.6845A153.6431,153.6431,0,0,1,324.56,245.2365c-6.35-17.8161-6.1121-32.523-8.2025-45.8192-2.442-15.5323-3.4235-28.6239-2.0286-43.085,5.292-54.8595,62.0919-70.03,101.671-70.03V-3.0836Z" fill="#0072bb" opacity="0.3"/>
    <path d="M-191.2527-3.0836V396H351.4342a64.296,64.296,0,0,0,40.8624-14.5766v-6.2556s-.7937-38.0283-9.9224-44.9078c-10.6922-8.058-44.1126-6.16-46.4365-12.3037-4.9382-13.055-10.9626-26.7587-16.14-40.4832-3.0934-8.2-11.2123-16.0821-12.7006-25.0043-1.7273-10.356,2.7272-33.1642.06-46.1807-4.2569-20.7741-7.892-42.1061-3.235-59.9222,14.4205-55.1683,70.1179-71,112.0784-71v-78.45Z" fill="#0072bb" opacity="0.4"/>
    <path d="M-191.2527-3.0836V396H351.4342a64.2638,64.2638,0,0,0,32.3953-8.7063V375.1678s-.3968-31.9426-5.5565-36.7935c-9.8212-9.2337-56.5826-.8023-60.5516-6.7557-4.5811-6.8717-3.1571-16.4239-5.8619-20.3213-1.9549-2.8168-4.3948-4.5271-5.9975-7.4969-1.8742-3.4728-1.4443-7.9379-2.4035-9.1616-2.565-3.2728-3.17-4.3415-5.358-7.5961-2.2031-3.277.2447-11.3568-1.5876-14.4646-3.45-5.8523-7.101-11.4836-8.7824-16.4049-2.4709-7.2323,9.9414-39.3138,6.3786-50.1847-8.4111-25.6641-7.8644-44.2338-3.2409-61.4748C309.7427,74.1312,395.7363,63.371,416,63.371V-3.0836Z" fill="#0072bb" opacity="0.5"/>
    <path d="M-191.2527-3.0836V396H351.4342a64.3644,64.3644,0,0,0,24.9867-5.0145V375.1678s-2.7893-30.0905-6.5267-30.62c-18.3444-2.5975-60.1637,15.3469-74.572.6615-4.1993-4.28-2.5136-21.8292-2.5136-21.8292a78.8167,78.8167,0,0,1-5.4061-7.8717c-1.5295-2.7453,0-9.768,0-9.768s-4.9455-4.69-5.29-7.75c-.7153-6.3561,4.0873-15.32-.9462-19.4151-10.4075-8.4671-18.26-13.4632-17.4648-16.0806,2.1168-6.9678,5.9989-17.0821,10.0561-31.76,4.0727-14.734,6.4679-24.6574,6.4679-24.6574s-19.1571-49.5012,5.9059-89.6011C326.324,52.17,412.4059,52.2579,416,52.2579V-3.0836Z" fill="#0072bb"/>
  </g>
</svg>
