<svg xmlns="http://www.w3.org/2000/svg" viewBox="0 0 1091 556">
  <title>VI </title>
  <g id="fondo_puro_6" data-name="fondo puro 6">
    <rect width="222.6926" height="556" fill="#0072bb"/>
  </g>
  <g id="Capa_22" data-name="Capa 22">
    <path d="M1091,145.703v-160.35H222.6926V556H998.6777A92.3223,92.3223,0,0,0,1091,463.6777V433.8121c-2.5223,0-5.6751-.3784-7.8822-2.9637a8.5264,8.5264,0,0,1-1.8676-4.4141,10.6372,10.6372,0,0,1-8.8837-2.1439,7.3574,7.3574,0,0,1-2.7613-5.761s-3.7966-.324-4.8371-5.4317a6.9869,6.9869,0,0,1,1.9233-6.8417s-3.7521-1.1508-3.7521-6.4412a8.112,8.112,0,0,1,2.2386-5.4136s-8.8371-4.9788-13.1159-14.1248-4.5808-19.1466-11.2486-29.1325c-18.9475-28.3758-64.42-86.8931-45.7552-146.9237C1013.3407,145.42,1074.7627,145.703,1091,145.703Z" fill="#0072bb" opacity="0.2"/>
    <path d="M222.6926-14.6475V556H998.6777a92.2873,92.2873,0,0,0,80.1908-46.5473c-.9448-17.9649-3.0674-46.35-7.55-64.5485-2.7669-11.2329-29.4849-15.2442-36.9124-30.8291-2.5705-5.3936.8291-9.0148-1.9953-14.3556-2.35-4.4439-7.2111-6.075-10.355-11.7462-3.87-6.9816-4.4229-12.4205-8.837-19.0473-41.1134-61.7226-50.4459-101.6327-50.4459-132.9249C962.7728,134.3526,1067.7,129.56,1091,129.56V-14.6475Z" fill="#0072bb" opacity="0.25"/>
    <path d="M222.6926-14.6475V556H998.6777A92.093,92.093,0,0,0,1067.9,524.7576c-.3678-9.4889-2.7918-62.669-11.1713-70.7041-12.3628-11.8548-41.3641-10.3712-53.4477-28.2593-3.7374-5.5326-3.2951-15.5847-7.6623-20.9972-14.748-18.278-26.6978-40.0489-35.3677-64.3729-9.08-25.4752-8.74-46.5044-11.7287-65.5166-3.4918-22.21-4.8953-40.9292-2.9007-61.607C953.1881,134.8571,1034.406,113.1654,1091,113.1654V-14.6475Z" fill="#0072bb" opacity="0.3"/>
    <path d="M222.6926-14.6475V556H998.6777a91.9368,91.9368,0,0,0,58.4289-20.843v-8.9449s-1.1349-54.3764-14.1879-64.2134c-15.2888-11.522-63.0764-8.8083-66.3993-17.593-7.0612-18.6672-15.6754-38.2621-23.0791-57.8867-4.4232-11.7245-16.0325-22.9957-18.16-35.7535-2.47-14.808,3.9-47.4214.0857-66.0335-6.087-29.7049-11.2848-60.2072-4.6258-85.6825C951.36,120.1647,1031.0009,97.5271,1091,97.5271V-14.6475Z" fill="#0072bb" opacity="0.4"/>
    <path d="M222.6926-14.6475V556H998.6777A91.8909,91.8909,0,0,0,1045,543.5509V526.2121s-.5674-45.6745-7.9452-52.6108c-14.0434-13.2032-80.9072-1.1471-86.5824-9.66-6.5506-9.8258-4.5144-23.4844-8.382-29.0574-2.7952-4.0277-6.284-6.4732-8.5758-10.72-2.68-4.9658-2.0651-11.35-3.4366-13.1-3.6678-4.68-4.5327-6.2078-7.6615-10.8616-3.15-4.6857.35-16.239-2.27-20.6828-4.9338-8.3681-10.1537-16.42-12.5579-23.4574-3.5332-10.3414,14.2151-56.2144,9.1207-71.7587-12.027-36.6969-11.2453-63.25-4.6342-87.9025C939.0633,95.7615,1062.0251,80.3756,1091,80.3756V-14.6475Z" fill="#0072bb" opacity="0.5"/>
    <path d="M222.6926-14.6475V556H998.6777a92.032,92.032,0,0,0,35.7283-7.17V526.2121s-3.9884-43.0261-9.3325-43.7828c-26.23-3.7141-86.0276,21.9445-106.63.9459-6.0046-6.12-3.5943-31.2134-3.5943-31.2134a112.7193,112.7193,0,0,1-7.73-11.2558c-2.187-3.9255,0-13.9672,0-13.9672s-7.0715-6.7065-7.5639-11.0818c-1.0229-9.0885,5.8443-21.906-1.3531-27.7615-14.8815-12.107-26.11-19.251-24.9727-22.9936,3.0267-9.9631,8.5778-24.4256,14.379-45.4132,5.8236-21.0681,9.2485-35.2575,9.2485-35.2575s-27.3926-70.7814,8.4448-128.12C962.7728,64.359,1085.8608,64.4851,1091,64.4851V-14.6475Z" fill="#0072bb"/>
  </g>
</svg>
