<svg xmlns="http://www.w3.org/2000/svg" viewBox="0 0 520 511">
  <title>VI </title>
  <g id="Capa_22" data-name="Capa 22">
    <path d="M520,133.2116V-14.4341H-279.51V511H434.9925A85.0076,85.0076,0,0,0,520,425.9925V398.4932c-2.3225,0-5.2255-.3483-7.2576-2.7289a7.85,7.85,0,0,1-1.72-4.0642,9.7945,9.7945,0,0,1-8.18-1.9741,6.7746,6.7746,0,0,1-2.5425-5.3046s-3.4959-.2983-4.4539-5.0013a6.4334,6.4334,0,0,1,1.7709-6.3s-3.4548-1.06-3.4548-5.9309a7.4688,7.4688,0,0,1,2.0613-4.9846s-8.1369-4.5843-12.0768-13.0057-4.2178-17.63-10.3573-26.8243c-17.4462-26.1276-59.3161-80.0084-42.13-135.2827C448.4938,132.9508,505.0492,133.2116,520,133.2116Z" fill="#0072bb" opacity="0.2"/>
    <path d="M-279.51-14.4341V511H434.9925A84.9751,84.9751,0,0,0,508.83,468.1407c-.87-16.5415-2.8244-42.6775-6.9519-59.4342C499.33,398.3636,474.729,394.67,467.89,380.32c-2.3668-4.9663.7635-8.3006-1.8372-13.2182-2.1639-4.0918-6.64-5.5937-9.5345-10.8156-3.5636-6.4284-4.0725-11.4364-8.1368-17.5381-37.8559-56.8322-46.449-93.58-46.449-122.393,0-93.5947,96.6138-98.0073,118.0675-98.0073V-14.4341Z" fill="#0072bb" opacity="0.25"/>
    <path d="M-279.51-14.4341V511H434.9925A84.7964,84.7964,0,0,0,498.73,482.233c-.3387-8.7371-2.5706-57.7036-10.2862-65.1021-11.3833-10.9155-38.0868-9.55-49.213-26.02-3.4412-5.0943-3.034-14.35-7.0551-19.3336-13.5795-16.83-24.5825-36.8758-32.5655-59.2725-8.3608-23.4567-8.0472-42.82-10.7994-60.3256-3.2151-20.45-4.5075-37.6863-2.6709-56.7258C393.1072,123.225,467.89,103.252,520,103.252V-14.4341Z" fill="#0072bb" opacity="0.3"/>
    <path d="M-279.51-14.4341V511H434.9925a84.6523,84.6523,0,0,0,53.7995-19.1916v-8.2361s-1.045-50.0681-13.0637-59.1257c-14.0775-10.6091-58.0788-8.11-61.1384-16.1991-6.5017-17.1882-14.4334-35.2305-21.25-53.3-4.0728-10.7955-14.7622-21.1737-16.7216-32.9207-2.2742-13.6347,3.5906-43.6641.0789-60.8016-5.6047-27.3512-10.3907-55.4369-4.2593-78.8937C391.4234,109.6967,464.7547,88.8528,520,88.8528V-14.4341Z" fill="#0072bb" opacity="0.4"/>
    <path d="M-279.51-14.4341V511H434.9925a84.61,84.61,0,0,0,42.6518-11.4627v-15.965s-.5225-42.0557-7.3157-48.4424c-12.9307-12.1571-74.4968-1.0562-79.7223-8.8945-6.0316-9.0473-4.1567-21.6237-7.7179-26.7551-2.5737-3.7087-5.7861-5.96-7.8963-9.87-2.4676-4.5723-1.9015-10.451-3.1644-12.0623-3.3771-4.3088-4.1735-5.7159-7.0544-10.001-2.9006-4.3144.3223-14.9523-2.09-19.0441-4.5428-7.7051-9.3492-15.1193-11.5629-21.5987-3.2532-9.5221,13.0889-51.76,8.3981-66.0732-11.0741-33.7893-10.3543-58.2383-4.267-80.9379C380.1015,87.2271,493.3208,73.06,520,73.06V-14.4341Z" fill="#0072bb" opacity="0.5"/>
    <path d="M-279.51-14.4341V511H434.9925a84.74,84.74,0,0,0,32.8975-6.6022V483.5723s-3.6723-39.6171-8.593-40.3139c-24.1522-3.42-79.2115,20.2058-98.1815.871-5.5289-5.6353-3.31-28.74-3.31-28.74a103.7812,103.7812,0,0,1-7.1177-10.364c-2.0137-3.6144,0-12.8605,0-12.8605s-6.5112-6.1752-6.9646-10.2038c-.9418-8.3684,5.3813-20.17-1.2459-25.5619-13.7024-11.1478-24.041-17.7257-22.9941-21.1718,2.787-9.1737,7.8982-22.49,13.24-41.815,5.3622-19.3988,8.5157-32.464,8.5157-32.464s-25.2222-65.1733,7.7757-117.9689C401.9325,58.3126,515.268,58.4287,520,58.4287V-14.4341Z" fill="#0072bb"/>
  </g>
</svg>
